<svg width="1200" height="800" viewBox="0 0 1200 800" fill="none" xmlns="http://www.w3.org/2000/svg">
<g clip-path="url(#clip0_4_1062)">
<rect width="1200" height="800" rx="40" fill="white"/>
<mask id="mask0_4_1062" style="mask-type:luminance" maskUnits="userSpaceOnUse" x="0" y="0" width="1200" height="800">
<path d="M1200 0H0V800H1200V0Z" fill="white"/>
</mask>
<g mask="url(#mask0_4_1062)">
<path d="M1200 0H0V800H1200V0Z" fill="#1D1C1F"/>
</g>
<mask id="mask1_4_1062" style="mask-type:luminance" maskUnits="userSpaceOnUse" x="0" y="0" width="1200" height="800">
<path d="M1200 0H0V800H1200V0Z" fill="white"/>
</mask>
<g mask="url(#mask1_4_1062)">
<path d="M-216 1028.9C-209.1 884 -128.3 747.5 -5.20001 670.8C57.2 631.9 129.5 609.2 202.8 604.2C286.2 598.5 353.7 627.6 433.6 642.4C495.8 653.9 560.4 656.7 621.8 639.3C685.3 621.4 742.5 582.2 782.2 529.5C848.4 441.6 837.5 330.6 880.6 233C919.6 144.8 1002 77 1096.1 55.8C1190.2 34.6 1293.7 60.4 1366.8 123.4" stroke="#29282B" stroke-miterlimit="10"/>
<path d="M-226.7 1029.1C-220.3 885.6 -140.9 750 -19.5001 673.4C43.1999 633.5 116.2 610.3 190.3 605.4C212.3 603.9 233.3 604.9 253.7 607.3C311.1 614.3 363.9 633.5 423.3 645C435 647.3 446.8 649.2 458.6 650.8C510.3 657.7 563 657.2 613.4 642.8C641.1 634.9 667.5 622.9 691.8 607.2C723.5 586.8 751.3 560.4 773.9 530.1C777.2 525.7 780.3 521.2 783.3 516.7C832.5 441.5 838.5 356.4 868.2 279.3C872.8 267.4 877.9 255.6 883.8 244.1C908.1 197 945.9 156.9 991.7 127.7C1025.5 106.1 1063.9 90.4999 1104.3 82.2999C1131.8 76.7999 1160.2 74.7999 1188.3 75.8999C1257.4 78.7999 1325.2 100.2 1374.5 138.8" stroke="#29282B" stroke-miterlimit="10"/>
<path d="M-237.3 1029.3C-231.3 887.2 -153.1 753 -33.7001 676C29.3999 635.4 103 611.4 177.9 606.5C200.1 605.1 221.3 606 242 608.6C300 615.8 353.4 635.5 413.1 647.5C424.9 649.9 436.8 652 448.7 653.7C500.9 661.1 554.3 660.9 605 646.2C632.9 638.2 659.5 625.8 683.8 609.5C715.5 588.4 742.9 561.3 765.6 530.6C768.9 526.1 772.1 521.6 775.1 517C825.1 440.8 836.6 359.3 869.9 287.5C875.1 276.4 880.7 265.5 887.1 254.9C913.3 211.5 952.1 175.2 998.6 149C1033 129.6 1071.8 115.7 1112.6 108.5C1140.4 103.6 1169.1 101.8 1197.5 102.6C1267.3 104.7 1335.7 121.5 1382.4 154" stroke="#29282B" stroke-miterlimit="10"/>
<path d="M-248 1029.5C-242.5 888.8 -165.6 755.7 -48 678.6C15.4 637.1 89.8 612.5 165.5 607.6C187.9 606.2 209.4 607.2 230.3 609.8C288.9 617.2 342.9 637.4 403 650C414.9 652.5 426.9 654.7 438.9 656.5C491.7 664.5 545.7 664.5 596.8 649.6C624.9 641.4 651.6 628.8 676.1 611.9C707.8 590.2 734.9 562.3 757.6 531.1C760.9 526.6 764.1 522 767.1 517.4C817.9 440.2 834.7 362.2 871.8 295.9C877.5 285.7 883.6 275.7 890.5 265.9C918.6 226.1 958.4 193.7 1005.7 170.5C1040.6 153.3 1079.8 141.2 1121 134.9C1149.1 130.6 1178 129 1206.8 129.5C1277.3 130.8 1346.2 143.1 1390.4 169.4" stroke="#29282B" stroke-miterlimit="10"/>
<path d="M-258.7 1029.6C-253.7 890.3 -178.1 758.3 -62.3001 681.1C1.39994 638.7 76.4999 613.4 153 608.7C175.6 607.3 197.3 608.3 218.4 611C277.6 618.6 332.2 639.3 392.6 652.4C404.6 655 416.7 657.4 428.9 659.3C482.2 667.8 536.8 668.1 588.4 652.9C616.7 644.6 643.6 631.6 668.1 614.2C699.8 591.8 726.5 563.2 749.3 531.6C752.6 527 755.8 522.4 758.9 517.7C810.5 439.5 832.7 365.1 873.5 304.2C879.8 294.8 886.4 285.7 893.7 276.8C923.7 240.7 964.5 212.1 1012.5 191.9C1047.9 176.9 1087.6 166.6 1129.2 161.2C1157.7 157.5 1186.8 156.1 1215.9 156.3C1287.1 156.8 1356.6 164.5 1398.2 184.6" stroke="#29282B" stroke-miterlimit="10"/>
<path d="M-269.3 1029.8C-264.7 891.9 -190.5 761 -76.5 683.7C-12.5 640.4 63.2999 614.5 140.6 609.8C163.3 608.4 185.3 609.4 206.7 612.2C266.5 620 321.7 641.2 382.5 654.9C394.6 657.6 406.8 660.1 419.1 662.2C472.9 671.3 528.2 671.8 580.1 656.4C608.6 647.9 635.6 634.7 660.2 616.6C691.9 593.6 718.2 564.2 741.1 532.2C744.4 527.5 747.7 522.9 750.8 518.1C803.2 438.9 830.8 368 875.3 312.6C882.2 304.1 889.3 295.8 897.1 287.8C929 255.4 970.8 230.6 1019.5 213.4C1055.4 200.7 1095.6 192.1 1137.6 187.6C1166.4 184.5 1195.8 183.3 1225.2 183.2C1297.1 182.9 1367.1 186 1406.1 200" stroke="#29282B" stroke-miterlimit="10"/>
<path d="M-280 1030C-275.9 893.5 -203 763.6 -90.8 686.3C-26.5 642.1 50.1 615.6 128.1 611C151 609.6 173.2 610.7 194.8 613.6C255.2 621.6 311 643.3 372.1 657.6C384.3 660.5 396.6 663 409 665.2C463.4 674.8 519.3 675.6 571.6 659.9C600.3 651.3 627.5 637.7 652.1 619.1C683.7 595.4 709.7 565.3 732.8 532.8C736.2 528.1 739.4 523.3 742.5 518.6C795.7 438.4 828.6 371.1 876.9 321C884.3 313.3 892 305.9 900.2 298.9C934 270.1 976.8 249.2 1026.2 235C1062.7 224.5 1103.3 217.7 1145.7 214.1C1174.8 211.6 1204.5 210.6 1234.1 210.1C1306.7 208.9 1377.3 207.5 1413.7 215.4" stroke="#29282B" stroke-miterlimit="10"/>
<path d="M-290.7 1030.2C-287 895.1 -215.6 766.3 -105.1 688.9C-40.5001 643.7 36.7999 616.7 115.6 612.1C138.7 610.8 161.1 611.8 183 614.8C244 623 300.3 645.2 361.8 660C374.1 663 386.5 665.7 399 668C453.9 678.1 510.5 679.2 563.2 663.2C592.1 654.4 619.4 640.5 644.2 621.4C675.8 597 701.4 566.2 724.6 533.3C728 528.5 731.2 523.7 734.4 518.9C788.4 437.8 826.6 374 878.7 329.3C886.7 322.5 894.8 315.9 903.5 309.8C939.2 284.7 983 267.6 1033.2 256.4C1070.2 248.1 1111.2 243.1 1154.1 240.4C1183.5 238.6 1213.5 237.7 1243.4 236.9C1316.7 234.9 1387.9 229 1421.7 230.7" stroke="#29282B" stroke-miterlimit="10"/>
<path d="M-301.3 1030.3C-298.1 896.5 -228 768.8 -119.3 691.5C-54.5 645.4 23.6999 617.7 103.3 613.2C126.6 611.9 149.2 613 171.4 616C233 624.4 289.9 647.1 351.8 662.5C364.2 665.6 376.7 668.4 389.3 670.8C444.7 681.5 501.9 682.8 555 666.6C584.1 657.7 611.6 643.5 636.4 623.7C667.9 598.7 693.2 567 716.5 533.7C719.9 528.9 723.2 524 726.4 519.2C781.2 437.1 824.7 376.8 880.7 337.6C889.2 331.6 897.9 325.9 907.1 320.7C944.7 299.2 989.5 286 1040.4 277.8C1077.9 271.7 1119.4 268.5 1162.7 266.7C1192.4 265.5 1222.7 264.8 1252.9 263.7C1326.9 260.9 1398.6 250.4 1429.9 246" stroke="#29282B" stroke-miterlimit="10"/>
<path d="M-312 1030.5C-309.2 898.2 -240.6 771.4 -133.5 694.1C-68.4 647 10.5 618.8 90.9 614.4C114.4 613.1 137.2 614.2 159.6 617.3C221.8 625.9 279.3 649.1 341.5 665C354 668.2 366.6 671.2 379.3 673.7C435.3 684.9 493.1 686.6 546.6 670C575.9 660.9 603.5 646.4 628.4 626.1C659.9 600.4 684.8 568 708.2 534.3C711.6 529.4 714.9 524.5 718.2 519.6C773.8 436.5 822.5 379.7 882.4 346C891.5 340.9 900.7 336 910.3 331.7C949.8 313.9 995.6 304.5 1047.2 299.3C1085.2 295.4 1127.2 294 1170.9 293.1C1200.9 292.5 1231.5 292 1262 290.6C1336.7 287 1409 271.9 1437.6 261.4" stroke="#29282B" stroke-miterlimit="10"/>
<path d="M-322.6 1030.7C-320.3 899.7 -253 774 -147.8 696.7C-82.4 648.7 -2.79994 619.9 78.4001 615.5C102 614.2 125.2 615.4 147.8 618.5C210.6 627.3 268.7 651 331.3 667.5C343.9 670.9 356.6 673.9 369.4 676.6C425.9 688.3 484.4 690.3 538.3 673.4C567.8 664.2 595.6 649.4 620.6 628.5C652.1 602.2 676.7 569 700.1 534.9C703.5 529.9 706.8 525 710.1 520.1C766.5 436 820.5 382.8 884.2 354.5C893.8 350.2 903.6 346.2 913.7 342.8C955.1 328.7 1001.9 323.1 1054.2 321C1092.7 319.4 1135.2 319.7 1179.3 319.7C1209.6 319.7 1240.5 319.4 1271.3 317.7C1346.7 313.3 1419.5 293.7 1445.6 277" stroke="#29282B" stroke-miterlimit="10"/>
<path d="M-333.3 1030.9C-331.5 901.3 -265.6 776.5 -162.1 699.3C-96.4001 650.3 -16 621 65.9 616.6C89.7 615.3 113.1 616.5 135.9 619.8C199.3 628.8 258 653 320.9 670C333.6 673.5 346.4 676.7 359.3 679.4C416.4 691.7 475.4 693.9 529.7 676.8C559.4 667.5 587.3 652.3 612.4 630.8C643.9 603.8 668.1 569.9 691.6 535.3C695 530.3 698.4 525.3 701.7 520.3C758.9 435.2 818.2 385.5 885.7 362.6C895.9 359.2 906.1 356.1 916.7 353.5C960 343 1007.8 341.3 1060.9 342.2C1100 342.8 1142.9 344.9 1187.4 345.7C1218 346.3 1249.2 346.3 1280.3 344.1C1356.4 338.9 1429.8 314.7 1453.3 291.9" stroke="#29282B" stroke-miterlimit="10"/>
<path d="M-344 1031.1C-342.6 902.9 -278.2 779.1 -176.4 701.9C-110.5 651.9 -29.3 622 53.5 617.8C77.5 616.6 101.1 617.8 124.2 621.1C188.1 630.3 247.5 654.9 310.8 672.6C323.6 676.2 336.5 679.5 349.5 682.4C407.1 695.2 466.8 697.7 521.5 680.3C551.4 670.8 579.5 655.4 604.6 633.3C636.1 605.7 659.9 571 683.5 536C686.9 530.9 690.3 525.9 693.7 520.8C751.7 434.7 816.2 388.5 887.6 371.1C898.3 368.5 909.1 366.3 920.1 364.6C965.3 357.8 1014.1 359.9 1067.9 363.8C1107.5 366.6 1150.8 370.5 1195.7 372.2C1226.6 373.4 1258.1 373.6 1289.5 371.1C1366.3 365.1 1440.3 336.3 1461.2 307.4" stroke="#29282B" stroke-miterlimit="10"/>
<path d="M-354.6 1031.2C-353.7 904.4 -290.7 781.5 -190.5 704.4C-124.3 653.5 -42.4 623 41.2 618.8C65.4 617.6 89.2 618.8 112.6 622.2C177.1 631.6 237.1 656.7 300.7 675C313.6 678.7 326.6 682.1 339.7 685.1C397.8 698.4 458.2 701.2 513.3 683.5C543.4 673.9 571.6 658.1 596.9 635.5C628.3 607.2 651.8 571.8 675.5 536.3C678.9 531.2 682.3 526.1 685.8 521C744.6 433.9 814.4 391.1 889.6 379.3C900.9 377.5 912.2 376.2 923.7 375.4C970.8 372.2 1020.6 378.2 1075.1 385.1C1115.2 390.1 1159 395.8 1204.3 398.4C1235.5 400.2 1267.3 400.6 1299 397.8C1376.5 391 1451 357.6 1469.3 322.5" stroke="#29282B" stroke-miterlimit="10"/>
<path d="M-365.3 1031.4C-364.8 906 -303.3 784 -204.8 707C-138.4 655.1 -55.6001 624.1 28.7 619.9C53.1 618.7 77.1 619.9 100.7 623.4C165.8 633 226.4 658.6 290.4 677.4C303.4 681.2 316.5 684.8 329.7 687.9C388.4 701.8 449.4 704.8 504.8 686.9C535.1 677.1 563.5 661.1 588.8 637.8C620.3 609 643.3 572.7 667.1 536.8C670.5 531.6 674 526.4 677.4 521.3C737 433.2 812 393.9 891.1 387.6C903 386.7 914.8 386.2 926.7 386.3C975.7 386.8 1026.5 396.6 1081.7 406.5C1122.3 413.7 1166.6 421.2 1212.3 424.7C1243.8 427.2 1275.9 427.7 1307.9 424.6C1386.2 417 1461.2 379.1 1476.9 337.8" stroke="#29282B" stroke-miterlimit="10"/>
<path d="M-375.9 1031.6C-375.9 907.6 -315.9 786.5 -219 709.6C-152.4 656.6 -68.8 625.2 16.3 621.1C40.8 619.9 65.1 621.2 89 624.8C154.7 634.6 215.9 660.7 280.2 680.1C293.3 684.1 306.5 687.7 319.8 691C379 705.4 440.6 708.7 496.5 690.5C527 680.6 555.6 664.3 580.9 640.4C612.4 610.9 635 573.8 658.9 537.6C662.4 532.4 665.8 527.1 669.3 522C729.7 432.9 810 397 892.9 396.2C905.3 396.1 917.6 396.5 930 397.5C980.9 401.6 1032.7 415.3 1088.6 428.2C1129.8 437.6 1174.5 446.9 1220.6 451.3C1252.4 454.4 1284.8 455.1 1317 451.6C1396 443.2 1471.5 400.7 1484.7 353.3" stroke="#29282B" stroke-miterlimit="10"/>
<path d="M-386.6 1031.8C-387.1 909.2 -328.5 789 -233.3 712.2C-166.5 658.2 -82 626.3 3.90002 622.2C28.6 621 53.1 622.3 77.2 626C143.5 636 205.2 662.6 270 682.5C283.2 686.6 296.5 690.4 309.9 693.7C369.6 708.6 431.9 712.2 488.2 693.8C518.9 683.7 547.7 667.1 573.1 642.7C604.6 612.6 626.9 574.7 650.8 538C654.3 532.7 657.7 527.4 661.3 522.2C722.5 432.1 808.1 399.6 894.8 404.4C907.8 405.1 920.6 406.4 933.5 408.3C986.3 416.1 1039.1 433.6 1095.8 449.5C1137.5 461.2 1182.7 472.2 1229.2 477.5C1261.3 481.2 1294 482.1 1326.5 478.3C1406.2 469.1 1482.3 422 1492.9 368.5" stroke="#29282B" stroke-miterlimit="10"/>
<path d="M-397.3 1031.9C-398.2 910.7 -341.2 791.4 -247.6 714.7C-180.5 659.7 -95.3 627.2 -8.60004 623.3C16.3 622.2 41.1 623.5 65.4 627.2C132.3 637.4 194.6 664.5 259.7 685C273 689.2 286.4 693.1 299.9 696.6C360.2 712.1 423.1 715.9 479.7 697.2C510.6 687 539.5 670.1 565 645C596.4 614.2 618.4 575.6 642.4 538.5C645.9 533.1 649.4 527.8 653 522.5C714.9 431.4 805.9 402.4 896.4 412.7C909.9 414.2 923.3 416.4 936.6 419.2C991.2 430.7 1045.1 452 1102.5 470.9C1144.7 484.8 1190.3 497.6 1237.3 503.8C1269.7 508.1 1302.7 509.2 1335.5 505.1C1415.9 495.1 1492.6 443.4 1500.5 383.8" stroke="#29282B" stroke-miterlimit="10"/>
<path d="M-407.9 1032.1C-409.3 912.3 -353.7 793.9 -261.8 717.3C-194.5 661.3 -108.5 628.3 -21.0001 624.4C4.09994 623.3 29.1 624.6 53.7 628.4C121.2 638.8 184.1 666.4 249.5 687.5C262.9 691.8 276.4 695.9 290 699.4C350.8 715.4 414.3 719.5 471.4 700.5C502.5 690.1 531.6 672.9 557.1 647.3C588.5 615.9 610.1 576.5 634.2 539C637.7 533.6 641.2 528.2 644.8 522.9C707.5 430.8 803.8 405.2 898.1 421.1C912.2 423.5 926.1 426.5 939.8 430.2C996.3 445.3 1051.2 470.5 1109.3 492.4C1152 508.5 1198.1 523.1 1245.5 530.2C1278.2 535.1 1311.5 536.4 1344.6 532C1425.7 521.2 1502.9 465 1508.3 399.2" stroke="#29282B" stroke-miterlimit="10"/>
<path d="M-418.6 1032.3C-420.4 913.9 -366.4 796.4 -276.1 719.9C-208.7 662.8 -121.7 629.4 -33.5001 625.5C-8.30006 624.4 16.9999 625.8 41.7999 629.6C109.9 640.2 173.4 668.3 239.2 689.9C252.7 694.3 266.3 698.5 280 702.2C341.3 718.8 405.5 723.1 463 703.9C494.3 693.4 523.5 675.9 549.1 649.7C580.5 617.6 601.7 577.5 625.9 539.5C629.4 534 633 528.6 636.6 523.2C700.1 430.1 801.8 407.8 899.8 429.4C914.5 432.6 928.8 436.6 943.1 441.1C1001.5 459.9 1057.4 488.9 1116.2 513.8C1159.4 532.1 1206 548.5 1253.8 556.5C1286.8 562 1320.4 563.5 1353.8 558.8C1435.6 547.2 1513.4 486.4 1516.2 414.5" stroke="#29282B" stroke-miterlimit="10"/>
<path d="M-429.2 1032.5C-431.5 915.5 -379.1 798.7 -290.3 722.5C-222.8 664.2 -134.9 630.5 -45.9 626.7C-20.5 625.6 5.00001 627 30.1 631C98.8 641.8 162.9 670.4 229 692.6C242.6 697.2 256.3 701.4 270.1 705.3C332 722.4 396.8 727.1 454.6 707.5C486.1 696.9 515.5 679 541.2 652.2C572.6 619.5 593.4 578.6 617.7 540.2C621.2 534.7 624.8 529.2 628.5 523.8C692.8 429.7 799.8 410.9 901.6 437.9C916.8 441.9 931.7 446.8 946.4 452.2C1006.7 474.6 1063.6 507.5 1123.2 535.4C1167 555.9 1214 574.1 1262.1 583C1295.4 589.1 1329.3 590.8 1363 585.7C1445.5 573.2 1523.8 507.9 1524 429.9" stroke="#29282B" stroke-miterlimit="10"/>
<path d="M-439.9 1032.6C-442.6 917 -391.7 801.2 -304.6 725.1C-217.5 649 -95.9 614 18.3 632.2C101.9 645.5 178.7 685.1 260.2 708.1C356.6 735.3 460.2 732.3 533.3 654.5C569.2 616.3 590.8 567.3 620.4 524.1C685.5 429.1 797.8 413.7 903.4 446.2C983.9 471 1055.2 518.4 1130.1 556.9C1205 595.4 1289 625.9 1372.2 612.6C1455.4 599.3 1534.3 529.5 1531.9 445.2" stroke="#29282B" stroke-miterlimit="10"/>
<path d="M-418.6 1032.5C-417.7 919.5 -364.4 808.8 -277.3 734.6C-267.3 726.1 -256.9 718.1 -246.1 710.6C-162.9 652.7 -58.5 625.1 39.9 637.1C85.8 642.6 129.5 656.1 173.1 670.2C206.7 681.1 240.3 692.3 274.7 700.5C368.1 723 468.4 716.5 540.3 639.5C575.7 601.5 597.7 553.3 627.6 511C692.6 418.3 803.3 402.5 907.4 434.1C927.2 440.1 946.4 447.5 965.3 455.8C1022.2 481 1075.6 514.7 1131.1 543.4C1143.8 550 1156.7 556.3 1169.9 562.2C1233.4 590.6 1302 609.2 1370 598.5C1452.1 585.6 1530.1 518 1530 435.8" stroke="#29282B" stroke-miterlimit="10"/>
<path d="M-397.4 1032.3C-392.9 922 -337.2 816.4 -250.1 744C-240.1 735.7 -229.7 727.9 -219 720.5C-136.3 663.5 -34.3 634.1 61.4 641.8C106 645.4 148.5 656.4 190.7 668.1C223.3 677.1 255.8 686.4 289.1 692.8C379.4 710.5 476.5 700.7 547.2 624.4C582.1 586.6 604.6 539.4 634.7 497.8C699.8 407.7 808.7 391.2 911.4 421.9C930.9 427.7 949.9 435 968.6 443.2C1024.8 468 1077.3 501.5 1132 530C1144.5 536.5 1157.3 542.8 1170.3 548.6C1232.9 576.8 1300.6 594.8 1367.8 584.5C1448.9 572 1525.9 506.6 1528.1 426.5" stroke="#29282B" stroke-miterlimit="10"/>
<path d="M-376.1 1032.1C-368 924.5 -309.9 823.9 -222.8 753.5C-212.8 745.4 -202.5 737.8 -191.8 730.5C-109.5 674.5 -9.99997 643.1 83 646.6C126.4 648.2 167.5 656.8 208.4 666.1C240 673.2 271.4 680.5 303.6 685.2C391 697.9 484.7 685 554.3 609.3C588.8 571.7 611.7 525.4 641.9 484.6C706.9 396.9 814.2 380 915.4 409.7C934.7 415.3 953.5 422.4 971.9 430.5C1027.4 454.9 1079.1 488.2 1133 516.5C1145.3 523 1157.9 529.2 1170.7 535C1232.4 562.9 1299.3 580.4 1365.6 570.4C1445.6 558.3 1521.7 495.1 1526.2 417.1" stroke="#29282B" stroke-miterlimit="10"/>
<path d="M-354.8 1031.9C-343 927 -282.6 831.5 -195.4 762.9C-185.4 755 -175.1 747.5 -164.5 740.4C-82.7 685.4 14.3999 652 104.7 651.3C146.8 650.9 186.7 657.1 226.1 664C256.6 669.2 287 674.5 318.2 677.4C402.5 685.3 493 669 561.4 594.1C595.4 556.7 618.7 511.3 649.2 471.3C714.1 386.1 819.9 368.6 919.6 397.4C938.7 402.9 957.2 409.8 975.4 417.7C1030.2 441.7 1081 474.8 1134.1 502.9C1146.2 509.3 1158.6 515.5 1171.3 521.2C1232.1 548.8 1298.1 565.9 1363.6 556.2C1442.6 544.5 1517.8 483.5 1524.5 407.6" stroke="#29282B" stroke-miterlimit="10"/>
<path d="M-333.6 1031.8C-318.2 929.5 -255.4 839.1 -168.2 772.4C-158.2 764.8 -147.9 757.4 -137.4 750.4C-56.1 696.3 38.6 661 126.1 656.1C166.9 653.8 205.5 657.5 243.6 661.9C273.1 665.2 302.4 668.6 332.5 669.7C413.8 672.8 501.1 653.2 568.2 579C601.7 541.8 625.5 497.3 656.2 458.1C721.1 375.3 825.2 357.4 923.4 385.1C942.2 390.4 960.5 397.1 978.5 404.9C1032.6 428.4 1082.6 461.4 1134.8 489.2C1146.8 495.6 1159 501.7 1171.4 507.4C1231.3 534.7 1296.5 551.3 1361 542C1438.9 530.7 1513.2 471.9 1522.2 398.1" stroke="#29282B" stroke-miterlimit="10"/>
<path d="M-312.3 1031.6C-293.3 932 -228.1 846.7 -140.9 781.9C-130.9 774.5 -120.6 767.3 -110.2 760.4C-29.3001 707.3 62.8999 670.1 147.7 661C187.3 656.7 224.6 658.1 261.3 660C289.7 661.5 318 662.8 347 662.2C425.3 660.4 509.3 637.5 575.2 564C608.2 527 632.4 483.4 663.4 445C728.2 364.7 830.7 346.2 927.4 373C946 378.1 964.1 384.7 981.8 392.3C1035.2 415.4 1084.3 448.2 1135.7 475.8C1147.5 482.1 1159.5 488.2 1171.7 493.8C1230.7 520.8 1295 537 1358.7 528C1435.5 517.1 1508.9 460.5 1520.2 388.7" stroke="#29282B" stroke-miterlimit="10"/>
<path d="M-291 1031.4C-268.3 934.5 -200.8 854.2 -113.6 791.3C-103.6 784.1 -93.4 777.1 -82.9 770.4C-2.49999 718.3 87.2 679.1 169.3 665.8C207.6 659.5 243.7 658.5 279 658C306.4 657.6 333.6 657 361.5 654.5C436.8 647.9 517.5 621.7 582.2 548.9C614.7 512.1 639.3 469.4 670.5 431.8C735.2 353.9 836.1 334.9 931.4 360.8C949.7 365.8 967.6 372.1 985.1 379.7C1037.8 402.4 1086 435 1136.7 462.4C1148.3 468.7 1160.1 474.7 1172.2 480.2C1230.3 506.9 1293.8 522.6 1356.6 513.9C1432.4 503.4 1504.8 449 1518.4 379.3" stroke="#29282B" stroke-miterlimit="10"/>
<path d="M-269.8 1031.2C-243.5 936.9 -173.6 861.8 -86.4 800.8C-76.4 793.8 -66.2 787 -55.8 780.4C24.2 729.2 111.5 688.1 190.9 670.6C227.9 662.4 262.7 658.9 296.7 656C323.1 653.8 349.2 651.1 376 646.9C448.2 635.5 525.7 606 589.3 533.9C621.4 497.4 646.4 455.5 677.8 418.8C742.4 343.3 841.8 323.9 935.5 348.8C953.6 353.6 971.2 359.8 988.5 367.2C1040.5 389.5 1087.9 421.9 1137.7 449.1C1149.1 455.3 1160.8 461.3 1172.6 466.8C1229.8 493.3 1292.4 508.4 1354.4 500.1C1429.1 490 1500.6 437.8 1516.6 370.2" stroke="#29282B" stroke-miterlimit="10"/>
<path d="M-248.5 1031.1C-218.6 939.5 -146.3 869.4 -59.1 810.3C-49.1 803.5 -38.9 796.9 -28.6 790.4C50.9 740.2 135.8 697.1 212.4 675.4C248.2 665.2 281.7 659.3 314.3 654C339.6 649.9 364.7 645.3 390.4 639.3C459.6 623.1 533.8 590.2 596.2 518.8C627.8 482.5 653.2 441.5 684.9 405.6C749.3 332.5 847.2 312.6 939.5 336.6C957.3 341.2 974.8 347.2 991.8 354.5C1043.1 376.4 1089.6 408.6 1138.6 435.5C1149.8 441.7 1161.3 447.6 1173 453C1229.3 479.2 1291.1 493.9 1352.2 485.9C1425.8 476.2 1496.4 426.2 1514.7 360.7" stroke="#29282B" stroke-miterlimit="10"/>
<path d="M-227.2 1030.9C-193.7 942 -119 877 -31.7001 819.8C-21.7001 813.2 -11.5001 806.8 -1.30006 800.4C77.6999 751.1 160.1 706.1 234 680.2C268.5 668 300.8 659.7 332 652C356.3 646 380.3 639.4 404.9 631.6C471 610.7 542.1 574.4 603.2 503.7C634.3 467.6 660.1 427.5 692.1 392.4C756.4 321.8 852.7 301.4 943.5 324.4C961.1 328.8 978.3 334.7 995.1 341.8C1045.7 363.3 1091.4 395.3 1139.6 422C1150.6 428.1 1161.9 434 1173.4 439.4C1228.8 465.3 1289.7 479.5 1349.9 471.8C1422.5 462.5 1492.1 414.7 1512.7 351.3" stroke="#29282B" stroke-miterlimit="10"/>
<path d="M-206 1030.7C-168.8 944.5 -91.8 884.6 -4.5 829.2C5.5 822.9 15.6 816.6 25.8 810.3C104.4 762 184.4 715.1 255.6 685C288.9 670.8 319.8 660.1 349.7 650C373 642.1 395.8 633.6 419.5 624C482.6 598.3 550.4 558.6 610.3 488.7C640.9 452.8 667.1 413.6 699.3 379.3C763.4 311.1 858.2 290.2 947.6 312.3C965 316.6 981.9 322.3 998.5 329.2C1048.4 350.3 1093.2 382.1 1140.6 408.6C1151.5 414.7 1162.5 420.5 1173.9 425.8C1228.4 451.4 1288.5 465.1 1347.8 457.8C1419.3 448.9 1488.1 403.3 1510.9 341.9" stroke="#29282B" stroke-miterlimit="10"/>
<path d="M-184.7 1030.5C-143.9 946.9 -64.5001 892.1 22.7999 838.7C32.7999 832.6 42.8999 826.5 52.9999 820.3C131.2 773 208.7 724.1 277.2 689.8C309.2 673.7 338.9 660.5 367.4 648C389.6 638.2 411.4 627.8 434 616.4C494 586 558.6 542.9 617.3 473.6C647.5 437.9 674 399.6 706.5 366.1C770.5 300.2 863.8 278.9 951.6 300.1C968.7 304.2 985.5 309.7 1001.8 316.6C1051 337.3 1095 368.9 1141.5 395.2C1152.2 401.2 1163.1 407 1174.2 412.2C1227.8 437.5 1287 450.8 1345.5 443.8C1416 435.4 1483.8 391.9 1508.9 332.6" stroke="#29282B" stroke-miterlimit="10"/>
<path d="M-163.5 1030.4C-119.1 949.5 -37.3 899.8 50 848.2C60 842.3 70.1 836.4 80.2 830.3C157.9 783.9 233 733.1 298.7 694.6C329.4 676.5 357.9 660.9 385 646C406.2 634.3 426.9 622 448.4 608.7C505.4 573.6 566.7 527.1 624.2 458.5C653.9 423 680.8 385.5 713.6 352.9C777.4 289.4 869.2 267.7 955.5 287.9C972.4 291.8 988.9 297.2 1005 303.9C1053.5 324.1 1096.6 355.6 1142.4 381.6C1152.9 387.6 1163.6 393.3 1174.6 398.5C1227.3 423.6 1285.7 436.3 1343.3 429.6C1412.7 421.6 1479.6 380.3 1507 323.1" stroke="#29282B" stroke-miterlimit="10"/>
<path d="M-142.2 1030.2C-94.1001 952 -10.0001 907.3 77.2999 857.6C87.2999 851.9 97.4 846.1 107.4 840.3C184.6 794.9 257.3 742.1 320.3 699.4C349.8 679.3 376.9 661.3 402.7 644C422.8 630.4 442.5 616.2 462.9 601.1C516.8 561.2 574.9 511.3 631.3 443.4C660.5 408.1 687.8 371.5 720.9 339.7C784.5 278.6 874.8 256.4 959.7 275.6C976.3 279.3 992.6 284.5 1008.5 291.1C1056.3 310.9 1098.5 342.2 1143.5 368C1153.8 373.9 1164.3 379.6 1175.1 384.7C1226.9 409.5 1284.4 421.8 1341.2 415.4C1409.5 407.8 1475.5 368.8 1505.2 313.6" stroke="#29282B" stroke-miterlimit="10"/>
<path d="M-120.9 1030C-69.2 954.5 17.2999 914.9 104.6 867.1C114.6 861.6 124.6 856 134.6 850.3C211.4 805.9 281.6 751.2 341.9 704.2C370.1 682.2 396 661.7 420.4 641.9C439.5 626.4 458.1 610.3 477.4 593.4C528.3 548.8 583.1 495.5 638.3 428.3C667 393.2 694.7 357.5 728 326.5C791.4 267.7 880.2 245.2 963.6 263.4C980 267 996 272 1011.7 278.4C1058.8 297.8 1100.2 328.9 1144.3 354.5C1154.4 360.4 1164.8 366 1175.3 371.1C1226.2 395.6 1282.9 407.4 1338.7 401.4C1406 394.2 1471 357.4 1503 304.3" stroke="#29282B" stroke-miterlimit="10"/>
<path d="M-99.7001 1029.8C-44.4001 956.9 44.5 922.4 131.9 876.5C141.9 871.2 151.9 865.8 161.8 860.2C238.1 816.7 305.9 760.1 363.5 709C390.5 685 415 662.1 438.1 639.9C456.2 622.6 473.7 604.5 491.9 585.7C539.8 536.4 591.4 479.6 645.3 413.2C673.6 378.3 701.5 343.4 735.2 313.3C798.4 256.9 885.7 233.9 967.7 251.2C983.8 254.6 999.7 259.4 1015.1 265.8C1061.5 284.8 1102 315.7 1145.4 341.1C1155.4 346.9 1165.5 352.5 1175.9 357.5C1225.9 381.7 1281.7 393 1336.7 387.3C1402.9 380.5 1467 345.9 1501.3 294.8" stroke="#29282B" stroke-miterlimit="10"/>
<path d="M-78.4 1029.7C-19.5 959.5 71.8 930.1 159.2 886.1C169.2 881.1 179.2 875.8 189 870.3C264.9 827.8 330.2 769.2 385 713.9C410.7 687.9 434 662.6 455.7 638C472.7 618.8 489.2 598.7 506.3 578.2C551.2 524.2 599.5 464 652.2 398.2C680 363.5 708.3 329.5 742.3 300.3C805.3 246.2 891.2 222.8 971.6 239.2C987.5 242.4 1003.1 247.1 1018.3 253.3C1064 271.9 1103.7 302.6 1146.2 327.7C1156 333.5 1165.9 339 1176.1 344C1225.2 367.9 1280.2 378.8 1334.3 373.4C1399.4 367 1462.6 334.6 1499.2 285.6" stroke="#29282B" stroke-miterlimit="10"/>
<path d="M-57.1001 1029.5C5.4999 962 99.0999 937.6 186.5 895.5C196.5 890.7 206.4 885.6 216.2 880.2C291.6 838.6 354.5 778.1 406.6 718.6C431 690.7 453 662.8 473.4 635.9C489.3 614.7 504.8 592.8 520.9 570.5C562.9 511.8 607.8 448.2 659.3 383.1C686.6 348.6 715.3 315.4 749.6 287.1C812.3 235.3 896.8 211.6 975.7 227C991.4 230 1006.7 234.6 1021.7 240.6C1066.7 258.8 1105.5 289.3 1147.2 314.2C1156.8 319.9 1166.5 325.4 1176.6 330.3C1224.8 353.9 1278.9 364.3 1332.2 359.3C1396.3 353.3 1458.6 323.1 1497.4 276.2" stroke="#29282B" stroke-miterlimit="10"/>
<path d="M-35.9 1029.3C30.3 964.4 126.3 945.2 213.7 905C223.7 900.4 233.6 895.5 243.3 890.2C318.3 849.6 378.7 787.2 428.1 723.4C451.3 693.5 471.9 663.2 491 633.9C505.9 610.8 520.4 587 535.3 562.8C574.3 499.4 615.9 432.3 666.3 368C693.1 333.7 722.1 301.3 756.7 273.9C819.2 224.4 902.2 200.3 979.7 214.8C995.1 217.7 1010.3 222 1025 227.9C1069.3 245.7 1107.2 276 1148.2 300.7C1157.6 306.4 1167.2 311.8 1177 316.6C1224.3 340 1277.6 349.8 1330 345.2C1393 339.6 1454.4 311.6 1495.5 266.8" stroke="#29282B" stroke-miterlimit="10"/>
<path d="M-14.6001 1029.1C55.1999 966.9 153.6 952.8 241 914.4C251 910 260.9 905.3 270.6 900.1C345.1 860.5 403.1 796.1 449.8 728.2C471.7 696.3 491.1 663.6 508.8 631.9C522.6 607 536.1 581.2 549.9 555.2C586.1 487.2 624.2 416.6 673.4 352.9C699.7 318.8 729.1 287.2 764 260.7C826.2 213.4 907.8 189.1 983.8 202.6C999 205.3 1013.9 209.5 1028.4 215.2C1072 232.5 1109.1 262.7 1149.2 287.2C1158.4 292.8 1167.8 298.2 1177.5 303C1223.9 326.1 1276.3 335.5 1327.8 331.1C1389.8 325.9 1450.2 300.1 1493.6 257.4" stroke="#29282B" stroke-miterlimit="10"/>
<path d="M6.69995 1029C88.6 962.7 204.4 959 297.8 910.2C406.6 853.4 475.4 736.9 526.4 630C590.8 495.2 645.5 338.9 771.1 247.7C845.5 193.6 946.1 169 1031.7 202.7C1084.5 223.5 1127.1 264 1177.8 289.5C1277.9 339.7 1407.9 322.6 1491.6 248.2" stroke="#29282B" stroke-miterlimit="10"/>
</g>
<mask id="mask2_4_1062" style="mask-type:luminance" maskUnits="userSpaceOnUse" x="0" y="0" width="1200" height="800">
<path d="M1200 0H0V800H1200V0Z" fill="white"/>
</mask>
<g mask="url(#mask2_4_1062)">
<path d="M1322.2 635.1C1256.1 603.5 1173.2 610.2 1113.1 652.1C1093.2 665.9 1075.9 683.2 1056.1 697.2C1036.3 711.2 1013 722.2 988.8 720.9C950.7 718.8 921.2 687.9 886.7 671.5C832.4 645.7 767.9 657 710.9 676C653.8 695 597.8 721.2 537.8 724.1C518.9 725 499.5 723.5 482.2 715.8C464.9 708.1 449.9 693.7 445 675.4C436.5 643.5 461.9 610.3 492.9 599.1C523.9 587.9 558.3 593.4 590.4 601.2C622.5 609 654.8 619 687.7 616.4C744.4 611.9 791.1 571.3 830 529.9C868.9 488.5 906.9 442.6 959.7 421.6C1005.6 403.3 1057.2 406.2 1105.7 415.3C1154.2 424.4 1201.7 439.4 1250.8 444.6C1299.9 449.8 1352.5 444.1 1392.7 415.3L1322.2 635.1Z" fill="#194D59"/>
</g>
<mask id="mask3_4_1062" style="mask-type:luminance" maskUnits="userSpaceOnUse" x="0" y="0" width="1200" height="800">
<path d="M1200 0H0V800H1200V0Z" fill="white"/>
</mask>
<g mask="url(#mask3_4_1062)">
<path d="M-206.4 632.4C-142.8 586.3 -75.9 538.7 1.79996 527.1C50.2 519.9 100.1 527.2 148.2 518C220.7 504.2 284.3 450.5 310.2 381.3C317.4 362 322 341.4 333.7 324.5C355.1 293.4 395.4 281.8 432.9 277.6C470.4 273.4 509.5 274.2 544.1 259.3C606.5 232.4 638.8 151.2 612 88.8C600 60.8 571.9 35.3 542 41.6C499.9 50.6 491.4 110.3 454.8 132.9C430.8 147.8 399.4 143.4 373.2 132.8C347 122.1 323.3 105.8 296.5 97C229.7 75 149.2 108.4 117.7 171.2C91.1 224.2 98 289.2 71.5 342.4C54.1 377.4 22.3 405 -14.9 417.3C-52.1 429.6 -94 426.5 -128.9 408.9L-206.4 632.4Z" fill="#194D59"/>
</g>
<mask id="mask4_4_1062" style="mask-type:luminance" maskUnits="userSpaceOnUse" x="0" y="0" width="1200" height="800">
<path d="M1200 0H0V800H1200V0Z" fill="white"/>
</mask>
<g mask="url(#mask4_4_1062)">
<path d="M329.9 899.2C334.4 805.1 386.8 716.4 466.8 666.7C507.3 641.5 554.2 626.7 601.9 623.5C656.1 619.8 699.9 638.7 751.8 648.3C792.2 655.8 834.2 657.6 874 646.3C915.2 634.7 952.4 609.2 978.1 575C1021.1 517.9 1014 445.8 1042 382.5C1067.3 325.2 1120.8 281.2 1181.9 267.4C1243 253.6 1310.2 270.4 1357.7 311.3" stroke="#F2F2F2" stroke-miterlimit="10"/>
<path d="M323 899.4C327.2 806.2 378.7 718.2 457.5 668.4C498.2 642.5 545.6 627.4 593.7 624.2C608 623.2 621.6 623.9 634.9 625.5C672.2 630 706.5 642.5 745 650C752.6 651.5 760.3 652.7 767.9 653.8C801.5 658.3 835.7 657.9 868.4 648.6C886.4 643.5 903.5 635.7 919.3 625.5C939.9 612.2 958 595.1 972.6 575.4C974.7 572.5 976.8 569.6 978.7 566.7C1010.7 517.9 1014.5 462.6 1033.8 412.5C1036.8 404.8 1040.1 397.1 1043.9 389.7C1059.7 359.1 1084.2 333.1 1114 314.1C1136 300.1 1160.9 289.9 1187.1 284.6C1205 281 1223.4 279.7 1241.6 280.5C1286.4 282.4 1330.5 296.3 1362.5 321.3" stroke="#E7EBEC" stroke-miterlimit="10"/>
<path d="M316.1 899.5C320 807.2 370.8 720.1 448.3 670.1C489.3 643.7 537.1 628.1 585.7 625C600.1 624.1 613.9 624.7 627.3 626.3C665 631 699.6 643.8 738.4 651.6C746.1 653.1 753.8 654.5 761.5 655.6C795.4 660.4 830.1 660.3 863 650.8C881.1 645.6 898.4 637.6 914.2 627C934.8 613.3 952.6 595.7 967.3 575.7C969.4 572.8 971.5 569.8 973.4 566.9C1005.9 517.4 1013.3 464.5 1035 417.9C1038.3 410.7 1042 403.6 1046.1 396.8C1063.1 368.6 1088.3 345 1118.5 328C1140.8 315.4 1166 306.4 1192.5 301.7C1210.6 298.5 1229.2 297.3 1247.6 297.9C1292.9 299.2 1337.3 310.2 1367.7 331.3" stroke="#DDE4E6" stroke-miterlimit="10"/>
<path d="M309.2 899.6C312.8 808.2 362.7 721.8 439.1 671.8C480.3 644.8 528.6 628.8 577.7 625.7C592.2 624.8 606.2 625.4 619.8 627.1C657.9 631.9 692.9 645 731.9 653.2C739.6 654.8 747.4 656.3 755.2 657.4C789.5 662.6 824.5 662.6 857.7 652.9C875.9 647.6 893.3 639.4 909.2 628.4C929.8 614.3 947.4 596.2 962.1 576C964.3 573 966.3 570.1 968.3 567.1C1001.3 517 1012.2 466.3 1036.3 423.3C1040 416.7 1044 410.2 1048.4 403.8C1066.7 378 1092.5 356.9 1123.2 341.8C1145.9 330.7 1171.3 322.8 1198.1 318.7C1216.4 315.9 1235.1 314.9 1253.8 315.2C1299.6 316 1344.3 324 1373 341.1" stroke="#D2DDE1" stroke-miterlimit="10"/>
<path d="M302.3 899.7C305.6 809.2 354.6 723.5 429.8 673.4C471.2 645.9 519.9 629.5 569.6 626.4C584.3 625.5 598.3 626.1 612.1 627.9C650.5 632.8 686 646.3 725.2 654.8C733 656.5 740.8 658 748.7 659.3C783.3 664.8 818.8 665 852.2 655.2C870.6 649.8 888 641.4 903.9 630.1C924.5 615.6 941.8 597 956.7 576.5C958.9 573.5 960.9 570.5 962.9 567.5C996.4 516.7 1010.8 468.4 1037.3 428.9C1041.4 422.8 1045.7 416.9 1050.4 411.1C1069.9 387.7 1096.4 369.1 1127.5 356C1150.5 346.3 1176.3 339.6 1203.3 336.1C1221.8 333.7 1240.7 332.8 1259.6 332.9C1305.8 333.2 1350.9 338.2 1378 351.3" stroke="#C7D6DB" stroke-miterlimit="10"/>
<path d="M295.3 899.8C298.3 810.2 346.4 725.2 420.5 675.1C462 647 511.3 630.2 561.5 627.1C576.3 626.2 590.5 626.9 604.4 628.7C643.2 633.8 679.1 647.5 718.5 656.4C726.4 658.2 734.3 659.8 742.2 661.1C777.2 667 813.1 667.3 846.8 657.3C865.3 651.8 882.9 643.2 898.8 631.5C919.4 616.6 936.5 597.5 951.4 576.7C953.6 573.7 955.7 570.6 957.7 567.6C991.7 516.2 1009.6 470.2 1038.6 434.1C1043.1 428.6 1047.7 423.2 1052.7 418C1073.4 396.9 1100.6 380.9 1132.2 369.7C1155.5 361.4 1181.6 355.9 1208.9 352.9C1227.6 350.9 1246.7 350.1 1265.8 350C1312.5 349.8 1358 351.8 1383.3 360.9" stroke="#BCCFD5" stroke-miterlimit="10"/>
<path d="M288.4 899.9C291.1 811.2 338.4 726.9 411.3 676.8C453 648.1 502.8 630.9 553.5 627.9C568.4 627 582.8 627.7 596.8 629.6C636 634.8 672.2 648.9 711.9 658.1C719.8 660 727.8 661.6 735.8 663C771.1 669.2 807.4 669.8 841.4 659.6C860 654 877.7 645.2 893.7 633.1C914.2 617.7 931.1 598.1 946.1 577.1C948.3 574 950.4 571 952.4 567.9C986.9 515.9 1008.3 472.1 1039.7 439.6C1044.5 434.6 1049.5 429.8 1054.8 425.2C1076.7 406.5 1104.5 392.9 1136.6 383.7C1160.3 376.9 1186.6 372.5 1214.2 370.1C1233.1 368.5 1252.4 367.8 1271.6 367.5C1318.7 366.7 1364.6 365.8 1388.2 371" stroke="#B2C8CF" stroke-miterlimit="10"/>
<path d="M281.5 900C283.9 812.2 330.3 728.6 402 678.4C443.9 649.1 494.2 631.5 545.3 628.5C560.3 627.6 574.8 628.3 589.1 630.2C628.7 635.5 665.3 649.9 705.2 659.6C713.2 661.5 721.2 663.3 729.3 664.8C765 671.4 801.7 672.1 835.9 661.7C854.6 656 872.4 647 888.5 634.5C909 618.7 925.7 598.6 940.7 577.3C942.9 574.2 945 571.1 947.1 568C982.2 515.3 1007 473.9 1040.8 444.9C1046 440.5 1051.3 436.2 1056.9 432.2C1080.1 415.9 1108.5 404.8 1141.1 397.5C1165.1 392.1 1191.8 388.9 1219.6 387.1C1238.7 385.9 1258.2 385.4 1277.6 384.8C1325.2 383.5 1371.4 379.6 1393.4 380.8" stroke="#A7C1C9" stroke-miterlimit="10"/>
<path d="M274.6 900.2C276.7 813.3 322.2 730.4 392.8 680.2C434.9 650.3 485.6 632.3 537.3 629.4C552.4 628.5 567.1 629.3 581.5 631.2C621.5 636.7 658.5 651.4 698.6 661.4C706.7 663.4 714.8 665.3 722.9 666.8C758.9 673.7 796 674.6 830.5 664C849.4 658.2 867.2 649 883.4 636.2C903.9 619.9 920.3 599.4 935.4 577.8C937.6 574.7 939.7 571.5 941.8 568.4C977.4 515.1 1005.6 475.9 1042 450.5C1047.5 446.6 1053.2 442.9 1059.1 439.5C1083.5 425.6 1112.6 417 1145.6 411.7C1170 407.8 1196.9 405.7 1225 404.5C1244.3 403.7 1264 403.3 1283.6 402.5C1331.7 400.7 1378.2 393.9 1398.5 391" stroke="#9CBAC4" stroke-miterlimit="10"/>
<path d="M267.6 900.3C269.4 814.4 314 732 383.5 681.8C425.8 651.2 477 632.9 529.2 630C544.4 629.2 559.3 629.9 573.8 631.9C614.2 637.5 651.5 652.5 691.9 662.9C700 665 708.2 666.9 716.4 668.5C752.8 675.8 790.3 676.8 825 666.1C844 660.2 862 650.8 878.1 637.6C898.6 620.9 914.8 599.9 929.9 578C932.1 574.8 934.3 571.6 936.4 568.5C972.5 514.5 1004.2 477.7 1043 455.8C1048.9 452.5 1054.9 449.3 1061.1 446.5C1086.7 434.9 1116.5 428.8 1150 425.5C1174.7 423 1202 422.1 1230.3 421.5C1249.8 421.1 1269.7 420.8 1289.5 419.9C1338 417.6 1384.9 407.8 1403.5 400.9" stroke="#92B3BE" stroke-miterlimit="10"/>
<path d="M260.7 900.4C262.2 815.4 305.9 733.7 374.2 683.5C416.7 652.3 468.4 633.6 521.1 630.8C536.5 630 551.5 630.7 566.2 632.8C607 638.5 644.7 653.9 685.3 664.6C693.5 666.8 701.7 668.8 710 670.5C746.7 678.1 784.7 679.4 819.6 668.4C838.7 662.4 856.8 652.8 873 639.2C893.5 622.1 909.4 600.6 924.6 578.4C926.8 575.2 929 572 931.1 568.8C967.7 514.2 1002.8 479.6 1044.1 461.2C1050.4 458.4 1056.7 455.8 1063.2 453.6C1090.1 444.4 1120.5 440.8 1154.5 439.4C1179.5 438.3 1207.1 438.6 1235.7 438.5C1255.4 438.5 1275.4 438.3 1295.4 437.2C1344.4 434.4 1391.7 421.6 1408.6 410.8" stroke="#87ACB8" stroke-miterlimit="10"/>
<path d="M253.8 900.5C255 816.4 297.7 735.3 365 685.2C407.6 653.4 459.8 634.3 513.1 631.5C528.6 630.7 543.7 631.4 558.6 633.6C599.7 639.4 637.9 655.1 678.7 666.2C686.9 668.5 695.2 670.5 703.6 672.3C740.6 680.3 779 681.7 814.3 670.6C833.6 664.5 851.7 654.7 868 640.8C888.4 623.3 904.2 601.3 919.4 578.8C921.6 575.5 923.8 572.3 926 569.1C963.1 513.8 1001.6 481.5 1045.5 466.7C1052.1 464.5 1058.8 462.5 1065.6 460.8C1093.7 454 1124.8 452.9 1159.2 453.4C1184.6 453.8 1212.4 455.2 1241.3 455.7C1261.2 456.1 1281.4 456.1 1301.6 454.7C1351 451.3 1398.7 435.6 1413.9 420.8" stroke="#7CA6B2" stroke-miterlimit="10"/>
<path d="M246.9 900.6C247.8 817.4 289.6 737 355.8 686.8C398.6 654.4 451.3 634.9 505.1 632.2C520.7 631.4 536 632.2 551 634.3C592.5 640.3 631.1 656.3 672.2 667.7C680.5 670 688.9 672.2 697.3 674C734.7 682.3 773.5 683.9 809 672.6C828.4 666.4 846.6 656.4 863 642.1C883.4 624.2 898.9 601.6 914.2 578.9C916.4 575.6 918.6 572.3 920.8 569.1C958.4 513.2 1000.4 483.2 1046.7 471.9C1053.7 470.2 1060.7 468.8 1067.8 467.7C1097.1 463.3 1128.8 464.6 1163.8 467.2C1189.5 469 1217.7 471.6 1246.8 472.7C1266.9 473.5 1287.3 473.6 1307.7 472C1357.6 468.1 1405.6 449.4 1419.2 430.6" stroke="#719FAC" stroke-miterlimit="10"/>
<path d="M240 900.7C240.6 818.4 281.5 738.6 346.5 688.5C389.5 655.4 442.7 635.7 496.9 632.9C512.6 632.1 528.1 632.9 543.2 635.1C585.1 641.2 624 657.5 665.4 669.4C673.8 671.8 682.2 674 690.7 676C728.4 684.7 767.6 686.4 803.4 675C822.9 668.7 841.3 658.5 857.7 643.8C878.1 625.5 893.4 602.4 908.7 579.4C910.9 576.1 913.1 572.7 915.4 569.5C953.6 512.9 998.9 485.2 1047.7 477.5C1055 476.3 1062.4 475.5 1069.8 475C1100.4 472.9 1132.7 476.8 1168.1 481.3C1194.1 484.6 1222.6 488.3 1252 490C1272.2 491.2 1292.9 491.4 1313.5 489.6C1363.9 485.2 1412.2 463.5 1424.1 440.7" stroke="#6798A6" stroke-miterlimit="10"/>
<path d="M233 900.8C233.3 819.4 273.2 740.2 337.2 690.1C380.3 656.4 434.1 636.3 488.8 633.6C504.6 632.8 520.2 633.6 535.6 635.9C577.9 642.1 617.2 658.8 658.8 671C667.2 673.5 675.7 675.8 684.3 677.8C722.4 686.8 762 688.8 798 677.1C817.7 670.8 836.1 660.4 852.5 645.2C872.9 626.5 887.9 602.9 903.3 579.6C905.5 576.2 907.8 572.9 910 569.5C948.7 512.3 997.4 486.8 1048.7 482.7C1056.4 482.1 1064.1 481.8 1071.8 481.9C1103.6 482.2 1136.6 488.6 1172.5 495C1198.9 499.7 1227.6 504.6 1257.3 506.8C1277.7 508.4 1298.6 508.7 1319.4 506.7C1370.2 501.8 1418.9 477.1 1429.1 450.4" stroke="#5C91A1" stroke-miterlimit="10"/>
<path d="M226.1 901C226.1 820.5 265.1 741.9 328 691.9C371.3 657.5 425.5 637.1 480.8 634.4C496.7 633.6 512.5 634.5 528 636.8C570.7 643.2 610.4 660.1 652.2 672.7C660.7 675.3 669.3 677.7 677.9 679.7C716.3 689.1 756.4 691.2 792.6 679.4C812.4 673 831 662.4 847.4 646.9C867.8 627.8 882.6 603.7 898.1 580.1C900.3 576.7 902.6 573.3 904.9 569.9C944.1 512.1 996.3 488.7 1050.1 488.2C1058.2 488.1 1066.2 488.4 1074.2 489C1107.2 491.7 1140.9 500.6 1177.2 508.9C1203.9 515 1233 521.1 1262.9 523.9C1283.5 525.9 1304.6 526.4 1325.5 524.1C1376.8 518.6 1425.8 491 1434.4 460.3" stroke="#518A9B" stroke-miterlimit="10"/>
<path d="M219.2 901.1C218.9 821.5 256.9 743.5 318.7 693.6C362.1 658.6 416.9 637.8 472.7 635.2C488.7 634.4 504.7 635.3 520.3 637.7C563.4 644.2 603.4 661.5 645.5 674.4C654.1 677 662.7 679.5 671.4 681.7C710.2 691.4 750.6 693.7 787.2 681.7C807.1 675.2 825.8 664.4 842.3 648.5C862.7 628.9 877.2 604.4 892.8 580.5C895.1 577.1 897.3 573.6 899.6 570.2C939.3 511.7 994.9 490.6 1051.2 493.7C1059.6 494.2 1068 495 1076.3 496.2C1110.6 501.3 1144.9 512.6 1181.7 523C1208.8 530.6 1238.1 537.7 1268.3 541.2C1289.1 543.6 1310.4 544.2 1331.5 541.7C1383.2 535.7 1432.7 505.2 1439.5 470.4" stroke="#478395" stroke-miterlimit="10"/>
<path d="M212.3 901.2C211.7 822.5 248.8 745.1 309.5 695.2C353 659.5 408.4 638.4 464.7 635.8C480.9 635.1 496.9 635.9 512.8 638.3C556.2 644.9 596.7 662.5 639 675.8C647.6 678.5 656.3 681.1 665.1 683.3C704.2 693.4 745.1 695.9 781.9 683.7C802 677.1 820.7 666.1 837.3 649.8C857.7 629.8 872 604.7 887.6 580.6C889.9 577.1 892.1 573.7 894.5 570.2C934.7 511.1 993.8 492.2 1052.5 498.9C1061.3 499.9 1070 501.3 1078.6 503.1C1114.1 510.5 1149.1 524.4 1186.3 536.7C1213.7 545.7 1243.3 554 1273.8 558.1C1294.8 560.9 1316.3 561.6 1337.6 558.9C1389.8 552.4 1439.6 518.9 1444.8 480.1" stroke="#3C7C8F" stroke-miterlimit="10"/>
<path d="M205.3 901.3C204.4 823.5 240.5 746.6 300.2 696.9C343.9 660.5 399.8 639.1 456.6 636.6C472.9 635.9 489.1 636.7 505.1 639.2C548.9 646 589.8 663.9 632.3 677.6C641 680.4 649.7 683 658.6 685.4C698.1 695.8 739.3 698.5 776.4 686.1C796.6 679.4 815.5 668.2 832.1 651.6C852.5 631.2 866.5 605.6 882.2 581.3C884.5 577.8 886.8 574.3 889.1 570.8C929.8 511 992.3 494.4 1053.6 504.7C1062.7 506.2 1071.8 508.2 1080.7 510.6C1117.4 520.4 1153.1 536.8 1190.8 551C1218.5 561.5 1248.5 570.9 1279.2 575.5C1300.4 578.7 1322 579.5 1343.6 576.7C1396.2 569.7 1446.4 533.2 1449.9 490.5" stroke="#317589" stroke-miterlimit="10"/>
<path d="M198.4 901.4C197.2 824.5 232.3 748.2 290.9 698.6C334.7 661.5 391.1 639.8 448.4 637.3C464.8 636.6 481.2 637.5 497.3 640C541.5 646.9 582.8 665.1 625.5 679.2C634.3 682.1 643.1 684.8 652 687.2C691.8 698 733.5 700.8 770.8 688.3C791.1 681.5 810.1 670.1 826.7 653.1C847.1 632.3 860.9 606.2 876.6 581.6C878.9 578 881.2 574.5 883.6 571C924.9 510.6 990.8 496 1054.5 510.1C1064 512.2 1073.4 514.7 1082.6 517.7C1120.5 529.9 1156.8 548.7 1195 564.9C1223.1 576.8 1253.3 587.4 1284.3 592.6C1305.7 596.2 1327.5 597.2 1349.2 594.1C1402.3 586.5 1452.8 547.1 1454.6 500.4" stroke="#266E84" stroke-miterlimit="10"/>
<path d="M191.5 901.5C190 825.5 224 749.7 281.7 700.2C325.5 662.4 382.6 640.4 440.4 638C456.9 637.3 473.4 638.2 489.7 640.8C534.3 647.8 575.9 666.4 618.9 680.8C627.7 683.8 636.6 686.5 645.6 689C685.8 700.1 727.9 703.1 765.4 690.4C785.8 683.5 804.9 671.9 821.6 654.5C842 633.3 855.5 606.7 871.3 581.8C873.6 578.2 875.9 574.6 878.3 571.1C920.1 510 989.5 497.8 1055.6 515.3C1065.5 517.9 1075.2 521.1 1084.7 524.6C1123.9 539.2 1160.8 560.5 1199.5 578.7C1227.9 592 1258.4 603.8 1289.7 609.6C1311.3 613.6 1333.3 614.7 1355.2 611.4C1408.8 603.3 1459.6 560.9 1459.8 510.2" stroke="#1C677E" stroke-miterlimit="10"/>
<path d="M184.6 901.6C182.8 826.5 215.9 751.3 272.5 701.9C329.1 652.5 408 629.8 482.2 641.6C536.5 650.2 586.4 675.9 639.2 690.9C701.8 708.6 769.1 706.6 816.5 656.1C839.8 631.3 853.8 599.5 873.1 571.4C915.4 509.7 988.3 499.7 1056.9 520.8C1109.2 536.9 1155.5 567.7 1204.1 592.7C1252.8 617.7 1307.3 637.5 1361.3 628.9C1415.3 620.3 1466.6 574.9 1465 520.2" stroke="#116078" stroke-miterlimit="10"/>
<path d="M198.4 901.5C199 828.1 233.6 756.2 290.2 708C296.7 702.5 303.4 697.3 310.4 692.4C364.4 654.8 432.2 636.9 496.1 644.6C525.9 648.2 554.3 656.9 582.6 666.1C604.4 673.2 626.2 680.5 648.6 685.8C709.2 700.4 774.4 696.2 821.1 646.2C844.1 621.6 858.4 590.3 877.8 562.7C920 502.5 991.9 492.2 1059.5 512.8C1072.3 516.7 1084.8 521.5 1097.1 526.9C1134.1 543.3 1168.7 565.2 1204.8 583.8C1213 588.1 1221.5 592.2 1230 596C1271.2 614.5 1315.8 626.5 1359.9 619.6C1413.2 611.2 1463.9 567.3 1463.8 514" stroke="#11677E" stroke-miterlimit="10"/>
<path d="M212.2 901.4C215.1 829.8 251.3 761.2 307.9 714.2C314.4 708.8 321.1 703.7 328.1 698.9C381.8 661.9 448 642.8 510.2 647.8C539.2 650.1 566.7 657.3 594.1 664.9C615.3 670.7 636.4 676.8 658 680.9C716.7 692.4 779.7 686 825.6 636.5C848.3 612 862.9 581.3 882.4 554.3C924.6 495.8 995.4 485.1 1062.1 505C1074.8 508.8 1087.1 513.5 1099.2 518.8C1135.7 534.9 1169.8 556.7 1205.3 575.2C1213.4 579.4 1221.7 583.5 1230.1 587.3C1270.7 605.6 1314.7 617.3 1358.3 610.6C1410.9 602.5 1461 560 1462.4 508" stroke="#126E85" stroke-miterlimit="10"/>
<path d="M226 901.3C231.3 831.4 269 766.1 325.6 720.4C332.1 715.2 338.8 710.2 345.7 705.5C399.1 669.1 463.8 648.7 524.1 651C552.3 652 579 657.6 605.5 663.6C626 668.2 646.4 672.9 667.3 676C724 684.3 784.9 675.8 830.1 626.7C852.5 602.3 867.4 572.2 887 545.7C929.2 488.8 998.9 477.8 1064.6 497C1077.1 500.7 1089.3 505.3 1101.3 510.5C1137.4 526.3 1170.9 548 1205.9 566.3C1213.9 570.5 1222.1 574.5 1230.4 578.3C1270.5 596.4 1313.9 607.8 1356.9 601.3C1408.9 593.5 1458.3 552.4 1461.2 501.7" stroke="#12748B" stroke-miterlimit="10"/>
<path d="M239.8 901.2C247.4 833.1 286.7 771.1 343.3 726.5C349.8 721.4 356.5 716.5 363.4 711.9C416.5 676.2 479.5 654.5 538.1 654.1C565.4 653.9 591.3 657.9 617 662.3C636.8 665.7 656.6 669.1 676.8 671C731.6 676.1 790.3 665.6 834.7 616.9C856.8 592.6 871.9 563.1 891.7 537.2C933.9 481.9 1002.5 470.5 1067.3 489.2C1079.7 492.8 1091.7 497.2 1103.5 502.4C1139.1 518 1172.1 539.5 1206.5 557.7C1214.4 561.9 1222.4 565.9 1230.6 569.6C1270.1 587.5 1313 598.6 1355.4 592.3C1406.7 584.7 1455.5 545.1 1459.9 495.8" stroke="#137B92" stroke-miterlimit="10"/>
<path d="M253.6 901.1C263.6 834.7 304.4 776 361 732.7C367.5 727.7 374.2 723 381 718.4C433.8 683.3 495.3 660.4 552.1 657.2C578.6 655.7 603.7 658.1 628.4 661C647.5 663.2 666.6 665.3 686.1 666.1C738.9 668.1 795.6 655.4 839.1 607.2C860.9 583.1 876.3 554.2 896.2 528.7C938.3 475 1005.9 463.3 1069.7 481.3C1081.9 484.7 1093.8 489.1 1105.5 494.2C1140.6 509.5 1173.1 530.9 1207 549C1214.8 553.1 1222.7 557.1 1230.8 560.8C1269.7 578.5 1312 589.3 1353.9 583.3C1404.5 576 1452.7 537.8 1458.6 489.8" stroke="#138298" stroke-miterlimit="10"/>
<path d="M267.4 901C279.8 836.3 322.1 780.9 378.7 738.9C385.2 734.1 391.9 729.4 398.7 725C451.2 690.5 511.1 666.3 566.2 660.4C591.9 657.6 616.1 658.5 640 659.8C658.5 660.8 676.8 661.6 695.6 661.2C746.4 660.1 801 645.2 843.8 597.5C865.2 573.5 880.9 545.2 901 520.2C943.1 468 1009.6 456 1072.5 473.5C1084.6 476.8 1096.3 481.1 1107.8 486.1C1142.5 501.1 1174.4 522.4 1207.8 540.3C1215.4 544.4 1223.2 548.3 1231.2 552C1269.5 569.6 1311.3 580 1352.6 574.2C1402.5 567.2 1450.1 530.4 1457.5 483.8" stroke="#13899F" stroke-miterlimit="10"/>
<path d="M281.2 900.9C295.9 838 339.8 785.9 396.4 745C402.9 740.3 409.5 735.8 416.3 731.4C468.5 697.5 526.8 672.1 580.1 663.5C605 659.4 628.4 658.7 651.4 658.5C669.2 658.3 686.9 657.8 705 656.2C753.9 651.9 806.3 634.9 848.3 587.6C869.4 563.7 885.4 536 905.7 511.6C947.7 461 1013.3 448.7 1075.1 465.5C1087 468.7 1098.6 472.9 1110 477.8C1144.2 492.6 1175.5 513.7 1208.4 531.5C1215.9 535.6 1223.6 539.5 1231.4 543.1C1269.1 560.5 1310.3 570.6 1351.1 565C1400.3 558.2 1447.3 522.9 1456.2 477.6" stroke="#148FA5" stroke-miterlimit="10"/>
<path d="M295 900.7C312.1 839.5 357.5 790.7 414.1 751.1C420.6 746.6 427.2 742.1 434 737.8C485.9 704.6 542.6 677.9 594.2 666.5C618.3 661.1 640.8 658.9 662.9 657C680 655.5 697 653.8 714.4 651.1C761.3 643.7 811.6 624.5 852.9 577.7C873.7 554 889.9 526.8 910.4 502.9C952.3 453.9 1016.9 441.3 1077.8 457.5C1089.5 460.6 1101 464.6 1112.2 469.4C1146 483.9 1176.7 504.9 1209.1 522.6C1216.5 526.6 1224.1 530.5 1231.8 534.1C1268.9 551.3 1309.6 561.1 1349.8 555.7C1398.3 549.2 1444.7 515.3 1455.1 471.3" stroke="#1496AB" stroke-miterlimit="10"/>
<path d="M308.9 900.6C328.3 841.1 375.3 795.6 431.9 757.2C438.4 752.8 445 748.5 451.7 744.3C503.3 711.7 558.4 683.7 608.2 669.6C631.4 663 653.2 659.1 674.4 655.7C690.8 653 707.1 650 723.8 646.1C768.7 635.6 816.9 614.2 857.4 567.9C877.9 544.3 894.4 517.7 915 494.4C956.8 447 1020.4 434 1080.3 449.6C1091.9 452.6 1103.2 456.5 1114.3 461.2C1147.6 475.4 1177.8 496.3 1209.6 513.8C1216.9 517.8 1224.3 521.6 1231.9 525.2C1268.4 542.2 1308.6 551.7 1348.2 546.5C1396 540.2 1441.9 507.7 1453.7 465.2" stroke="#149DB2" stroke-miterlimit="10"/>
<path d="M322.7 900.5C344.5 842.8 393 800.6 449.6 763.4C456.1 759.1 462.7 754.9 469.3 750.8C520.6 718.8 574.2 689.6 622.2 672.8C644.6 664.9 665.5 659.5 685.8 654.5C701.6 650.6 717.1 646.3 733.2 641.3C776.1 627.7 822.3 604.1 862 558.2C882.2 534.7 898.9 508.7 919.7 485.9C961.4 440 1024 426.8 1083 441.7C1094.4 444.6 1105.6 448.4 1116.5 453C1149.4 466.9 1179 487.7 1210.3 505.1C1217.5 509.1 1224.8 512.9 1232.3 516.4C1268.3 533.2 1307.8 542.4 1346.9 537.5C1394 531.5 1439.3 500.4 1452.6 459.2" stroke="#15A4B8" stroke-miterlimit="10"/>
<path d="M336.5 900.4C360.6 844.4 410.7 805.5 467.3 769.6C473.8 765.5 480.4 761.4 487 757.3C538 725.9 590 695.5 636.2 675.9C657.8 666.7 677.9 659.7 697.3 653.2C712.4 648.1 727.3 642.6 742.6 636.3C783.5 619.6 827.6 593.9 866.5 548.4C886.4 525.1 903.4 499.6 924.3 477.4C965.9 433.1 1027.5 419.5 1085.5 433.9C1096.8 436.7 1107.8 440.4 1118.5 444.9C1150.9 458.6 1180 479.3 1210.8 496.5C1217.9 500.4 1225 504.2 1232.4 507.7C1267.8 524.3 1306.8 533.2 1345.3 528.5C1391.7 522.8 1436.4 493.1 1451.2 453.3" stroke="#15AABF" stroke-miterlimit="10"/>
<path d="M350.3 900.3C376.8 846 428.4 810.4 485 775.7C491.5 771.7 498.1 767.8 504.6 763.8C555.3 733.1 605.7 701.3 650.2 679.1C671 668.6 690.3 660.1 708.8 651.9C723.2 645.6 737.4 638.8 752 631.4C791 611.6 832.9 583.7 871 538.7C890.6 515.5 907.8 490.6 928.9 468.9C970.4 426.1 1031 412.3 1088.1 426C1099.2 428.7 1110.1 432.2 1120.7 436.7C1152.7 450.1 1181.2 470.7 1211.4 487.7C1218.3 491.6 1225.4 495.3 1232.6 498.8C1267.4 515.3 1305.9 523.9 1343.8 519.3C1389.5 513.8 1433.6 485.6 1449.9 447.1" stroke="#16B1C5" stroke-miterlimit="10"/>
<path d="M364.1 900.2C392.9 847.7 446.1 815.4 502.7 781.9C509.2 778.1 515.7 774.2 522.3 770.3C572.8 740.2 621.5 707.2 664.2 682.2C684.2 670.5 702.6 660.3 720.2 650.6C734 643 747.4 635 761.4 626.4C798.4 603.6 838.2 573.4 875.6 528.9C894.9 505.8 912.4 481.5 933.6 460.3C975 419.1 1034.6 405 1090.7 418.1C1101.7 420.6 1112.4 424.1 1122.8 428.5C1154.3 441.6 1182.3 462.1 1212 479C1218.8 482.9 1225.8 486.6 1232.9 490C1267.1 506.3 1305 514.6 1342.4 510.2C1387.5 505 1430.9 478.2 1448.7 441" stroke="#16B8CC" stroke-miterlimit="10"/>
<path d="M377.9 900.1C409.1 849.3 463.8 820.3 520.4 788.1C526.9 784.4 533.4 780.7 539.9 776.8C590.1 747.3 637.2 713.1 678.2 685.3C697.3 672.3 715 660.6 731.7 649.3C744.8 640.5 757.5 631.2 770.8 621.4C805.8 595.5 843.5 563.1 880.1 519C899.1 496 916.8 472.3 938.3 451.7C979.6 412 1038.2 397.6 1093.3 410.1C1104.1 412.5 1114.7 415.9 1125 420.2C1156.1 433.1 1183.5 453.4 1212.7 470.1C1219.4 473.9 1226.2 477.6 1233.2 481C1266.8 497.1 1304.2 505.1 1341 500.9C1385.4 495.9 1428.2 470.6 1447.5 434.8" stroke="#16BFD2" stroke-miterlimit="10"/>
<path d="M391.7 899.9C425.3 850.8 481.5 825.1 538.1 794.1C544.6 790.5 551.1 786.9 557.6 783.2C607.5 754.3 653 718.8 692.2 688.4C710.5 674.1 727.3 660.8 743.2 648C755.6 638 767.7 627.5 780.2 616.5C813.3 587.6 848.9 552.9 884.7 509.3C903.4 486.5 921.3 463.3 943 443.2C984.2 405 1041.8 390.4 1096 402.2C1106.6 404.5 1117.1 407.8 1127.2 412C1157.8 424.6 1184.6 444.8 1213.3 461.4C1219.9 465.2 1226.6 468.8 1233.5 472.2C1266.5 488.1 1303.4 495.8 1339.6 491.9C1383.3 487.2 1425.5 463.3 1446.3 428.8" stroke="#17C5D8" stroke-miterlimit="10"/>
<path d="M405.5 899.8C441.4 852.5 499.2 830.1 555.9 800.3C562.4 796.9 568.9 793.4 575.3 789.7C624.9 761.5 668.8 724.7 706.2 691.5C723.7 675.9 739.7 661 754.6 646.6C766.3 635.3 777.7 623.6 789.6 611.4C820.7 579.4 854.2 542.5 889.2 499.4C907.5 476.7 925.7 454.1 947.6 434.6C988.6 397.9 1045.4 383 1098.5 394.3C1109 396.5 1119.3 399.6 1129.3 403.7C1159.4 416 1185.7 436.1 1213.9 452.6C1220.4 456.4 1226.9 460 1233.7 463.3C1266.1 479 1302.4 486.4 1338.1 482.7C1381.1 478.3 1422.7 455.8 1445 422.7" stroke="#17CCDF" stroke-miterlimit="10"/>
<path d="M419.3 899.7C457.6 854.1 516.8 835 573.6 806.4C580.1 803.1 586.6 799.7 593 796.1C642.3 768.5 684.7 730.5 720.3 694.5C737 677.6 752.1 661.2 766.2 645.2C777.2 632.7 788 619.7 799.1 606.4C828.3 571.4 859.6 532.2 893.9 489.5C911.9 466.9 930.3 444.9 952.4 425.9C993.3 390.8 1049.1 375.6 1101.3 386.2C1111.6 388.3 1121.8 391.3 1131.6 395.3C1161.3 407.4 1187 427.3 1214.6 443.6C1220.9 447.4 1227.4 450.9 1234 454.2C1265.9 469.7 1301.6 476.8 1336.7 473.3C1379 469.1 1420 448.1 1443.8 416.3" stroke="#17D3E5" stroke-miterlimit="10"/>
<path d="M433.1 899.6C473.7 855.8 534.5 840 591.3 812.6C597.8 809.5 604.3 806.2 610.6 802.7C659.6 775.7 700.4 736.4 734.2 697.8C750.1 679.7 764.3 661.6 777.6 644.1C787.9 630.4 798 616.1 808.4 601.6C835.7 563.5 864.8 522.2 898.3 479.9C916 457.5 934.7 435.9 956.9 417.5C997.6 383.8 1052.5 368.5 1103.7 378.5C1113.9 380.5 1123.9 383.4 1133.6 387.3C1162.8 399.1 1188 418.9 1215.1 435.1C1221.3 438.8 1227.7 442.4 1234.2 445.6C1265.5 461 1300.6 467.7 1335.2 464.4C1376.8 460.5 1417.2 440.9 1442.5 410.4" stroke="#18DAEC" stroke-miterlimit="10"/>
<path d="M446.9 899.5C489.9 857.4 552.2 844.9 609 818.8C615.5 815.8 621.9 812.6 628.2 809.2C676.9 782.8 716.1 742.3 748.2 700.9C763.2 681.5 776.7 661.8 789 642.8C798.7 627.8 808.1 612.4 817.7 596.7C843 555.6 870 512 902.7 470.2C920.1 447.9 939 426.9 961.4 409.1C1002 376.9 1055.9 361.3 1106.2 370.7C1116.2 372.6 1126 375.4 1135.6 379.2C1164.4 390.7 1189 410.4 1215.6 426.5C1221.7 430.2 1227.9 433.7 1234.3 436.8C1265 452 1299.6 458.4 1333.6 455.3C1374.5 451.6 1414.4 433.5 1441.1 404.4" stroke="#18E0F2" stroke-miterlimit="10"/>
<path d="M460.7 899.4C506 859 569.9 849.8 626.7 824.9C633.2 822 639.6 819 645.9 815.6C694.3 789.9 731.9 748.1 762.2 704C776.4 683.3 789 662.1 800.5 641.5C809.5 625.3 818.2 608.6 827.2 591.7C850.7 547.5 875.5 501.7 907.4 460.4C924.5 438.2 943.6 417.8 966.2 400.5C1006.6 369.8 1059.6 354 1108.9 362.8C1118.8 364.5 1128.4 367.3 1137.9 371C1166.2 382.3 1190.3 401.8 1216.3 417.7C1222.3 421.4 1228.4 424.8 1234.7 427.9C1264.8 442.9 1298.9 449 1332.3 446.2C1372.5 442.8 1411.8 426.1 1440 398.3" stroke="#19E7F9" stroke-miterlimit="10"/>
<path d="M474.5 899.3C527.7 856.2 602.9 853.8 663.5 822.2C734.1 785.3 778.8 709.7 811.9 640.2C853.7 552.7 889.2 451.2 970.8 391.9C1019.1 356.8 1084.4 340.8 1140 362.7C1174.3 376.2 1202 402.5 1234.9 419C1299.9 451.6 1384.3 440.5 1438.7 392.2" stroke="#19EEFF" stroke-miterlimit="10"/>
</g>
<mask id="mask5_4_1062" style="mask-type:luminance" maskUnits="userSpaceOnUse" x="0" y="0" width="1200" height="800">
<path d="M1200 0H0V800H1200V0Z" fill="white"/>
</mask>
<g mask="url(#mask5_4_1062)">
<path d="M-59.5 623C16.3 655.2 114.6 613.7 144.6 537.1C161.5 493.9 158.1 445.8 153.3 399.7C146.5 334.5 135.4 241.8 193.7 194.9C216.6 176.5 247.6 168.6 276.5 173.9C320.2 181.9 353.9 216.9 395.4 232.4C441.6 249.7 487.8 243.7 524.1 211C558.7 179.9 586 141.6 621.4 111.4C682 59.7 765.3 36.3 844.1 46.6C935.3 58.6 1020.5 101.4 1114.5 94C1150.9 91.2 1185.5 78.6 1214 55.5C1265.5 13.8 1305 -40.2 1341.9 -95" stroke="#F2F2F2" stroke-miterlimit="10"/>
<path d="M-60.1 611.3C-5.69997 631.9 61 614.7 105.3 575.5C121.1 561.4 134.1 544.5 142.4 525.3C150.7 506.3 154.8 486.3 156.6 465.9C158.7 442.2 157.6 418.1 156.1 394.3C155.2 378.6 153.9 361.1 153.5 343C152.2 288.8 157.6 228.7 200.3 193.4C222.7 174.8 252.9 166.4 281.3 170.7C324.2 177.2 358.1 210 399.5 224.8C424 233.6 448.5 236.2 471.4 232.1C491.4 228.5 510.4 219.8 527.3 205.7C561.9 176.8 589.6 141.3 625 113.5C685.5 65.6999 767.7 44.6999 846 54.2999C850.4 54.7999 854.7 55.3999 859.1 56.0999C940.5 68.4999 1017.6 100.6 1100.4 95.8999C1104.6 95.6999 1108.8 95.2999 1113 94.8999C1148.7 91.1999 1182.6 78.1999 1210.6 55.0999C1261.3 13.3999 1300.3 -40.3001 1336.7 -94.7001" stroke="#E8F2F3" stroke-miterlimit="10"/>
<path d="M-60.7999 599.6C-7.79993 617.1 57.6 599 102.1 561.4C118 547.9 131.2 531.8 140 513.5C148.7 495.5 153.6 476.5 156.1 457.2C159.1 434.7 159.1 411.7 158.7 388.9C158.5 373.8 158 356.9 158.2 339.3C158.9 286.6 165 227.3 206.7 191.7C228.6 173 258 163.9 285.9 167.2C328.1 172.2 362.1 202.8 403.3 216.9C427.6 225.3 451.8 227.9 474.7 224.3C494.6 221.1 513.4 213.1 530.3 200.1C564.9 173.4 593 140.8 628.3 115.2C688.7 71.4 769.9 52.6999 847.5 61.5999C851.8 62.0999 856.2 62.6999 860.5 63.2999C941.3 74.5999 1017.7 103.4 1098.8 96.7C1102.9 96.4 1107 95.8999 1111.2 95.3999C1146.2 90.8999 1179.4 77.3999 1206.9 54.2999C1256.7 12.4999 1295.2 -40.8 1331.2 -94.8" stroke="#DDF2F3" stroke-miterlimit="10"/>
<path d="M-61.5 587.8C-9.9 602.1 54.2 583.1 99 547.1C115 534.2 128.4 518.9 137.7 501.6C146.9 484.5 152.4 466.7 155.8 448.4C159.7 427.1 160.8 405.3 161.5 383.4C162 368.9 162.3 352.7 163.2 335.6C165.9 284.4 172.6 226 213.3 190.1C234.7 171.2 263.3 161.5 290.7 163.8C332.2 167.3 366.3 195.8 407.3 209.1C431.4 217 455.4 219.7 478.1 216.5C497.8 213.7 516.5 206.4 533.4 194.5C568.1 169.9 596.5 140.2 631.8 117C692 77.2 772.2 60.8 849.3 69C853.6 69.5 857.9 70 862.2 70.5C942.3 80.8 1018 106.2 1097.5 97.5C1101.5 97 1105.6 96.5 1109.6 95.9C1143.9 90.5 1176.4 76.6 1203.4 53.5C1252.3 11.7 1290.3 -41.3 1325.9 -94.9" stroke="#D3F1F4" stroke-miterlimit="10"/>
<path d="M-62.2 576.1C-12 587.3 50.8001 567.4 95.9001 532.9C112 520.6 125.7 506.1 135.4 489.8C145.1 473.7 151.2 456.9 155.4 439.6C160.3 419.5 162.4 398.8 164.2 377.9C165.4 364 166.6 348.4 168.1 331.8C172.8 282.1 180.1 224.5 219.9 188.4C240.8 169.4 268.6 159.1 295.5 160.3C336.2 162.3 370.5 188.5 411.3 201.2C435.2 208.6 459 211.3 481.5 208.6C501.1 206.2 519.6 199.7 536.4 188.8C571.1 166.4 599.9 139.5 635.1 118.7C695.2 82.9 774.3 68.8 850.8 76.3C855.1 76.7 859.3 77.2 863.6 77.7C943 87 1018 109.1 1095.9 98.3C1099.9 97.7 1103.8 97.1 1107.8 96.4C1141.4 90.2 1173.1 75.8 1199.7 52.6C1247.7 10.7 1285.2 -41.9 1320.4 -95.1" stroke="#C9F1F4" stroke-miterlimit="10"/>
<path d="M-62.7999 564.4C-13.8999 572.5 47.5001 551.7 92.9001 518.8C109.1 507 123 493.4 133.2 478.1C143.3 463 150.2 447.2 155.1 431C160.9 412.2 164.1 392.6 167.1 372.6C169.1 359.3 170.9 344.3 173.1 328.2C179.6 279.9 187.8 223.2 226.6 186.8C247 167.6 273.9 156.7 300.4 157C340.4 157.4 374.8 181.6 415.4 193.5C439.1 200.5 462.7 203.2 485 201C504.4 199.1 522.8 193.2 539.6 183.4C574.4 163.2 603.5 139.3 638.7 120.7C698.7 89 776.8 77.1 852.7 83.9C856.9 84.3 861.1 84.7 865.4 85.1C944.1 93.4 1018.4 112.1 1094.7 99.2C1098.6 98.5 1102.5 97.8 1106.3 97C1139.2 90 1170.2 75.1 1196.3 51.9C1243.5 10 1280.4 -42.3 1315.2 -95.1" stroke="#BEF1F5" stroke-miterlimit="10"/>
<path d="M-63.5 552.6C-16 557.6 44.1 535.8 89.8 504.5C106.1 493.3 120.2 480.5 131 466.2C141.6 452.1 149.1 437.4 154.9 422.2C161.6 404.6 165.9 386.1 170 367.1C172.7 354.4 175.4 340.1 178.2 324.5C186.7 277.7 195.5 221.8 233.3 185.2C253.2 165.8 279.3 154.3 305.3 153.6C344.6 152.5 379.2 174.5 419.5 185.7C443 192.2 466.4 195 488.5 193.2C507.8 191.7 526 186.5 542.8 177.8C577.6 159.8 607.1 138.7 642.2 122.4C702.1 94.6999 779.1 85.1 854.5 91.2C858.7 91.5 862.9 91.8999 867 92.2999C945.1 99.4999 1018.7 114.9 1093.3 99.9999C1097.1 99.1999 1100.9 98.3999 1104.7 97.3999C1136.9 89.4999 1167.2 74.1999 1192.8 50.9999C1239.1 8.99994 1275.5 -42.9 1309.9 -95.3" stroke="#B4F1F6" stroke-miterlimit="10"/>
<path d="M-64.2 540.9C-18.1 542.8 40.7001 520.1 86.7001 490.3C103.1 479.7 117.4 467.7 128.7 454.4C139.8 441.2 148 427.6 154.5 413.4C162.1 397 167.5 379.6 172.7 361.6C176.2 349.5 179.6 335.8 183 320.7C193.5 275.4 203 220.3 239.8 183.5C259.2 164 284.5 151.9 310 150.1C348.5 147.5 383.3 167.3 423.4 177.8C446.7 183.9 469.9 186.7 491.8 185.3C510.9 184.2 529.1 179.7 545.8 172.1C580.7 156.2 610.5 138.1 645.6 124.1C705.4 100.4 781.3 93.2 856.1 98.5C860.2 98.8 864.4 99.1 868.5 99.5C945.9 105.7 1018.8 117.9 1091.8 100.8C1095.5 99.9 1099.2 99 1103 97.9C1134.5 89.2 1164.1 73.4 1189.2 50.2C1234.6 8.19998 1270.5 -43.4 1304.5 -95.4" stroke="#AAF1F6" stroke-miterlimit="10"/>
<path d="M-64.7999 529.2C-20.0999 528 37.4001 504.3 83.7001 476.2C100.2 466.1 114.8 455 126.5 442.7C138 430.5 146.9 417.9 154.2 404.8C162.8 389.6 169.2 373.4 175.5 356.3C179.7 344.8 183.9 331.7 188 317.2C200.5 273.4 210.6 219.1 246.4 182.1C265.3 162.4 289.8 149.7 314.8 147C352.6 142.9 387.5 160.6 427.4 170.3C450.4 175.9 473.5 178.7 495.3 177.9C514.3 177.2 532.3 173.5 549 166.9C584 153.2 614.1 137.9 649.1 126.3C708.7 106.6 783.7 101.7 857.9 106.3C862 106.6 866.1 106.8 870.2 107.1C946.9 112.3 1019.2 121.2 1090.6 102C1094.2 101 1097.9 100 1101.5 98.8C1132.3 89.3 1161.1 73 1185.8 49.7C1230.3 7.60003 1265.7 -43.6 1299.3 -95.1" stroke="#9FF0F7" stroke-miterlimit="10"/>
<path d="M-65.5 517.5C-22.2 513.2 34 488.6 80.6 462C97.2 452.5 112 442.2 124.2 430.9C136.2 419.7 145.7 408.2 153.8 396.1C163.3 382 170.8 367 178.2 351C183.2 340.1 188.1 327.6 192.9 313.6C207.3 271.3 218.2 217.8 253 180.5C271.4 160.7 295 147.3 319.6 143.6C356.7 138 391.7 153.5 431.4 162.5C454.2 167.7 477.1 170.5 498.7 170.1C517.5 169.8 535.4 166.8 552.1 161.3C587.1 149.8 617.6 137.4 652.6 128.1C712.1 112.3 786 109.8 859.6 113.7C863.7 113.9 867.7 114.1 871.8 114.4C947.8 118.6 1019.4 124.1 1089.2 102.9C1092.8 101.8 1096.3 100.7 1099.9 99.4C1130 89 1158.1 72.3 1182.2 49C1225.9 6.90002 1260.7 -44 1293.9 -95.1" stroke="#95F0F8" stroke-miterlimit="10"/>
<path d="M-66.2 505.7C-24.2999 498.3 30.6001 472.8 77.5001 447.8C94.1001 438.9 109.2 429.4 121.9 419C134.4 408.8 144.6 398.3 153.5 387.2C163.9 374.3 172.6 360.4 181 345.4C186.8 335.1 192.4 323.3 197.8 309.7C214.2 268.9 225.7 216.2 259.6 178.7C277.5 158.7 300.3 144.8 324.4 140C360.7 132.9 395.9 146.2 435.4 154.5C458 159.2 480.7 162.1 502.1 162.2C520.8 162.3 538.6 160 555.2 155.6C590.3 146.3 621 136.7 656 129.8C715.3 118 788.2 117.8 861.3 121C865.3 121.2 869.4 121.4 873.4 121.5C948.8 124.6 1019.7 126.8 1087.8 103.6C1091.3 102.4 1094.8 101.1 1098.2 99.7999C1127.6 88.5999 1155 71.3999 1178.6 48.0999C1221.4 5.89994 1255.7 -44.6 1288.5 -95.3" stroke="#8BF0F8" stroke-miterlimit="10"/>
<path d="M-66.8999 494C-26.3999 483.5 27.2001 457 74.4001 433.6C91.1001 425.2 106.5 416.6 119.6 407.2C132.5 397.9 143.4 388.5 153.1 378.5C164.4 366.8 174.2 354.1 183.7 340C190.2 330.3 196.6 319.1 202.7 306.1C221.1 266.7 233.3 214.9 266.1 177.2C283.5 157.1 305.5 142.5 329.1 136.7C364.7 128 400 139.3 439.3 146.8C461.7 151.1 484.2 153.9 505.4 154.5C523.9 155 541.6 153.5 558.1 150.2C593.3 143.2 624.3 136.3 659.3 131.7C718.5 123.9 790.4 126 862.8 128.5C866.8 128.6 870.8 128.8 874.8 128.9C949.5 131 1019.7 129.9 1086.2 104.6C1089.6 103.3 1093 101.9 1096.4 100.5C1125.1 88.3999 1151.8 70.7999 1174.9 47.4999C1216.8 5.29992 1250.6 -44.9001 1283 -95.2001" stroke="#80F0F9" stroke-miterlimit="10"/>
<path d="M-67.5 482.3C-28.3 468.7 23.9 441.3 71.3 419.4C88.1 411.6 103.7 403.8 117.3 395.4C130.7 387.1 142.2 378.8 152.7 369.8C164.9 359.3 175.9 347.7 186.4 334.6C193.7 325.5 200.8 314.9 207.6 302.4C228 264.5 240.8 213.5 272.7 175.5C289.6 155.2 310.8 140.1 333.9 133.3C368.8 123.1 404.2 132.2 443.3 139C465.5 142.9 487.8 145.7 508.8 146.7C527.2 147.6 544.7 146.8 561.2 144.6C596.5 139.8 627.8 135.8 662.7 133.5C721.7 129.7 792.6 134.1 864.5 135.9C868.5 136 872.4 136.1 876.4 136.1C950.4 137.2 1019.9 132.7 1084.8 105.4C1088.1 104 1091.4 102.5 1094.7 101C1122.7 88.1 1148.7 70 1171.3 46.6C1212.3 4.29998 1245.7 -45.5 1277.6 -95.4" stroke="#76F0F9" stroke-miterlimit="10"/>
<path d="M-68.2 470.5C-30.4 453.8 20.5001 425.4 68.2001 405.2C85.1001 398 100.9 391 115 383.6C128.9 376.3 141.1 369 152.4 361C165.6 351.7 177.6 341.2 189.2 329.1C197.3 320.6 205.1 310.6 212.5 298.7C234.9 262.3 248.4 212.1 279.3 173.9C295.7 153.4 316.1 137.7 338.7 129.9C372.8 118.2 408.4 125.2 447.4 131.2C469.4 134.6 491.5 137.5 512.3 139C530.5 140.3 548 140.3 564.4 139.1C599.8 136.5 631.4 135.6 666.3 135.4C725.2 135.1 795 142.3 866.3 143.4C870.2 143.5 874.2 143.5 878.1 143.5C951.5 143.6 1020.3 135.7 1083.5 106.4C1086.7 104.9 1090 103.3 1093.2 101.7C1120.4 88 1145.7 69.3999 1167.9 45.9999C1208.1 3.59994 1240.9 -45.8 1272.4 -95.3" stroke="#6CF0FA" stroke-miterlimit="10"/>
<path d="M-68.8999 458.8C-32.4999 438.9 17.1001 409.7 65.1001 391C82.1001 384.3 98.2001 378.2 112.7 371.8C127 365.5 139.9 359.2 152 352.3C166.1 344.2 179.3 334.9 192 323.7C200.9 315.9 209.5 306.5 217.5 295C241.9 260.1 256 210.7 285.9 172.3C301.8 151.7 321.3 135.3 343.5 126.5C376.9 113.3 412.6 118.1 451.4 123.4C473.2 126.4 495.1 129.3 515.8 131.2C533.9 132.9 551.2 133.2 567.6 133.5C603.1 134.1 635 134.7 669.9 137.2C728.6 141.3 797.5 150.5 868.2 150.8C872.1 150.8 876 150.8 879.9 150.8C952.6 149.9 1020.7 138.6 1082.3 107.3C1085.5 105.7 1088.6 104 1091.8 102.3C1118.3 87.6999 1142.9 68.6999 1164.6 45.2999C1203.9 2.89994 1236.2 -46.2001 1267.3 -95.3" stroke="#61EFFB" stroke-miterlimit="10"/>
<path d="M-69.6 447.1C-34.6 424.1 13.7 394 62 376.8C79.1 370.7 95.4001 365.4 110.4 360C125.2 354.6 138.8 349.5 151.6 343.6C166.6 336.8 181 328.6 194.7 318.3C204.4 311.1 213.7 302.3 222.3 291.3C248.7 257.9 263.5 209.3 292.4 170.7C307.8 149.9 326.5 133 348.2 123.2C380.9 108.5 416.7 111.2 455.3 115.7C476.9 118.2 498.6 121.1 519.1 123.5C537 125.6 554.3 127.1 570.6 128C606.2 130 638.4 134.3 673.2 139C731.8 147 799.6 158.6 869.7 158.2C873.5 158.2 877.4 158.1 881.3 158C953.3 156 1020.7 141.4 1080.7 108.1C1083.8 106.4 1086.9 104.6 1089.9 102.8C1115.7 87.4 1139.6 67.9 1160.8 44.5C1199.2 1.99997 1231 -46.7 1261.7 -95.4" stroke="#57EFFB" stroke-miterlimit="10"/>
<path d="M-70.2 435.3C-36.6 409.2 10.4001 378.1 59.0001 362.6C76.2001 357.1 92.7001 352.6 108.2 348.2C123.5 343.8 137.7 339.7 151.4 334.8C167.4 329.2 182.9 322.1 197.6 312.8C208 306.2 218.1 298 227.4 287.6C255.8 255.7 271.2 207.9 299.2 169C314.1 148.1 332 130.5 353.2 119.7C385.1 103.5 421.1 104 459.5 107.8C480.9 109.9 502.4 112.8 522.7 115.7C540.5 118.2 557.6 120.5 573.9 122.4C609.6 126.6 642.1 133.7 676.9 140.8C735.4 152.8 802.1 166.7 871.7 165.6C875.5 165.5 879.3 165.4 883.2 165.3C954.5 162.3 1021.3 144.4 1079.6 109C1082.6 107.2 1085.6 105.3 1088.6 103.4C1113.7 87.1 1136.9 67.1 1157.6 43.7C1195.1 1.20001 1226.4 -47.2 1256.7 -95.5" stroke="#4DEFFC" stroke-miterlimit="10"/>
<path d="M-70.8999 423.6C-38.6999 394.4 7.00008 362.4 55.9001 348.4C73.2001 343.4 90.0001 339.8 105.9 336.4C121.6 333 136.6 329.9 151 326.1C167.9 321.7 184.5 315.8 200.3 307.5C211.5 301.5 222.3 294 232.3 284C262.7 253.6 278.8 206.6 305.7 167.5C320.1 146.4 337.2 128.2 357.9 116.4C389.1 98.7 425.2 97.1 463.4 100.1C484.6 101.8 505.9 104.7 526 108C543.6 110.9 560.6 113.9 576.9 116.9C612.7 123.4 645.4 133.2 680.2 142.7C738.5 158.6 804.3 174.9 873.3 173.1C877.1 173 880.9 172.9 884.7 172.6C955.4 168.6 1021.3 147.2 1078.1 109.9C1081 108 1083.9 106 1086.8 104C1111.2 86.9 1133.7 66.4 1153.8 43C1190.5 0.400002 1221.2 -47.6 1251.1 -95.5" stroke="#42EFFD" stroke-miterlimit="10"/>
<path d="M-71.6 411.9C-40.8 379.6 3.60002 346.6 52.8 334.2C70.1 329.8 87.2 327 103.6 324.6C119.8 322.2 135.4 320.2 150.6 317.4C168.4 314.2 186.2 309.5 203 302.1C215 296.8 226.6 289.8 237.1 280.4C269.5 251.6 286.2 205.4 312.2 166C326.1 144.8 342.4 126 362.6 113.1C393.1 93.8 429.4 90.2 467.3 92.4C488.3 93.6 509.4 96.5 529.3 100.4C546.8 103.8 563.7 107.5 579.9 111.5C615.7 120.3 648.9 132.8 683.6 144.7C741.8 164.5 806.5 183.2 874.9 180.7C878.6 180.6 882.4 180.4 886.1 180.1C956.1 175.1 1021.3 150.3 1076.5 111C1079.4 109 1082.2 106.9 1085 104.7C1108.7 86.8 1130.4 65.8 1150.1 42.4C1185.9 -0.20002 1216.1 -47.9 1245.7 -95.4" stroke="#38EFFD" stroke-miterlimit="10"/>
<path d="M-72.2 400.2C-42.7 364.8 0.300049 330.9 49.8 320.1C67.2 316.3 84.5001 314.3 101.4 312.8C118.1 311.3 134.4 310.4 150.4 308.6C169.1 306.6 188 303.1 205.9 296.6C218.7 291.9 231 285.5 242.2 276.6C276.6 249.3 294 203.9 318.9 164.2C332.4 142.8 347.7 123.4 367.5 109.6C397.2 88.8 433.7 83.1 471.4 84.5C492.1 85.3 513 88.2 532.8 92.5C550.1 96.3 566.9 100.8 583 105.8C618.9 117 652.4 132.1 687 146.4C745.1 170.1 808.8 191.2 876.6 188C880.3 187.8 884 187.6 887.7 187.3C957 181.2 1021.6 153.1 1075.1 111.8C1077.9 109.6 1080.6 107.5 1083.3 105.2C1106.3 86.4 1127.3 65 1146.5 41.6C1181.4 -1.09999 1211.1 -48.4 1240.3 -95.5" stroke="#2EEEFE" stroke-miterlimit="10"/>
<path d="M-72.8999 388.4C-44.7999 349.9 -3.0999 315.1 46.7001 305.8C64.2001 302.5 81.8001 301.4 99.1001 300.9C116.2 300.4 133.2 300.5 150 299.8C169.7 299 189.7 296.7 208.6 291.1C222.2 287.1 235.2 281.3 247 272.8C283.4 247 301.4 202.4 325.4 162.5C338.4 140.9 352.9 120.9 372.2 106.1C401.2 83.8 437.8 75.9 475.3 76.6C495.8 77 516.5 79.9 536.1 84.6C553.3 88.8 569.9 94.1 586 100.1C622 113.6 655.7 131.4 690.4 148C748.4 175.7 811 199.1 878.2 195.2C881.9 195 885.5 194.7 889.2 194.3C957.9 187.2 1021.7 155.8 1073.6 112.3C1076.3 110 1079 107.7 1081.6 105.4C1103.9 85.8 1124.2 63.9 1142.9 40.5C1176.9 -2.20003 1206.1 -49.2 1234.9 -95.9" stroke="#23EEFE" stroke-miterlimit="10"/>
<path d="M-73.6 376.7C-46.9 335.1 -6.49996 299.3 43.6 291.7C78.6 286.3 114.2 290.6 149.6 291.2C185 291.8 222 288.2 251.9 269.3C311.1 231.8 323.4 148 377 102.9C420.6 66.1 484.5 62.2 539.6 77C594.7 91.8 643.9 122.6 693.9 150.1C754.9 183.5 820 210.3 890.9 201.9C958.9 193.8 1022 159 1072.3 113.5C1137.2 54.8 1183.9 -21 1229.6 -95.6" stroke="#19EEFF" stroke-miterlimit="10"/>
</g>
<mask id="mask6_4_1062" style="mask-type:luminance" maskUnits="userSpaceOnUse" x="0" y="0" width="1200" height="800">
<path d="M1200 0H0V800H1200V0Z" fill="white"/>
</mask>
<g mask="url(#mask6_4_1062)">
<path d="M171 711C172.105 711 173 710.105 173 709C173 707.895 172.105 707 171 707C169.895 707 169 707.895 169 709C169 710.105 169.895 711 171 711Z" fill="#33F0FF"/>
<path d="M171 688C172.105 688 173 687.105 173 686C173 684.895 172.105 684 171 684C169.895 684 169 684.895 169 686C169 687.105 169.895 688 171 688Z" fill="#33F0FF"/>
<path d="M171 665C172.105 665 173 664.105 173 663C173 661.895 172.105 661 171 661C169.895 661 169 661.895 169 663C169 664.105 169.895 665 171 665Z" fill="#33F0FF"/>
<path d="M171 642C172.105 642 173 641.105 173 640C173 638.895 172.105 638 171 638C169.895 638 169 638.895 169 640C169 641.105 169.895 642 171 642Z" fill="#33F0FF"/>
<path d="M171 619C172.105 619 173 618.105 173 617C173 615.895 172.105 615 171 615C169.895 615 169 615.895 169 617C169 618.105 169.895 619 171 619Z" fill="#33F0FF"/>
<path d="M196 711C197.105 711 198 710.105 198 709C198 707.895 197.105 707 196 707C194.895 707 194 707.895 194 709C194 710.105 194.895 711 196 711Z" fill="#33F0FF"/>
<path d="M196 688C197.105 688 198 687.105 198 686C198 684.895 197.105 684 196 684C194.895 684 194 684.895 194 686C194 687.105 194.895 688 196 688Z" fill="#33F0FF"/>
<path d="M196 665C197.105 665 198 664.105 198 663C198 661.895 197.105 661 196 661C194.895 661 194 661.895 194 663C194 664.105 194.895 665 196 665Z" fill="#33F0FF"/>
<path d="M196 642C197.105 642 198 641.105 198 640C198 638.895 197.105 638 196 638C194.895 638 194 638.895 194 640C194 641.105 194.895 642 196 642Z" fill="#33F0FF"/>
<path d="M196 619C197.105 619 198 618.105 198 617C198 615.895 197.105 615 196 615C194.895 615 194 615.895 194 617C194 618.105 194.895 619 196 619Z" fill="#33F0FF"/>
<path d="M221 711C222.105 711 223 710.105 223 709C223 707.895 222.105 707 221 707C219.895 707 219 707.895 219 709C219 710.105 219.895 711 221 711Z" fill="#33F0FF"/>
<path d="M221 688C222.105 688 223 687.105 223 686C223 684.895 222.105 684 221 684C219.895 684 219 684.895 219 686C219 687.105 219.895 688 221 688Z" fill="#33F0FF"/>
<path d="M221 665C222.105 665 223 664.105 223 663C223 661.895 222.105 661 221 661C219.895 661 219 661.895 219 663C219 664.105 219.895 665 221 665Z" fill="#33F0FF"/>
<path d="M221 642C222.105 642 223 641.105 223 640C223 638.895 222.105 638 221 638C219.895 638 219 638.895 219 640C219 641.105 219.895 642 221 642Z" fill="#33F0FF"/>
<path d="M221 619C222.105 619 223 618.105 223 617C223 615.895 222.105 615 221 615C219.895 615 219 615.895 219 617C219 618.105 219.895 619 221 619Z" fill="#33F0FF"/>
<path d="M246 711C247.105 711 248 710.105 248 709C248 707.895 247.105 707 246 707C244.895 707 244 707.895 244 709C244 710.105 244.895 711 246 711Z" fill="#33F0FF"/>
<path d="M246 688C247.105 688 248 687.105 248 686C248 684.895 247.105 684 246 684C244.895 684 244 684.895 244 686C244 687.105 244.895 688 246 688Z" fill="#33F0FF"/>
<path d="M246 665C247.105 665 248 664.105 248 663C248 661.895 247.105 661 246 661C244.895 661 244 661.895 244 663C244 664.105 244.895 665 246 665Z" fill="#33F0FF"/>
<path d="M246 642C247.105 642 248 641.105 248 640C248 638.895 247.105 638 246 638C244.895 638 244 638.895 244 640C244 641.105 244.895 642 246 642Z" fill="#33F0FF"/>
<path d="M246 619C247.105 619 248 618.105 248 617C248 615.895 247.105 615 246 615C244.895 615 244 615.895 244 617C244 618.105 244.895 619 246 619Z" fill="#33F0FF"/>
<path d="M271 711C272.105 711 273 710.105 273 709C273 707.895 272.105 707 271 707C269.895 707 269 707.895 269 709C269 710.105 269.895 711 271 711Z" fill="#33F0FF"/>
<path d="M271 688C272.105 688 273 687.105 273 686C273 684.895 272.105 684 271 684C269.895 684 269 684.895 269 686C269 687.105 269.895 688 271 688Z" fill="#33F0FF"/>
<path d="M271 665C272.105 665 273 664.105 273 663C273 661.895 272.105 661 271 661C269.895 661 269 661.895 269 663C269 664.105 269.895 665 271 665Z" fill="#33F0FF"/>
<path d="M271 642C272.105 642 273 641.105 273 640C273 638.895 272.105 638 271 638C269.895 638 269 638.895 269 640C269 641.105 269.895 642 271 642Z" fill="#33F0FF"/>
<path d="M271 619C272.105 619 273 618.105 273 617C273 615.895 272.105 615 271 615C269.895 615 269 615.895 269 617C269 618.105 269.895 619 271 619Z" fill="#33F0FF"/>
<path d="M296 711C297.105 711 298 710.105 298 709C298 707.895 297.105 707 296 707C294.895 707 294 707.895 294 709C294 710.105 294.895 711 296 711Z" fill="#33F0FF"/>
<path d="M296 688C297.105 688 298 687.105 298 686C298 684.895 297.105 684 296 684C294.895 684 294 684.895 294 686C294 687.105 294.895 688 296 688Z" fill="#33F0FF"/>
<path d="M296 665C297.105 665 298 664.105 298 663C298 661.895 297.105 661 296 661C294.895 661 294 661.895 294 663C294 664.105 294.895 665 296 665Z" fill="#33F0FF"/>
<path d="M296 642C297.105 642 298 641.105 298 640C298 638.895 297.105 638 296 638C294.895 638 294 638.895 294 640C294 641.105 294.895 642 296 642Z" fill="#33F0FF"/>
<path d="M296 619C297.105 619 298 618.105 298 617C298 615.895 297.105 615 296 615C294.895 615 294 615.895 294 617C294 618.105 294.895 619 296 619Z" fill="#33F0FF"/>
<path d="M321 711C322.105 711 323 710.105 323 709C323 707.895 322.105 707 321 707C319.895 707 319 707.895 319 709C319 710.105 319.895 711 321 711Z" fill="#33F0FF"/>
<path d="M321 688C322.105 688 323 687.105 323 686C323 684.895 322.105 684 321 684C319.895 684 319 684.895 319 686C319 687.105 319.895 688 321 688Z" fill="#33F0FF"/>
<path d="M321 665C322.105 665 323 664.105 323 663C323 661.895 322.105 661 321 661C319.895 661 319 661.895 319 663C319 664.105 319.895 665 321 665Z" fill="#33F0FF"/>
<path d="M321 642C322.105 642 323 641.105 323 640C323 638.895 322.105 638 321 638C319.895 638 319 638.895 319 640C319 641.105 319.895 642 321 642Z" fill="#33F0FF"/>
<path d="M321 619C322.105 619 323 618.105 323 617C323 615.895 322.105 615 321 615C319.895 615 319 615.895 319 617C319 618.105 319.895 619 321 619Z" fill="#33F0FF"/>
<path d="M346 711C347.105 711 348 710.105 348 709C348 707.895 347.105 707 346 707C344.895 707 344 707.895 344 709C344 710.105 344.895 711 346 711Z" fill="#33F0FF"/>
<path d="M346 688C347.105 688 348 687.105 348 686C348 684.895 347.105 684 346 684C344.895 684 344 684.895 344 686C344 687.105 344.895 688 346 688Z" fill="#33F0FF"/>
<path d="M346 665C347.105 665 348 664.105 348 663C348 661.895 347.105 661 346 661C344.895 661 344 661.895 344 663C344 664.105 344.895 665 346 665Z" fill="#33F0FF"/>
<path d="M346 642C347.105 642 348 641.105 348 640C348 638.895 347.105 638 346 638C344.895 638 344 638.895 344 640C344 641.105 344.895 642 346 642Z" fill="#33F0FF"/>
<path d="M346 619C347.105 619 348 618.105 348 617C348 615.895 347.105 615 346 615C344.895 615 344 615.895 344 617C344 618.105 344.895 619 346 619Z" fill="#33F0FF"/>
<path d="M371 711C372.105 711 373 710.105 373 709C373 707.895 372.105 707 371 707C369.895 707 369 707.895 369 709C369 710.105 369.895 711 371 711Z" fill="#33F0FF"/>
<path d="M371 688C372.105 688 373 687.105 373 686C373 684.895 372.105 684 371 684C369.895 684 369 684.895 369 686C369 687.105 369.895 688 371 688Z" fill="#33F0FF"/>
<path d="M371 665C372.105 665 373 664.105 373 663C373 661.895 372.105 661 371 661C369.895 661 369 661.895 369 663C369 664.105 369.895 665 371 665Z" fill="#33F0FF"/>
<path d="M371 642C372.105 642 373 641.105 373 640C373 638.895 372.105 638 371 638C369.895 638 369 638.895 369 640C369 641.105 369.895 642 371 642Z" fill="#33F0FF"/>
<path d="M371 619C372.105 619 373 618.105 373 617C373 615.895 372.105 615 371 615C369.895 615 369 615.895 369 617C369 618.105 369.895 619 371 619Z" fill="#33F0FF"/>
<path d="M396 711C397.105 711 398 710.105 398 709C398 707.895 397.105 707 396 707C394.895 707 394 707.895 394 709C394 710.105 394.895 711 396 711Z" fill="#33F0FF"/>
<path d="M396 688C397.105 688 398 687.105 398 686C398 684.895 397.105 684 396 684C394.895 684 394 684.895 394 686C394 687.105 394.895 688 396 688Z" fill="#33F0FF"/>
<path d="M396 665C397.105 665 398 664.105 398 663C398 661.895 397.105 661 396 661C394.895 661 394 661.895 394 663C394 664.105 394.895 665 396 665Z" fill="#33F0FF"/>
<path d="M396 642C397.105 642 398 641.105 398 640C398 638.895 397.105 638 396 638C394.895 638 394 638.895 394 640C394 641.105 394.895 642 396 642Z" fill="#33F0FF"/>
<path d="M396 619C397.105 619 398 618.105 398 617C398 615.895 397.105 615 396 615C394.895 615 394 615.895 394 617C394 618.105 394.895 619 396 619Z" fill="#33F0FF"/>
<path d="M421 711C422.105 711 423 710.105 423 709C423 707.895 422.105 707 421 707C419.895 707 419 707.895 419 709C419 710.105 419.895 711 421 711Z" fill="#33F0FF"/>
<path d="M421 688C422.105 688 423 687.105 423 686C423 684.895 422.105 684 421 684C419.895 684 419 684.895 419 686C419 687.105 419.895 688 421 688Z" fill="#33F0FF"/>
<path d="M421 665C422.105 665 423 664.105 423 663C423 661.895 422.105 661 421 661C419.895 661 419 661.895 419 663C419 664.105 419.895 665 421 665Z" fill="#33F0FF"/>
<path d="M421 642C422.105 642 423 641.105 423 640C423 638.895 422.105 638 421 638C419.895 638 419 638.895 419 640C419 641.105 419.895 642 421 642Z" fill="#33F0FF"/>
<path d="M421 619C422.105 619 423 618.105 423 617C423 615.895 422.105 615 421 615C419.895 615 419 615.895 419 617C419 618.105 419.895 619 421 619Z" fill="#33F0FF"/>
<path d="M446 711C447.105 711 448 710.105 448 709C448 707.895 447.105 707 446 707C444.895 707 444 707.895 444 709C444 710.105 444.895 711 446 711Z" fill="#33F0FF"/>
<path d="M446 688C447.105 688 448 687.105 448 686C448 684.895 447.105 684 446 684C444.895 684 444 684.895 444 686C444 687.105 444.895 688 446 688Z" fill="#33F0FF"/>
<path d="M446 665C447.105 665 448 664.105 448 663C448 661.895 447.105 661 446 661C444.895 661 444 661.895 444 663C444 664.105 444.895 665 446 665Z" fill="#33F0FF"/>
<path d="M446 642C447.105 642 448 641.105 448 640C448 638.895 447.105 638 446 638C444.895 638 444 638.895 444 640C444 641.105 444.895 642 446 642Z" fill="#33F0FF"/>
<path d="M446 619C447.105 619 448 618.105 448 617C448 615.895 447.105 615 446 615C444.895 615 444 615.895 444 617C444 618.105 444.895 619 446 619Z" fill="#33F0FF"/>
<path d="M471 711C472.105 711 473 710.105 473 709C473 707.895 472.105 707 471 707C469.895 707 469 707.895 469 709C469 710.105 469.895 711 471 711Z" fill="#33F0FF"/>
<path d="M471 688C472.105 688 473 687.105 473 686C473 684.895 472.105 684 471 684C469.895 684 469 684.895 469 686C469 687.105 469.895 688 471 688Z" fill="#33F0FF"/>
<path d="M471 665C472.105 665 473 664.105 473 663C473 661.895 472.105 661 471 661C469.895 661 469 661.895 469 663C469 664.105 469.895 665 471 665Z" fill="#33F0FF"/>
<path d="M471 642C472.105 642 473 641.105 473 640C473 638.895 472.105 638 471 638C469.895 638 469 638.895 469 640C469 641.105 469.895 642 471 642Z" fill="#33F0FF"/>
<path d="M471 619C472.105 619 473 618.105 473 617C473 615.895 472.105 615 471 615C469.895 615 469 615.895 469 617C469 618.105 469.895 619 471 619Z" fill="#33F0FF"/>
<path d="M496 711C497.105 711 498 710.105 498 709C498 707.895 497.105 707 496 707C494.895 707 494 707.895 494 709C494 710.105 494.895 711 496 711Z" fill="#33F0FF"/>
<path d="M496 688C497.105 688 498 687.105 498 686C498 684.895 497.105 684 496 684C494.895 684 494 684.895 494 686C494 687.105 494.895 688 496 688Z" fill="#33F0FF"/>
<path d="M496 665C497.105 665 498 664.105 498 663C498 661.895 497.105 661 496 661C494.895 661 494 661.895 494 663C494 664.105 494.895 665 496 665Z" fill="#33F0FF"/>
<path d="M496 642C497.105 642 498 641.105 498 640C498 638.895 497.105 638 496 638C494.895 638 494 638.895 494 640C494 641.105 494.895 642 496 642Z" fill="#33F0FF"/>
<path d="M496 619C497.105 619 498 618.105 498 617C498 615.895 497.105 615 496 615C494.895 615 494 615.895 494 617C494 618.105 494.895 619 496 619Z" fill="#33F0FF"/>
<path d="M521 711C522.105 711 523 710.105 523 709C523 707.895 522.105 707 521 707C519.895 707 519 707.895 519 709C519 710.105 519.895 711 521 711Z" fill="#33F0FF"/>
<path d="M521 688C522.105 688 523 687.105 523 686C523 684.895 522.105 684 521 684C519.895 684 519 684.895 519 686C519 687.105 519.895 688 521 688Z" fill="#33F0FF"/>
<path d="M521 665C522.105 665 523 664.105 523 663C523 661.895 522.105 661 521 661C519.895 661 519 661.895 519 663C519 664.105 519.895 665 521 665Z" fill="#33F0FF"/>
<path d="M521 642C522.105 642 523 641.105 523 640C523 638.895 522.105 638 521 638C519.895 638 519 638.895 519 640C519 641.105 519.895 642 521 642Z" fill="#33F0FF"/>
<path d="M521 619C522.105 619 523 618.105 523 617C523 615.895 522.105 615 521 615C519.895 615 519 615.895 519 617C519 618.105 519.895 619 521 619Z" fill="#33F0FF"/>
</g>
</g>
<defs>
<clipPath id="clip0_4_1062">
<rect width="1200" height="800" rx="40" fill="white"/>
</clipPath>
</defs>
</svg>
