<?xml version="1.0" encoding="utf-8"?>
<!-- Generator: Adobe Illustrator 26.0.3, SVG Export Plug-In . SVG Version: 6.00 Build 0)  -->
<svg version="1.0" id="Layer_1" xmlns="http://www.w3.org/2000/svg" xmlns:xlink="http://www.w3.org/1999/xlink" x="0px" y="0px"
	 viewBox="0 0 1018.5 715.4" style="enable-background:new 0 0 1018.5 715.4;" xml:space="preserve">
<style type="text/css">
	.st0{fill:#62696A;}
	.st1{clip-path:url(#SVGID_00000117635763951437092720000010614977046096947885_);}
	.st2{fill:url(#SVGID_00000020400850518004474140000010847686491898395012_);}
	.st3{fill:#F2713D;}
	.st4{clip-path:url(#SVGID_00000150783444415882879210000005233752288592636841_);}
	.st5{fill:url(#SVGID_00000062902610147107777290000011907132709974407571_);}
	.st6{clip-path:url(#SVGID_00000003816913457129247070000012864331485916036234_);}
	.st7{fill:url(#SVGID_00000073713144093824576150000008569932149206476727_);}
	.st8{clip-path:url(#SVGID_00000093858079705672016640000015532867796233924535_);}
	.st9{fill:url(#SVGID_00000075134024412274150900000002814049887903852457_);}
	.st10{clip-path:url(#SVGID_00000075867991077598279410000011559245025032304313_);}
	.st11{fill:url(#SVGID_00000152944707033091105710000000309049609822385575_);}
	.st12{clip-path:url(#SVGID_00000057150303074713383560000000162049592394951330_);}
	.st13{fill:url(#SVGID_00000032618316855991116990000017855796779238706582_);}
	.st14{clip-path:url(#SVGID_00000062901431086796862550000009954465671023585169_);}
	.st15{fill:url(#SVGID_00000153692787660923434250000007904371768320716706_);}
	.st16{fill:#231F20;}
	.st17{fill:#5C5C5F;}
	.st18{fill:#1B2523;}
	.st19{fill:#3D3C3E;}
	.st20{fill:#192321;}
	.st21{clip-path:url(#SVGID_00000160170577263602831180000012009521003007268254_);}
	.st22{fill:url(#SVGID_00000078041056917445345120000012165458242942292114_);}
	.st23{fill:none;stroke:#FFFFFF;stroke-width:0.46;stroke-miterlimit:2.61;}
	.st24{fill:#FAF07C;}
	.st25{fill:#872982;}
	.st26{clip-path:url(#SVGID_00000110463735555994742380000005990067907288473516_);}
	.st27{fill:url(#SVGID_00000031907472362166598830000004927555615033728665_);}
	.st28{fill:#F8FAF8;}
	.st29{clip-path:url(#SVGID_00000114035978697808234860000001729557774115892122_);}
	.st30{fill:url(#SVGID_00000024708885499882137630000011093580650188024713_);}
	.st31{fill:#FFFFFF;}
	.st32{clip-path:url(#SVGID_00000068650325400042796410000011430437894195793556_);}
	.st33{fill:url(#SVGID_00000151503951884517142000000002904470360777864069_);}
	.st34{fill:#253C8A;}
	.st35{fill:#F48120;}
	.st36{fill:none;}
</style>
<polygon class="st0" points="800.8,269.2 811.5,269.2 645,493.1 635.8,493.1 "/>
<g>
	<defs>
		<polygon id="SVGID_1_" points="658,264 805.2,264 636.9,491.3 563,491.3 		"/>
	</defs>
	<clipPath id="SVGID_00000054955752319333256670000006700422430512258746_">
		<use xlink:href="#SVGID_1_"  style="overflow:visible;"/>
	</clipPath>
	<g style="clip-path:url(#SVGID_00000054955752319333256670000006700422430512258746_);">
		
			<linearGradient id="SVGID_00000147221347461237664040000018299526083813832103_" gradientUnits="userSpaceOnUse" x1="599.35" y1="336.84" x2="768.86" y2="336.84" gradientTransform="matrix(1 0 0 -1 0 714.48)">
			<stop  offset="0" style="stop-color:#FFFFFF"/>
			<stop  offset="1" style="stop-color:#F79638"/>
		</linearGradient>
		
			<rect x="563" y="264" style="fill:url(#SVGID_00000147221347461237664040000018299526083813832103_);" width="242.2" height="227.3"/>
	</g>
</g>
<path class="st3" d="M566,489.3h70l165.4-223.4h-142L566,489.3z M560.1,493.2l96.1-230l0.5-1.2h152.4L637.9,493.2H560.1z"/>
<polygon class="st0" points="783.9,219.5 796.3,219.5 600,492.4 589.2,492.4 "/>
<g>
	<defs>
		<polygon id="SVGID_00000109735054343177896770000012029632627947459731_" points="611.3,213.2 789.1,213.2 592.9,490.2 
			503.7,490.2 		"/>
	</defs>
	<clipPath id="SVGID_00000031890803129546890930000014950221017161311398_">
		<use xlink:href="#SVGID_00000109735054343177896770000012029632627947459731_"  style="overflow:visible;"/>
	</clipPath>
	<g style="clip-path:url(#SVGID_00000031890803129546890930000014950221017161311398_);">
		
			<linearGradient id="SVGID_00000150094629863258486080000012682402512302806679_" gradientUnits="userSpaceOnUse" x1="546.48" y1="362.785" x2="746.32" y2="362.785" gradientTransform="matrix(1 0 0 -1 0 714.48)">
			<stop  offset="0" style="stop-color:#FFFFFF"/>
			<stop  offset="1" style="stop-color:#F79638"/>
		</linearGradient>
		
			<rect x="503.7" y="213.2" style="fill:url(#SVGID_00000150094629863258486080000012682402512302806679_);" width="285.5" height="276.9"/>
	</g>
</g>
<path class="st3" d="M506.5,488.2h85.4l193.4-273H612.7L506.5,488.2z M500.8,492.1l108.7-279.6l0.5-1.2h182.9l-199,280.8H500.8z"/>
<polygon class="st0" points="750.4,178.6 762.4,178.6 575.9,491 565.8,491 "/>
<g>
	<defs>
		<polygon id="SVGID_00000115505829592721917840000015835772087631393976_" points="551.6,171.5 755.2,171.5 569.5,488.6 
			467.3,488.6 		"/>
	</defs>
	<clipPath id="SVGID_00000114068007194859419380000012820675073628119989_">
		<use xlink:href="#SVGID_00000115505829592721917840000015835772087631393976_"  style="overflow:visible;"/>
	</clipPath>
	<g style="clip-path:url(#SVGID_00000114068007194859419380000012820675073628119989_);">
		
			<linearGradient id="SVGID_00000072250599467777155970000015178580204494874511_" gradientUnits="userSpaceOnUse" x1="467.31" y1="384.415" x2="755.23" y2="384.415" gradientTransform="matrix(1 0 0 -1 0 714.48)">
			<stop  offset="0" style="stop-color:#FFFFFF"/>
			<stop  offset="1" style="stop-color:#F79638"/>
		</linearGradient>
		
			<rect x="467.3" y="171.5" style="fill:url(#SVGID_00000072250599467777155970000015178580204494874511_);" width="287.9" height="317.1"/>
	</g>
</g>
<path class="st3" d="M469.8,486.6h98.5l183.4-313.2H553.1L469.8,486.6z M464.8,490.5l85-319.5l0.4-1.4h208.5l-188,321L464.8,490.5z"
	/>
<polygon class="st0" points="217.7,269.1 207.1,269.1 373.5,493.1 382.8,493.1 "/>
<g>
	<defs>
		<polygon id="SVGID_00000021097005362114009690000016738408871535824052_" points="360.6,264 213.4,264 381.7,491.3 455.5,491.3 		
			"/>
	</defs>
	<clipPath id="SVGID_00000179623726049187923790000013341623916466004389_">
		<use xlink:href="#SVGID_00000021097005362114009690000016738408871535824052_"  style="overflow:visible;"/>
	</clipPath>
	<g style="clip-path:url(#SVGID_00000179623726049187923790000013341623916466004389_);">
		
			<linearGradient id="SVGID_00000003096240825652176130000001431643634532501909_" gradientUnits="userSpaceOnUse" x1="419.25" y1="336.875" x2="249.74" y2="336.875" gradientTransform="matrix(1 0 0 -1 0 714.48)">
			<stop  offset="0" style="stop-color:#FFFFFF"/>
			<stop  offset="1" style="stop-color:#F79638"/>
		</linearGradient>
		
			<rect x="213.4" y="263.9" style="fill:url(#SVGID_00000003096240825652176130000001431643634532501909_);" width="242.2" height="227.3"/>
	</g>
</g>
<path class="st3" d="M382.7,489.3h69.9l-93.3-223.4h-142L382.7,489.3z M380.7,493.2L209.5,262h151.1v2l-1.8,0.8l1.8-0.8v-2h1.3
	l96.6,231.2H380.7z"/>
<polygon class="st0" points="234.7,219.5 222.2,219.5 418.6,492.3 429.4,492.3 "/>
<g>
	<defs>
		<polygon id="SVGID_00000126292402308382738970000004825019301078114950_" points="407.2,213.2 229.4,213.2 425.6,490.1 
			514.9,490.1 		"/>
	</defs>
	<clipPath id="SVGID_00000069375169696129253580000005791818068522024606_">
		<use xlink:href="#SVGID_00000126292402308382738970000004825019301078114950_"  style="overflow:visible;"/>
	</clipPath>
	<g style="clip-path:url(#SVGID_00000069375169696129253580000005791818068522024606_);">
		
			<linearGradient id="SVGID_00000128465474268205163890000009457906834552635549_" gradientUnits="userSpaceOnUse" x1="474.91" y1="362.815" x2="269.4" y2="362.815" gradientTransform="matrix(1 0 0 -1 0 714.48)">
			<stop  offset="0" style="stop-color:#FFFFFF"/>
			<stop  offset="1" style="stop-color:#F79638"/>
		</linearGradient>
		
			<rect x="229.4" y="213.2" style="fill:url(#SVGID_00000128465474268205163890000009457906834552635549_);" width="285.5" height="276.9"/>
	</g>
</g>
<path class="st3" d="M426.6,488.2H512l-106.1-273H233.2L426.6,488.2z M424.6,492.1l-199-280.8h181.6v1.9l-1.8,0.7l1.8-0.7v-1.9h1.3
	l109.1,280.8H424.6z"/>
<polygon class="st0" points="268.2,178.6 256.2,178.6 442.7,491 452.8,491 "/>
<g>
	<defs>
		<path id="SVGID_00000111177750255142290130000002088045953353636765_" d="M529.9,409.1l-17.1-64.2L529.9,409.1z"/>
	</defs>
	<clipPath id="SVGID_00000104697724498295868010000007813705312923183235_">
		<use xlink:href="#SVGID_00000111177750255142290130000002088045953353636765_"  style="overflow:visible;"/>
	</clipPath>
	<g style="clip-path:url(#SVGID_00000104697724498295868010000007813705312923183235_);">
		
			<linearGradient id="SVGID_00000069381150814437637950000018332645161419657399_" gradientUnits="userSpaceOnUse" x1="522.3093" y1="337.6732" x2="520.4593" y2="337.2632" gradientTransform="matrix(1 0 0 -1 0 714.48)">
			<stop  offset="0" style="stop-color:#FFFFFF"/>
			<stop  offset="1" style="stop-color:#F79638"/>
		</linearGradient>
		
			<rect x="512.8" y="344.9" style="fill:url(#SVGID_00000069381150814437637950000018332645161419657399_);" width="17.1" height="64.2"/>
	</g>
</g>
<g>
	<defs>
		<polygon id="SVGID_00000056386060253882189540000013050073423557984952_" points="466.7,171.4 263.1,171.4 448.8,488.5 551,488.5 
			548.2,477.8 512.8,344.9 		"/>
	</defs>
	<clipPath id="SVGID_00000078735602008815293540000002749595425763974065_">
		<use xlink:href="#SVGID_00000056386060253882189540000013050073423557984952_"  style="overflow:visible;"/>
	</clipPath>
	<g style="clip-path:url(#SVGID_00000078735602008815293540000002749595425763974065_);">
		
			<linearGradient id="SVGID_00000032618507241272442600000010395406860118098334_" gradientUnits="userSpaceOnUse" x1="551" y1="384.54" x2="263.08" y2="384.54" gradientTransform="matrix(1 0 0 -1 0 714.48)">
			<stop  offset="0" style="stop-color:#FFFFFF"/>
			<stop  offset="1" style="stop-color:#F79638"/>
		</linearGradient>
		
			<rect x="263.1" y="171.4" style="fill:url(#SVGID_00000032618507241272442600000010395406860118098334_);" width="287.9" height="317.1"/>
	</g>
</g>
<polygon class="st3" points="447.7,490.4 259.7,169.5 468.2,169.5 514.7,344.4 514.7,344.4 510.9,345.4 465.2,173.4 266.5,173.4 
	449.9,486.5 548.5,486.5 546.3,478.3 550,477.3 553.5,490.4 "/>
<polygon class="st16" points="457.2,401.6 452.2,400.5 454,402.3 "/>
<path class="st16" d="M454.2,401.7L454.2,401.7l0.7-0.2l-1.1-0.2L454.2,401.7z M453.7,402.6l-1.8-1.8c-0.2-0.2-0.2-0.4-0.1-0.6
	c0.1-0.2,0.3-0.3,0.5-0.2l5,1l-0.1,0.5l0.1-0.5c0.3,0,0.5,0.2,0.5,0.5s-0.2,0.5-0.5,0.5l-3.2,0.7H454
	C453.9,402.8,453.8,402.7,453.7,402.6L453.7,402.6z"/>
<path class="st16" d="M506.9,472.7c-0.8,0.4-21-11.9-20.2-12.9c9.3-10.7,25.6-11.7,36.2-2.4c0.7,0.6,1.3,1.2,2,1.9
	C525.9,460.5,506.1,471.4,506.9,472.7"/>
<path class="st17" d="M487.8,460.3L487.8,460.3c0.5,0.4,1.1,0.9,2,1.5c1.7,1.2,3.9,2.7,6.3,4.2c4.2,2.6,8.8,5.3,10.3,5.9
	c0.1-0.1,0.2-0.2,0.3-0.4c0.4-0.4,0.8-0.7,1.2-1c1-0.8,2.4-1.7,3.9-2.7c3-2,6.7-4.3,9.3-6.1c1-0.7,2-1.4,2.9-2.2
	c-9.5-10-25.3-10.4-35.3-0.9c-0.4,0.4-0.9,0.9-1.3,1.3C487.6,460.1,487.7,460.2,487.8,460.3L487.8,460.3z M506.8,472.7L506.8,472.7
	l0.6-0.4L506.8,472.7z M503.4,471.9c-1.6-0.9-3.6-2.1-5.8-3.4c-3.7-2.2-7.3-4.6-10.7-7.2c-0.5-0.5-0.9-0.7-1-1.5
	c0-0.2,0.1-0.4,0.2-0.5c9.6-10.9,26.2-12,37.2-2.4c0.7,0.6,1.4,1.3,2,2c0.1,0.2,0.2,0.3,0.2,0.5c-0.1,0.4-0.3,0.8-0.6,1.1
	c-0.4,0.4-0.8,0.7-1.2,1c-1,0.8-2.4,1.7-3.9,2.7c-3,2-6.7,4.3-9.3,6.1c-1.1,0.7-2.1,1.5-3,2.4c0,0.1,0,0.2,0,0.2
	c-0.1,0.2-0.2,0.3-0.4,0.4c-0.1,0-0.2,0.1-0.3,0.1C505.7,473.1,504.5,472.6,503.4,471.9L503.4,471.9z"/>
<path class="st16" d="M422.9,395.5l6.7,2.5L422.9,395.5z"/>
<path class="st18" d="M429.3,398.9l-6.7-2.5c-0.5-0.2-0.8-0.8-0.6-1.3c0.2-0.5,0.8-0.8,1.3-0.6l6.7,2.5c0.5,0.2,0.7,0.8,0.5,1.3
	c-0.2,0.3-0.5,0.5-0.8,0.6C429.5,398.9,429.4,398.9,429.3,398.9"/>
<path class="st16" d="M618.5,411.1l6.2,2.4L618.5,411.1z"/>
<path class="st18" d="M624.3,414.4l-6.2-2.4c-0.5-0.3-0.6-0.9-0.3-1.4c0.2-0.3,0.6-0.5,1-0.4l6.2,2.4c0.5,0.2,0.7,0.8,0.6,1.3
	c-0.2,0.4-0.5,0.6-0.9,0.6C624.6,414.5,624.4,414.5,624.3,414.4"/>
<polygon class="st16" points="454.7,378.5 461.1,380.8 454.7,381 "/>
<path class="st16" d="M453.8,381.9c-0.3-0.3-0.4-0.6-0.4-1v-2.5c0-0.7,0.6-1.3,1.4-1.3c0.1,0,0.3,0,0.4,0.1l6.3,2.3
	c0.7,0.3,1,1,0.7,1.7c-0.2,0.5-0.6,0.8-1.2,0.8l-6.4,0.2l0,0C454.3,382.3,454,382.1,453.8,381.9"/>
<path class="st16" d="M563.9,376.6l7.4,2.5L563.9,376.6z"/>
<path class="st18" d="M571.2,379.6l-7.4-2.5c-0.2-0.1-0.3-0.3-0.2-0.5c0.1-0.2,0.3-0.3,0.5-0.2l7.4,2.5c0.2,0.1,0.3,0.3,0.3,0.5
	c0,0,0,0,0,0c-0.1,0.2-0.2,0.3-0.4,0.3L571.2,379.6"/>
<polygon class="st16" points="589.7,388.8 596.1,391.4 591.7,392.1 "/>
<path class="st18" d="M591.9,391.7L591.9,391.7l3-0.5l-4.3-1.8L591.9,391.7z M591.5,392.3l-2-3.3l0.3-0.2l-0.3,0.2
	c-0.1-0.1-0.1-0.3,0-0.4c0.1-0.1,0.2-0.1,0.4-0.1l6.3,2.6c0.1,0.1,0.2,0.2,0.2,0.4c0,0.1-0.1,0.3-0.3,0.3l-4.4,0.7h0
	C591.6,392.4,591.5,392.4,591.5,392.3L591.5,392.3z"/>
<path class="st16" d="M490.5,367.5l5.4,2.1L490.5,367.5z"/>
<path class="st18" d="M495.6,370.4l-5.4-2.1c-0.5-0.1-0.8-0.7-0.6-1.1s0.7-0.8,1.1-0.6c0.1,0,0.1,0,0.2,0.1l5.4,2.1
	c0.5,0.2,0.7,0.7,0.5,1.2c-0.1,0.4-0.5,0.6-0.9,0.6C495.8,370.5,495.7,370.5,495.6,370.4"/>
<path d="M622.8,446.2c0.5,0.8,2.3,3.9,9-0.9c3.9-2.8,9-3.6,12.5-3.9c-0.5-0.8-0.9-1.3-0.9-1.3s-9.9-0.9-16.7,3.9
	C625.5,444.9,624.2,445.6,622.8,446.2L622.8,446.2"/>
<path d="M576,405.2c2.3,1.4,4.8-1.6,7-4.5c2.7-3.6,7-6.5,10.3-8.2c-1.6-1-3.1-1.9-3.9-2.5c-3.4,1.8-8.7,4.9-11.8,9.1
	c-1.4,2-3,3.9-4.6,4.6C573.9,404.1,575.1,404.6,576,405.2"/>
<path d="M540.2,392.3c-0.4-0.1-1.1-0.2-1.9-0.3c0.3,0.4,0.8,0.7,1.3,0.9c0,0,4.8,0.9,6.1,1.1c2,0.3,5.2,0.2,6.2-4
	c0.8-3.9,8.5-13.4,9.1-12.9c0.2,0.1,2.1,0.6,4.3,1.1c-3.1-1.3-9.4-2.7-9.8-2.9c-0.6-0.4-8.2,9.2-9.1,13
	C545.5,392.4,542.2,392.6,540.2,392.3"/>
<path d="M600.8,422.6c2.5,1.9,6.1,1.5,8.1-1c2.8-3.3,8.9-6.2,12.2-7.6c-1.6-1.4-2.9-2.5-2.9-2.5s-10.5,3.9-14.5,8.6
	c-0.8,1-2,1.7-3.2,2C600.5,422.3,600.6,422.4,600.8,422.6"/>
<path d="M406.3,449.6c0.9-1.7,1.7-4.6-2.2-6.8c-3.6-2-10.9-11.9-10.3-12.3s4.2-6.6,6.4-8.5c-2.3-1-4.2-1.4-5.4-2
	c-1.5-0.7-7.1,8.6-7.6,9c-0.5,0.4,6.7,10.4,10.4,12.4c4,2.2-4.2,34.7-5.1,36.4l5.2,5.3L406.3,449.6z"/>
<path d="M421.3,423.8c-1.4,1.2-2.7,2.5-4,3.9c-0.3,0.3-0.6,0.6-0.9,0.9c5.5,4.5,5.2,2.2,7.3,0.6c1.2-1.4,2.6-2.7,4-3.9
	c2.1-1.7-0.2-4.8-2.5-7.8c-3.3-4.1-4.9-9.9-5.6-13.5c1.4-1,5-3.8,7.4-5.5c-1.3-1-2.7-2-4.2-2.8c-0.6-0.3-7.5,5.3-9.6,6.8
	c0.7,3.6,2.4,9.4,5.6,13.6C421.1,419,423.4,422.2,421.3,423.8"/>
<path d="M508.9,389.4c-0.6,0.1-2.3,0.1-3.8,0.1c0.9,0.8,1.9,1.4,3.1,1.6c2.2,0.1,4.3,0.1,6.5,0c1-0.1,5.9-0.2,5.1-7.2
	c-0.6-5.4,4.6-14,4.6-14l7.9,0.5c-0.1-0.4-0.2-0.7-0.3-1.1l-0.3-0.4l-13.1-0.8c0,0-5.2,8.6-4.6,14.1
	C514.8,389.2,509.9,389.3,508.9,389.4"/>
<path d="M478.6,386.2c2.8,7.5-0.8,8.1-1.8,8.3c-0.6,0.1-3.2,0.8-5.2,1.2c0.9,1.3,2.4,2,3.9,2c1.1-0.1,6.3-1.4,7.3-1.6
	s4.5-0.8,1.8-8.3s1-16.2,1-16.2s3.5-0.9,6.5-1.5c-0.5-0.8-1.2-1.6-1.9-2.3c-0.8-0.5-10.6,2-10.6,2S475.8,378.5,478.6,386.2"/>
<path d="M447.7,399.3c1.8,2.3,1.4,5.6-0.9,7.4c-0.2,0.1-0.3,0.2-0.5,0.3c-1.9,0.6,0.1-0.2-4.6,2.3c1.3,1.5,3.3,2.3,5.3,2
	c5.8-3.1,3.5-2.2,5.5-2.8c2.4-1.5,3.2-4.6,1.8-7.1c-0.1-0.2-0.2-0.4-0.4-0.5c-3.5-5.1-4.2-15.7-4.2-15.7c2.5-1.5,5-2.8,7.6-3.9
	c-1.1-1.2-2-2.1-2.4-2.5c-1.4-1.2-11.4,4.7-11.4,4.7S444.3,394.2,447.7,399.3"/>
<path class="st16" d="M622.8,446.2c0.5,0.8,2.3,3.9,9-0.9c3.9-2.8,9-3.6,12.5-3.9c-0.5-0.8-0.9-1.3-0.9-1.3s-9.9-0.9-16.7,3.9
	C625.5,444.9,624.2,445.6,622.8,446.2L622.8,446.2"/>
<path class="st16" d="M622.8,446.2L622.8,446.2z M625.8,447L625.8,447c1,0,2.8-0.5,5.5-2.4c2.7-1.8,5.8-3,9.1-3.5
	c-3.4,0.1-9,0.8-13.1,3.8c-0.9,0.7-1.9,1.2-2.9,1.7C624.7,446.8,625.2,447,625.8,447L625.8,447z M622.1,446.8
	C622.1,446.8,622.1,446.7,622.1,446.8c-0.2-0.2-0.2-0.4-0.2-0.6c0-0.4,0.2-0.7,0.6-0.9c1.3-0.5,2.5-1.2,3.7-2
	c5.2-3.7,12-4.1,15.3-4.1c1.2,0,2,0.1,2,0.1c0.3,0,0.5,0.2,0.6,0.4c0,0,0.4,0.5,1,1.4c0.2,0.3,0.2,0.6,0.1,0.9
	c-0.2,0.3-0.4,0.5-0.8,0.5c-3.4,0.2-8.3,1.1-12,3.7c-2.9,2-4.9,2.7-6.5,2.7h-0.1C624.3,448.9,622.9,448.1,622.1,446.8L622.1,446.8z"
	/>
<path class="st19" d="M576,405.2c2.3,1.4,4.8-1.6,7-4.5c2.7-3.6,7-6.5,10.3-8.2c-1.6-1-3.1-1.9-3.9-2.5c-3.4,1.8-8.7,4.9-11.8,9.1
	c-1.4,2-3,3.9-4.6,4.6C573.9,404.1,575.1,404.6,576,405.2"/>
<path class="st19" d="M576.5,404.4L576.5,404.4l-0.5,0.8L576.5,404.4c0.2,0.2,0.5,0.2,0.8,0.2c1.2,0.1,3.2-2,5-4.5
	c2.6-3.1,5.7-5.8,9.2-7.7c-0.8-0.5-1.5-1-2.1-1.3c-3.3,1.8-8.2,4.8-11,8.6c-1,1.4-2.1,2.8-3.4,3.9
	C575.4,403.8,575.9,404.1,576.5,404.4 M575.6,406c-1-0.6-2.1-1.1-2.9-1.5c-0.5-0.2-0.7-0.8-0.4-1.2c0.1-0.2,0.3-0.4,0.4-0.4
	c1.2-0.5,2.8-2.4,4.2-4.3c3.3-4.4,8.7-7.5,12.2-9.3c0.3-0.2,0.7-0.1,1,0c0.7,0.5,2.2,1.4,3.8,2.4c0.4,0.3,0.6,0.8,0.3,1.3
	c-0.1,0.1-0.2,0.3-0.3,0.3c-3.2,1.8-7.4,4.5-10,8c-1.9,2.4-3.7,5.1-6.5,5.2l0,0C576.7,406.5,576.1,406.3,575.6,406L575.6,406z"/>
<path class="st16" d="M540.2,392.3c-0.4-0.1-1.1-0.2-1.9-0.3c0.3,0.4,0.8,0.7,1.3,0.9c0,0,4.8,0.9,6.1,1.1c2,0.3,5.2,0.2,6.2-4
	c0.8-3.9,8.5-13.4,9.1-12.9c0.2,0.1,2.1,0.6,4.3,1.1c-3.1-1.3-9.4-2.7-9.8-2.9c-0.6-0.4-8.2,9.2-9.1,13
	C545.5,392.4,542.2,392.6,540.2,392.3"/>
<path class="st19" d="M545.9,393L545.9,393c0.4,0,0.7,0.1,1.1,0.1c1.7-0.1,3.3-0.4,4-3.4c0.9-3.6,5.8-10,8.2-12.5
	c-1.5-0.4-2.9-0.8-3.6-1h-0.1l-0.1,0.1c-0.2,0.2-0.6,0.6-1,1c-0.8,0.9-1.8,2.1-2.8,3.5c-2,2.7-4,6-4.4,7.6c-0.3,1.9-1.4,3.5-3.1,4.3
	L545.9,393 M547,394.9c-0.5,0-0.9,0-1.4-0.1c-1.4-0.2-6.2-1.1-6.2-1.1c-0.7-0.2-1.4-0.6-1.8-1.2l-1.6-1.9l2.5,0.4
	c0.8,0.1,1.4,0.2,1.9,0.3c0.4,0.1,0.8,0.1,1.1,0.1c1.7-0.1,3.3-0.4,4-3.5c0.9-3.8,6.6-11.1,8.7-13.1c0.4-0.3,0.4-0.5,1.2-0.6
	c0.2,0,0.3,0,0.5,0.1l0,0l0.2,0.1l0.8,0.2l2.6,0.7c2,0.5,4,1.1,6,1.9l-0.6,1.7c-1.6-0.4-3.1-0.8-3.8-1l-0.1,0l-0.1,0.1
	c-0.2,0.2-0.6,0.6-1,1c-0.8,0.9-1.8,2.1-2.8,3.5c-2,2.7-4,6-4.3,7.6c-0.4,2.8-2.8,4.9-5.6,4.9L547,394.9z"/>
<path class="st16" d="M397.3,481.4L397.3,481.4l8.2-32l0.1-0.2c0.4-0.7,0.6-1.4,0.6-2.2c0-1.1-0.4-2.2-2.5-3.4
	c-3.5-2-8.9-9.1-10.4-11.8c-0.2-0.4-0.4-0.8-0.4-1.2c0-0.3,0.1-0.6,0.3-0.8l0,0l0.2-0.2l0.5-0.8c0.5-0.6,1-1.5,1.7-2.5
	c0.9-1.4,1.9-2.7,3-4c-1.5-0.6-2.9-0.9-3.9-1.4c0,0-0.1,0-0.1,0.1c-0.3,0.2-0.5,0.4-0.7,0.7c-0.7,0.8-1.4,1.6-2,2.4
	c-1.4,1.9-2.8,4-3.4,5l-0.1,0.2l0.1,0.2c0.2,0.3,0.5,0.8,0.8,1.3c0.7,1,1.6,2.3,2.7,3.6c2.1,2.6,4.8,5.4,6.3,6.2
	c1.5,1,1.5,2.7,1.6,5.1c0,7.3-3.1,21-5,28.1c-0.5,1.8-0.8,3-1.1,3.8L397.3,481.4z M397.1,483.8l-5.2-5.3c-0.3-0.3-0.4-0.7-0.2-1.1
	c0.5-1.3,0.9-2.7,1.2-4.1c0.6-2.3,1.4-5.4,2.1-8.8c1.5-6.6,2.8-14.4,2.8-18.9c0-0.9-0.1-1.8-0.2-2.6c0-0.3-0.2-0.6-0.4-0.9
	c-3.5-2-9-9.2-10.5-11.9c-0.2-0.4-0.4-0.8-0.4-1.2c0-0.3,0.1-0.6,0.4-0.8l0.1-0.2c0.1-0.1,0.3-0.4,0.5-0.6l1.4-2.1
	c1.1-1.7,2.3-3.2,3.6-4.8c0.8-0.8,1.4-1.5,2.5-1.7c0.2,0,0.4,0,0.6,0.1c1,0.5,3,1,5.3,2c0.3,0.1,0.5,0.4,0.6,0.7
	c0,0.3-0.1,0.6-0.3,0.8c-1.7,1.5-4.9,6.5-6,7.9l0,0.1c0,0.1,0,0.1,0.1,0.1c0.2,0.3,0.4,0.8,0.8,1.3c0.7,1,1.6,2.3,2.7,3.6
	c2.1,2.6,4.7,5.4,6.2,6.2c2.5,1.3,3.5,3.2,3.5,5c0,1.1-0.3,2.1-0.8,3l-8.6,33.5c-0.1,0.3-0.3,0.6-0.6,0.7h-0.2
	C397.5,484.1,397.2,484,397.1,483.8L397.1,483.8z"/>
<path class="st16" d="M421,430.2L421,430.2c0.2,0,0.3,0,0.7-0.4c0.4-0.5,0.9-1,1.4-1.4c1.2-1.4,2.6-2.7,4-3.9c0.3-0.2,0.5-0.6,0.5-1
	c0.1-1.1-1.4-3.4-3.1-5.5c-3.4-4.4-5-10.2-5.8-13.9c-0.1-0.4,0.1-0.7,0.4-0.9c1.1-0.8,4-3,6.4-4.7c-0.9-0.6-1.8-1.2-2.7-1.8h-0.1
	c-0.3,0.2-0.6,0.4-0.9,0.6c-0.8,0.5-1.7,1.2-2.7,2c-1.8,1.3-3.6,2.7-4.8,3.6c0.8,3.6,2.4,8.9,5.3,12.6c1.6,2.1,3.4,4.4,3.5,6.6
	c0,0.9-0.4,1.8-1.2,2.4l-0.6-0.7l0.6,0.7c-0.9,0.7-1.7,1.5-2.5,2.4c-0.7,0.7-1.1,1.2-1.4,1.5l-0.1,0.1
	C419.7,429.8,420.7,430.2,421,430.2 M421,432c-1.4,0-2.7-0.9-5.2-2.8c-0.4-0.3-0.4-0.9-0.1-1.3c0,0,0,0,0,0c0.3-0.3,0.6-0.6,1-1
	c0,0,0.6-0.6,1.2-1.3c0.8-0.9,1.7-1.7,2.7-2.5l0,0c0.3-0.2,0.5-0.6,0.5-1c0.1-1.1-1.4-3.4-3.1-5.5c-3.4-4.4-5.1-10.3-5.8-14
	c-0.1-0.4,0.1-0.7,0.4-0.9c1.7-1.2,7-5.4,9.1-6.6c0.3-0.2,0.6-0.3,1-0.4c0.2,0,0.4,0.1,0.5,0.1c1.5,0.9,2.9,1.9,4.2,2.9
	c0.2,0.2,0.4,0.5,0.4,0.8c0,0.3-0.2,0.6-0.4,0.7c-2.1,1.5-5.2,3.9-6.9,5.1c0.8,3.5,2.3,8.8,5.3,12.5c1.6,2.2,3.4,4.4,3.5,6.6
	c0,0.9-0.4,1.8-1.1,2.4c-1.4,1.2-2.8,2.5-4,3.9c-0.5,0.4-0.9,0.8-1.3,1.2C422.5,431.6,421.7,432,421,432L421,432z"/>
<path class="st16" d="M508.9,389.4c-0.6,0.1-2.3,0.1-3.8,0.1c0.9,0.8,1.9,1.4,3.1,1.6c2.2,0.1,4.3,0.1,6.5,0c1-0.1,5.9-0.2,5.1-7.2
	c-0.6-5.4,4.6-14,4.6-14l7.9,0.5c-0.1-0.4-0.2-0.7-0.3-1.1l-0.3-0.4l-13.1-0.8c0,0-5.2,8.6-4.6,14.1
	C514.8,389.2,509.9,389.3,508.9,389.4"/>
<path class="st19" d="M510.7,390.2L510.7,390.2c1.6,0,3.4,0,4-0.1c0.9,0,1.8-0.3,2.5-0.7c0.9-0.6,1.8-1.6,1.8-4.2
	c0-0.4,0-0.9-0.1-1.3c0-0.3-0.1-0.7-0.1-1c0-5.9,4.8-13.5,4.8-13.5v-0.1l-4.5-0.3c-0.4,0.7-1.2,2.2-2,4c-1.2,2.5-2.3,5.8-2.3,8.3
	c0,0.3,0,0.5,0,0.8c0.1,0.5,0.1,1,0.1,1.5c0,3-1.2,4.9-2.7,5.8c-0.8,0.5-1.6,0.8-2.5,0.9L510.7,390.2 M508.1,392
	c-1.4-0.2-2.6-0.9-3.6-1.8l-1.5-1.5h2.2c1.5,0,3.2-0.1,3.7-0.1l0.1,0.9l-0.1-0.9c0.9,0,1.8-0.3,2.6-0.7c0.9-0.6,1.8-1.6,1.8-4.2
	c0-0.4,0-0.9-0.1-1.3c0-0.3-0.1-0.7,0-1c0-5.9,4.8-13.6,4.8-13.7l0.3-0.5l14,0.9l0.2,0.3l0.5,0.6v0.2l0.2,1l0.3,1.2l-8.6-0.6
	c-0.4,0.7-1.2,2.1-2,3.9c-1.2,2.5-2.3,5.7-2.2,8.2c0,0.3,0,0.6,0,0.8c0.1,0.5,0.1,1,0.1,1.5c0,3-1.2,4.9-2.7,5.8c-1,0.6-2.2,1-3.4,1
	c-0.7,0.1-2.5,0.1-4.1,0.1C509.7,392.2,508.9,392.1,508.1,392L508.1,392z"/>
<path class="st16" d="M478.6,386.2c2.8,7.5-0.8,8.1-1.8,8.3c-0.6,0.1-3.2,0.8-5.2,1.2c0.9,1.3,2.4,2,3.9,2c1.1-0.1,6.3-1.4,7.3-1.6
	s4.5-0.8,1.8-8.3s1-16.2,1-16.2s3.5-0.9,6.5-1.5c-0.5-0.8-1.2-1.6-1.9-2.3c-0.8-0.5-10.6,2-10.6,2S475.8,378.5,478.6,386.2"/>
<path class="st19" d="M470.9,396.3l-0.9-1.1l1.4-0.3c2-0.4,4.5-1.1,5.2-1.2c0.5-0.1,0.9-0.2,1.3-0.5c0.6-0.6,0.9-1.4,0.8-2.2
	c-0.1-1.5-0.4-3-1-4.4l0.9-0.3l0.9-0.3c0.6,1.6,1,3.3,1.1,5c0.1,1.4-0.5,2.7-1.5,3.7c-0.6,0.5-1.3,0.8-2,0.9c-0.5,0.1-2,0.5-3.6,0.9
	c0.5,0.4,1.2,0.6,1.9,0.6h0.2c0.9-0.1,6.2-1.4,7.1-1.6c0.5-0.1,0.9-0.3,1.3-0.5c0.6-0.6,0.9-1.4,0.8-2.2c-0.1-1.5-0.4-3-1-4.4
	c-0.7-2.1-1.1-4.2-1.1-6.4c0.1-3.6,0.8-7.1,2.1-10.5l0.2-0.4l0.4-0.1c0,0,2.5-0.6,5.2-1.2c-0.2-0.3-0.5-0.6-0.8-0.8l0,0
	c-1.9,0.2-3.8,0.5-5.7,1c-1.6,0.4-3.1,0.8-3.8,0.9c-0.2,0.5-0.5,1.3-0.8,2.5c-0.6,2.2-1,4.5-1,6.9c0,2,0.3,4,1,5.9l-0.9,0.3
	l-0.9,0.3c-0.7-2.1-1.1-4.3-1.1-6.5c0-3.6,0.8-7.2,2.1-10.5l0.2-0.4l0.4-0.1c0.1,0,8-2.1,10.4-2.1c0.4,0,0.7,0.1,1,0.3
	c0.8,0.7,1.5,1.5,2.1,2.5l0.8,1.1l-1.3,0.3c-2.3,0.5-5,1.1-6,1.4c-0.2,0.5-0.5,1.3-0.8,2.5c-0.6,2.2-1,4.5-1,6.9c0,2,0.3,3.9,1,5.8
	c0.6,1.6,1,3.3,1.1,5c0.1,1.4-0.4,2.7-1.5,3.6c-0.6,0.4-1.3,0.8-2,0.9c-1,0.2-6.1,1.5-7.4,1.7h-0.3
	C473.6,398.7,471.9,397.8,470.9,396.3"/>
<path class="st16" d="M447.7,399.3c1.8,2.3,1.4,5.6-0.9,7.4c-0.2,0.1-0.3,0.2-0.5,0.3c-1.9,0.6,0.1-0.2-4.6,2.3
	c1.3,1.5,3.3,2.3,5.3,2c5.8-3.1,3.5-2.2,5.5-2.8c2.4-1.5,3.2-4.6,1.8-7.1c-0.1-0.2-0.2-0.4-0.4-0.5c-3.5-5.1-4.2-15.7-4.2-15.7
	c2.5-1.5,5-2.8,7.6-3.9c-1.1-1.2-2-2.1-2.4-2.5c-1.4-1.2-11.4,4.7-11.4,4.7S444.3,394.2,447.7,399.3"/>
<path class="st20" d="M446.3,410.5L446.3,410.5h0.5c2.8-1.5,3.6-2,4-2.2c0.5-0.3,1-0.4,1.5-0.5l0,0c0,0,0.1-0.1,0.2-0.2
	c0.3-0.2,0.5-0.5,0.7-0.7c0.6-0.7,0.9-1.6,0.9-2.5c0-1-0.4-2-1-2.7c-3.7-5.5-4.4-16.1-4.4-16.2c0-0.3,0.2-0.7,0.5-0.9
	c0,0,3.4-2,6.6-3.5c-0.6-0.7-1.1-1.2-1.4-1.4h0c-0.8,0-3.6,1.1-6,2.4c-1.7,0.9-3.2,1.7-3.9,2.1c0.1,0.9,0.3,3,0.8,5.3
	c0.6,3.3,1.7,7.1,3.3,9.5l-0.8,0.5l0.8-0.5c0.8,1.1,1.2,2.4,1.3,3.8c0,1.3-0.5,2.7-1.3,3.7c-0.5,0.7-1.1,1.2-1.9,1.6
	c-1,0.3-0.8,0.2-1,0.3s-0.8,0.5-2.2,1.3C444.1,410.2,445.2,410.5,446.3,410.5 M441,410c-0.4-0.4-0.4-0.9,0-1.3
	c0.1-0.1,0.1-0.1,0.2-0.2c2.4-1.3,3-1.7,3.3-1.9c0.5-0.2,0.9-0.4,1.4-0.5l0,0l0.2-0.2c0.3-0.2,0.5-0.5,0.7-0.8
	c0.6-0.7,0.9-1.6,0.9-2.6c0-1-0.4-2-1-2.8c-3.7-5.5-4.4-16.2-4.4-16.3c0-0.3,0.1-0.7,0.5-0.9c0,0,2.1-1.2,4.5-2.5s5.1-2.6,6.8-2.6
	c0.4,0,0.8,0.1,1.2,0.4c0.5,0.4,1.4,1.3,2.5,2.6c0.3,0.4,0.3,1-0.1,1.3c-0.1,0.1-0.2,0.1-0.3,0.2c-2.4,1.1-4.7,2.3-7,3.6
	c0.1,0.9,0.3,3,0.8,5.3c0.6,3.2,1.7,7.1,3.3,9.4c0.8,1.1,1.3,2.4,1.3,3.8c0,1.3-0.5,2.6-1.3,3.7c-0.5,0.7-1.1,1.2-1.9,1.6
	c-1.1,0.4-0.8,0.2-1.1,0.4s-1.3,0.8-4.2,2.3l-0.2,0.1c-0.3,0.1-0.7,0.1-1,0.1l0,0C444.2,412.3,442.4,411.4,441,410L441,410z"/>
<path class="st18" d="M622.8,446.2L622.8,446.2z M625.8,446.6L625.8,446.6c0.9,0,2.6-0.5,5.3-2.4c1.4-1,2.9-1.8,4.5-2.3
	c-2.9,0.5-5.7,1.6-8.1,3.2c-0.7,0.5-1.5,1-2.3,1.4C625.4,446.6,625.6,446.6,625.8,446.6L625.8,446.6z M621.8,447
	c0,0-0.1-0.1-0.1-0.1c-0.1-0.2-0.2-0.5-0.2-0.8v-0.9l0.8-0.3c1.3-0.5,2.5-1.2,3.6-2c5.3-3.8,12.2-4.2,15.5-4.2c1.2,0,2,0.1,2,0.1
	l0.6,0l0.4,0.4c0,0,0.4,0.6,1,1.4l1.2,1.9l-2.2,0.1c-3.4,0.2-8.2,1.1-11.8,3.6c-2.9,2-5,2.8-6.8,2.8h-0.1
	C624.1,449.2,622.7,448.4,621.8,447L621.8,447z"/>
<path class="st18" d="M576.7,404L576.7,404l-0.6,1.1L576.7,404c0.2,0.1,0.4,0.2,0.6,0.2c0.8-0.1,1.5-0.6,2-1.2c1-1,1.9-2,2.7-3.2
	c2.4-3,5.4-5.6,8.8-7.5l-1.4-0.9c-3.3,1.8-8,4.7-10.7,8.4c-0.9,1.3-1.9,2.5-3.1,3.6L576.7,404 M575.3,406.3L575.3,406.3
	c-1-0.6-2-1-2.9-1.4l-2.6-1.2l2.6-1.2c1.1-0.5,2.7-2.2,4.1-4.2c3.4-4.5,8.8-7.6,12.3-9.5l0.7-0.4l0.6,0.5c0.7,0.5,2.2,1.4,3.8,2.4
	l1.9,1.2l-2,1.1c-3.2,1.7-7.4,4.5-9.9,7.9c-0.9,1.2-1.9,2.4-3,3.5c-1,1.1-2.3,1.8-3.8,1.9l0,0C576.5,406.8,575.9,406.6,575.3,406.3
	L575.3,406.3z"/>
<path class="st18" d="M540.3,391.6L540.3,391.6l0.1-0.6L540.3,391.6z M545.9,392.6L545.9,392.6c0.4,0,0.7,0.1,1.1,0.1
	c1.6-0.1,2.9-0.3,3.6-3.1c0.8-3.3,4.6-8.4,7.2-11.5l0.7-0.8c-1.2-0.3-2.2-0.6-2.9-0.8c-0.2,0.2-0.5,0.5-0.9,0.9
	c-0.8,0.9-1.8,2.1-2.8,3.5c-2,2.7-4,6-4.3,7.5c-0.3,1.6-1.1,3-2.4,4L545.9,392.6z M547,395.3c-0.5,0-1,0-1.4-0.1
	c-1.4-0.2-6.2-1.1-6.2-1.1c-0.8-0.2-1.5-0.7-2-1.3L535,390l3.5,0.6c0.7,0.1,1.4,0.2,1.9,0.3c0.3,0.1,0.7,0.1,1,0.1
	c1.6-0.1,2.9-0.3,3.7-3.1c0.8-3.3,4.6-8.5,7.2-11.6c0.6-0.8,1.4-1.5,2.2-2.2c0.3-0.2,0.6-0.3,1-0.3c0.2,0,0.5,0.1,0.7,0.2l0.2,0
	l0.8,0.2l2.6,0.7c2.1,0.5,4.1,1.2,6.1,1.9l-0.8,2.5c-1.6-0.4-3-0.8-3.8-1c-0.2,0.2-0.5,0.5-0.9,0.9c-0.8,0.9-1.8,2.1-2.8,3.5
	c-2,2.7-4,6-4.3,7.4c-0.4,3-2.9,5.1-5.9,5.2L547,395.3z"/>
<path class="st18" d="M604.4,422.5L604.4,422.5c1.4,0,2.7-0.7,3.5-1.8c2.6-3,7.3-5.5,10.8-7.1l-0.7-0.6c-1,0.4-2.8,1.2-4.9,2.2
	c-3.1,1.5-6.6,3.7-8.4,5.7c-0.4,0.5-0.9,1-1.5,1.3C603.6,422.5,604,422.5,604.4,422.5 M604.4,425.1c-1.4,0-2.8-0.4-3.9-1.1
	c-0.2-0.1-0.4-0.3-0.6-0.5c-0.2-0.2-0.3-0.4-0.3-0.4l-1.6-1.6l2.2-0.5c1-0.3,1.9-0.8,2.5-1.6c4.5-5.1,15-8.9,15-9l0.7-0.3l0.6,0.5
	c0,0,1.3,1.1,2.9,2.5l1.6,1.4l-2,0.8c-3.2,1.4-9.2,4.3-11.7,7.2C608.6,424.1,606.6,425.1,604.4,425.1L604.4,425.1z"/>
<path class="st18" d="M397,480.6L397,480.6l8-31.3v-0.2l0.1-0.1c0.4-0.6,0.6-1.3,0.6-2c0-0.9-0.3-1.9-2.3-3c-3.6-2.1-9-9.2-10.6-12
	c-0.3-0.4-0.4-0.9-0.5-1.4c0-0.4,0.2-0.7,0.5-1l0,0l0.1-0.2l0.5-0.8l1.7-2.5c0.9-1.2,1.8-2.5,2.6-3.6c-1.2-0.4-2.3-0.8-3.2-1.1
	c-0.2,0.2-0.4,0.4-0.6,0.6c-0.7,0.7-1.3,1.5-1.9,2.4c-1.4,1.9-2.7,4-3.4,5l0,0c0.2,0.3,0.4,0.7,0.7,1.2c0.7,1,1.6,2.3,2.7,3.6
	c2.1,2.6,4.8,5.4,6.1,6.1c0.8,0.5,1.3,1.3,1.5,2.3c0.2,1,0.3,2.1,0.3,3.1c0,8.6-4.2,25.9-5.8,31.1c-0.1,0.3-0.1,0.5-0.2,0.7
	L397,480.6z M390.9,478l0.5-0.9l0,0c0-0.1,0.1-0.2,0.1-0.2c0.1-0.2,0.2-0.5,0.3-0.9c0.2-0.7,0.5-1.7,0.8-2.8
	c0.6-2.3,1.4-5.4,2.1-8.7c1.5-6.6,2.8-14.3,2.8-18.8c0.1-1.1-0.1-2.1-0.5-3.1l0,0c-3.6-2.1-9-9.2-10.6-12c-0.3-0.4-0.4-0.9-0.5-1.4
	c0-0.4,0.2-0.7,0.4-1l0,0l0.2-0.2l0.6-0.8c0.5-0.7,1.1-1.6,1.8-2.6c1.2-1.9,2.6-3.6,4.2-5.1c0.4-0.4,1-0.6,1.6-0.6
	c0.3,0,0.5,0,0.7,0.2c1,0.5,2.9,1,5.3,2l1.9,0.8l-1.6,1.4c-1.6,1.3-4.7,6.1-5.8,7.8c0.2,0.3,0.4,0.7,0.7,1.2c0.7,1,1.6,2.3,2.7,3.6
	c2.1,2.6,4.7,5.4,6.1,6.1c2.6,1.4,3.7,3.5,3.6,5.3c0,1.1-0.3,2.2-0.8,3.1l-9.1,35.6L390.9,478z"/>
<path class="st18" d="M421,429.9L421,429.9c0.1,0,0.1,0,0.4-0.3c0.4-0.5,0.9-1,1.4-1.4c0,0,0.6-0.6,1.3-1.4c0.9-0.9,1.8-1.8,2.7-2.5
	c0.2-0.1,0.3-0.4,0.3-0.7c0.1-0.9-1.4-3.2-3-5.3c-3.5-4.4-5.1-10.4-5.8-14l-0.2-0.8l0.7-0.5c1.1-0.7,3.7-2.8,5.9-4.4
	c-0.7-0.5-1.4-0.9-2.1-1.4l-0.8,0.5c-0.8,0.5-1.7,1.2-2.7,2c-1.6,1.2-3.4,2.6-4.5,3.4c0.8,3.5,2.4,8.6,5.2,12.2
	c1.6,2.2,3.5,4.4,3.6,6.9c0,1.1-0.5,2.1-1.3,2.7l-0.8-1l0.8,1c-0.9,0.7-1.7,1.5-2.5,2.3c-0.5,0.6-0.9,1-1.2,1.3
	C420,429.7,420.9,430,421,429.9 M421,432.6c-1.5-0.1-2.9-0.9-5.4-2.9l-1.1-0.9l1-1c0.3-0.3,0.6-0.6,1-1l0,0l0,0c0,0,0,0,0.1-0.1
	c0.1-0.1,0.2-0.2,0.3-0.3l0.9-0.9c0.9-0.9,1.8-1.8,2.7-2.5c0.2-0.2,0.3-0.4,0.3-0.7c0.1-0.9-1.4-3.2-3-5.2
	c-3.5-4.5-5.1-10.4-5.9-14.1l-0.2-0.9l0.7-0.5c1.7-1.2,7-5.4,9.1-6.6c0.4-0.2,0.8-0.4,1.2-0.4c0.3,0,0.5,0.1,0.7,0.2
	c1.5,0.9,2.9,1.9,4.3,2.9l1.4,1.1l-1.5,1c-2,1.4-5,3.7-6.7,5c0.8,3.5,2.3,8.6,5.2,12.1c1.6,2.2,3.5,4.4,3.6,6.9
	c0,1.1-0.5,2.1-1.3,2.7c-0.9,0.7-1.7,1.5-2.5,2.3c-0.7,0.7-1.1,1.2-1.5,1.6c-0.4,0.4-0.8,0.8-1.2,1.2
	C422.7,432.2,421.9,432.6,421,432.6L421,432.6z"/>
<path class="st18" d="M517.5,373.1L517.5,373.1c-1.1,2.5-2.2,5.7-2.2,8.1c0,0.3,0,0.5,0,0.8c0.1,0.5,0.1,1.1,0.1,1.6
	c0,3.1-1.3,5.2-2.9,6.1l-0.3,0.2c1,0,2,0,2.3-0.1c0.8,0,1.6-0.2,2.4-0.6c0.8-0.5,1.6-1.4,1.6-3.9c0-0.4,0-0.9-0.1-1.3
	c0-0.4-0.1-0.7-0.1-1.1c0-5.2,3.6-11.5,4.6-13.3l-3.6-0.2C518.9,370.1,518.2,371.4,517.5,373.1 M508,392.3c-1.5-0.2-2.8-0.9-3.9-1.9
	l-2.2-2.2h3.1c1.5,0,3.2-0.1,3.7-0.1l0.1,1.3l-0.1-1.3c0.8,0,1.7-0.2,2.4-0.6c0.8-0.5,1.6-1.4,1.6-3.9c0-0.4,0-0.9-0.1-1.3
	c0-0.4-0.1-0.7,0-1.1c0.1-6.1,4.9-13.8,4.9-13.9l0.4-0.7l14.4,0.9l0.4,0.4l0.5,0.6l0.1,0.3c0.1,0.4,0.2,0.7,0.2,1l0.5,1.8l-8.9-0.6
	c-0.4,0.8-1.1,2.1-1.9,3.7c-1.1,2.5-2.2,5.7-2.2,8c0,0.3,0,0.5,0,0.8c0,0.5,0.1,1.1,0.1,1.6c0,3.1-1.3,5.1-2.8,6.1
	c-1.1,0.6-2.3,1-3.5,1c-0.7,0.1-2.5,0.1-4.2,0.1C509.8,392.4,508.9,392.4,508,392.3L508,392.3z"/>
<path class="st18" d="M470.5,396.6l-1.2-1.6l2-0.4c2-0.4,4.5-1.1,5.2-1.2c0.4-0.1,0.8-0.2,1.1-0.5c0.3-0.3,0.6-0.6,0.7-1.9
	c-0.1-1.5-0.4-2.9-1-4.2l1.2-0.5l1.2-0.5c0.7,1.6,1,3.4,1.1,5.1c0.1,1.5-0.5,3-1.6,4c-0.6,0.5-1.4,0.9-2.2,1l-2.5,0.6
	c0.2,0.1,0.5,0.1,0.7,0.1h0.1c0.8,0,6.2-1.4,7.1-1.6c0.4-0.1,0.8-0.2,1.1-0.5c0.3-0.3,0.6-0.6,0.7-1.9c-0.1-1.5-0.4-2.9-1-4.2
	c-0.8-2.1-1.1-4.4-1.1-6.7c0.1-3.6,0.8-7.2,2.1-10.6l0.3-0.6l0.6-0.2c0,0,2.1-0.5,4.5-1.1l-0.2-0.2c-1.8,0.2-3.6,0.6-5.4,1
	c-1.5,0.3-2.9,0.7-3.6,0.9c-0.2,0.5-0.5,1.3-0.7,2.3c-0.6,2.2-1,4.5-1,6.8c0,1.9,0.3,3.9,0.9,5.7l-1.2,0.5l-1.2,0.5
	c-0.8-2.1-1.1-4.4-1.1-6.6c0.1-3.7,0.8-7.3,2.1-10.6l0.3-0.6l0.6-0.2c0.1,0,7.9-2.1,10.5-2.1c0.4,0,0.8,0.1,1.2,0.3h0.1l0,0
	c0.8,0.7,1.6,1.6,2.2,2.5l1.1,1.6l-1.9,0.4c-2.2,0.5-4.7,1.1-5.8,1.4c-0.2,0.5-0.5,1.2-0.7,2.2c-0.6,2.2-1,4.5-1,6.7
	c0,1.9,0.3,3.8,0.9,5.6c0.7,1.6,1,3.4,1.1,5.1c0.1,1.5-0.5,2.9-1.6,3.9c-0.6,0.5-1.4,0.8-2.1,1c-1,0.3-6.1,1.5-7.5,1.7h-0.2
	C473.4,399,471.6,398,470.5,396.6"/>
<path class="st18" d="M446.3,410.1L446.3,410.1h0.4c4.2-2.2,3.7-2.2,4.6-2.5l0.8-0.2l0.2-0.1c0.2-0.2,0.5-0.4,0.6-0.7
	c0.5-0.7,0.8-1.5,0.9-2.3c0-0.9-0.4-1.8-0.9-2.5c-3.8-5.7-4.4-16.3-4.5-16.4l-0.1-0.8l0.7-0.4c0,0,3.1-1.8,6.1-3.3
	c-0.4-0.4-0.7-0.7-0.9-0.9c-2,0.5-3.9,1.3-5.7,2.3c-1.5,0.8-2.9,1.5-3.7,2c0.1,1,0.3,2.9,0.7,5c0.6,3.2,1.7,7.1,3.2,9.3l-1.1,0.7
	l1.1-0.7c0.8,1.2,1.3,2.6,1.3,4c-0.1,2-0.9,3.8-2.4,5c-0.3,0.3-0.6,0.5-1,0.6l-0.7,0.2h-0.1h-0.1c-0.2,0.1-0.6,0.4-1.6,1
	C444.8,409.8,445.5,410,446.3,410.1 M440.8,410.2l-1.2-1.2l1.5-0.8c1.8-0.9,2.6-1.4,3-1.6c0.3-0.2,0.6-0.4,1-0.5l0.8-0.2
	c0.1,0,0.1-0.1,0.2-0.2c0.2-0.2,0.5-0.4,0.7-0.7c0.5-0.7,0.8-1.5,0.9-2.4c0-0.9-0.3-1.8-0.9-2.6l0,0c-3.8-5.7-4.4-16.3-4.5-16.4
	l-0.1-0.8l0.7-0.4c0,0,2.1-1.2,4.5-2.5s5-2.5,7-2.6c0.5,0,1,0.1,1.4,0.5c0.9,0.8,1.7,1.7,2.5,2.6l1.2,1.4l-1.7,0.7
	c-2.3,1-4.6,2.2-6.8,3.5c0.1,1,0.3,2.9,0.7,5c0.6,3.2,1.7,7,3.2,9.3c0.9,1.2,1.3,2.6,1.4,4c0,1.9-0.9,3.8-2.4,5
	c-0.3,0.3-0.6,0.5-1,0.6c-0.5,0.2-0.8,0.2-0.9,0.2l0,0L452,410c-0.4,0.2-1.3,0.8-4.2,2.3l-0.1,0.1h-0.2c-0.3,0.1-0.7,0.1-1.1,0.1h0
	C444.3,412.6,442.2,411.7,440.8,410.2L440.8,410.2z"/>
<polygon class="st19" points="538.4,370.7 532,368.4 534.4,370.8 "/>
<polygon class="st20" points="531.3,369.1 532.3,367.5 538.7,369.8 538.4,370.7 538.7,369.8 538.4,371.6 534.1,371.7 "/>
<g>
	<defs>
		<path id="SVGID_00000176026191489743541460000013375676808026675891_" d="M516.8,476.4l97,7.8c-0.4-0.9,24.1-14.9,23.9-15.8
			c-0.4-2.6,1.2-5.1,3.8-5.7c4.1-1.2,12.6-8.6,14-11.7c0.2-0.9-5.4-9-5.4-9s-9.9-0.8-16.7,3.9c-6.7,4.7-8.4,1.7-9,0.9
			s-3.6-5.1-4-6.1s-0.8-3.7,2.9-5.9c4-2.4,9.3-10.8,10-12.4c0.7-1.6-8.5-8.9-8.5-8.9s-10.5,3.9-14.5,8.5c-2,2.5-5.6,2.9-8.2,1
			c-1.2-1.6,0.5,0.2-4.5-4.1c0,0-2-3.1,1.4-6.9c3.4-3.8,5.8-8.5,7-13.4c0.1-0.6-7.7-5.2-9.9-6.7c-3.4,1.8-8.7,4.9-11.8,9.1
			c-2.2,2.9-4.7,5.9-7,4.5c-1.7-0.9-3.4-1.7-5.2-2.4c-2.5-1.5-5-0.2-0.8-8.8c2.8-5.9,1.9-10.6,2.3-13c0.2-1.5-11-3.9-11.5-4.2
			s-8.3,9.1-9.1,13c-1,4.2-4.2,4.4-6.2,4.1l-6.2-1c0,0-3.2-0.9-1.9-5.5c0.8-2.8,2.2-7.8,0-16.5l-0.3-0.4l-13-0.8
			c0,0-5.3,8.6-4.6,14.1c0.8,7.1-4.1,7.2-5.2,7.3c-2.2,0.1-4.4,0.1-6.5,0c-2.6-0.4-4.6-2.6-4.6-5.2c0-4.1-4.9-14.1-7.6-16.3
			c-0.8-0.5-10.6,2-10.6,2s-3.8,8.7-1,16.2s-0.9,8.2-1.8,8.4s-6.3,1.6-7.3,1.6s-4-0.4-5.1-4.4c-1.2-4.4-8.1-11.8-9.6-13
			s-11.4,4.8-11.4,4.8s0.8,10.7,4.2,15.8c1.8,2.3,1.3,5.6-1,7.4c-0.1,0.1-0.3,0.2-0.4,0.3c-1.8,1.1,0.4-0.3-5.5,2.8
			c0,0-3.6,0.8-6.5-3.5c-3-4.3-6.9-8-11.5-10.5c-0.6-0.3-7.5,5.3-9.6,6.7c0.8,3.6,2.3,9.4,5.6,13.5c2.3,2.9,4.5,6.1,2.5,7.8
			c-1.4,1.2-2.7,2.5-4,3.9c-2.2,1.8-1.7,4.4-9-2.1c-5.1-4.4-10.1-5.1-12.4-6.2c-1.5-0.7-7.1,8.7-7.6,9s6.7,10.4,10.4,12.4
			c4,2.2-6.3,38-7.2,39.6L516.8,476.4z"/>
	</defs>
	<clipPath id="SVGID_00000136384169580529631420000004260950397293521818_">
		<use xlink:href="#SVGID_00000176026191489743541460000013375676808026675891_"  style="overflow:visible;"/>
	</clipPath>
	<g style="clip-path:url(#SVGID_00000136384169580529631420000004260950397293521818_);">
		
			<linearGradient id="SVGID_00000072261509743428339340000006199745705804696710_" gradientUnits="userSpaceOnUse" x1="461.0893" y1="242.901" x2="589.1393" y2="332.581" gradientTransform="matrix(1 0 0 -1 0 714.48)">
			<stop  offset="0" style="stop-color:#27302D"/>
			<stop  offset="0.17" style="stop-color:#7B7A78"/>
			<stop  offset="0.31" style="stop-color:#FFFFFF"/>
			<stop  offset="0.41" style="stop-color:#D7D8DA"/>
			<stop  offset="0.51" style="stop-color:#B2B4B7"/>
			<stop  offset="0.58" style="stop-color:#D6D7D9"/>
			<stop  offset="0.71" style="stop-color:#FFFFFF"/>
			<stop  offset="0.86" style="stop-color:#737471"/>
			<stop  offset="0.98" style="stop-color:#192724"/>
			<stop  offset="1" style="stop-color:#192724"/>
		</linearGradient>
		
			<rect x="394.5" y="369.3" style="fill:url(#SVGID_00000072261509743428339340000006199745705804696710_);" width="261.3" height="114.9"/>
	</g>
</g>
<path class="st20" d="M516.9,475.6L516.9,475.6l96.6,7.7c0.1-0.1,0.3-0.3,0.5-0.4c0.4-0.3,0.9-0.7,1.6-1.1c1.3-0.9,3.1-2,5.1-3.3
	c4-2.5,8.9-5.5,12.4-7.7c1.9-1.2,3.5-2.3,4-2.7c0-0.1,0-0.3,0-0.5c0-2.7,1.8-5.1,4.4-5.7c3.6-1,11.9-8.2,13.4-11
	c0-0.1-0.1-0.2-0.1-0.3c-0.1-0.3-0.3-0.7-0.6-1.1c-0.5-0.9-1.2-1.9-1.8-3c-1-1.6-2-3-2.5-3.7c-0.3,0-0.7,0-1.3,0
	c-3.1,0-9.7,0.5-14.4,3.8c-2.9,2-4.9,2.7-6.5,2.7c-1.5,0-2.9-0.8-3.6-2.1c-0.5-0.8-3.5-5.1-4.1-6.2c-0.2-0.5-0.3-1.1-0.3-1.7
	c0-1.5,0.8-3.6,3.5-5.2c3.6-2,8.9-10.3,9.7-12c0,0,0-0.1,0-0.1c-0.1-0.1-0.1-0.3-0.2-0.4c-0.3-0.4-0.6-0.8-0.9-1.1
	c-0.9-1-1.9-1.9-2.9-2.8c-1.6-1.4-3.1-2.7-3.8-3.3c-0.9,0.3-2.9,1.2-5.2,2.3c-3.1,1.5-6.6,3.7-8.5,5.8c-1.3,1.6-3.1,2.5-5.1,2.5
	c-1,0-1.9-0.2-2.8-0.6c-0.6-0.2-1.1-0.5-1.5-0.9c-0.7-0.9-0.5-0.7-0.7-0.9s-1.2-0.9-3.7-3.1l-0.2-0.2c-0.5-0.9-0.7-1.8-0.7-2.8
	c0.1-1.9,0.8-3.7,2.1-5.1c3.2-3.7,5.5-8,6.6-12.8c-0.2-0.2-0.5-0.4-0.8-0.6c-0.7-0.5-1.8-1.2-2.9-1.9c-2-1.2-4.1-2.6-5.3-3.4
	c-3.3,1.8-8.2,4.8-11.1,8.6c-1.9,2.4-3.8,5.1-6.5,5.2c-0.6,0-1.1-0.2-1.6-0.5c-2.3-1.3-4.5-2-5.2-2.4s-1.3-0.6-2-0.9
	c-0.9-0.4-1.4-1.3-1.4-2.3c0-1.4,0.7-3.3,2.3-6.6c2.7-5.5,1.9-9.9,2.2-12.6l0,0c-0.3-0.2-0.5-0.3-0.8-0.5c-1-0.4-2-0.8-3-1.1
	c-2.4-0.7-5.1-1.4-6.3-1.7l-0.4-0.1l-0.1,0.1c-0.2,0.2-0.6,0.6-1,1c-0.8,0.9-1.8,2.2-2.8,3.5c-2,2.7-4.1,6-4.4,7.6
	c-0.4,2.8-2.9,4.9-5.7,4.8c-0.5,0-0.9,0-1.4-0.1c-1.4-0.2-6.2-1-6.2-1h-0.1c-1.8-0.6-2.9-2.4-2.8-4.3c0-0.8,0.1-1.5,0.3-2.2
	c0.7-2.5,1.1-5,1.1-7.6c0-2.8-0.4-5.6-1.1-8.2l-12.2-0.7c-0.4,0.7-1.2,2.2-2,4c-1.2,2.5-2.3,5.8-2.3,8.3c0,0.3,0,0.6,0,0.9
	c0.1,0.5,0.1,1,0.1,1.5c0,3-1.2,4.8-2.6,5.7c-1,0.6-2.2,0.9-3.4,0.9c-0.7,0.1-2.5,0.1-4.1,0.1c-1.1,0-2.1,0-2.6-0.1
	c-1.1-0.2-2.1-0.6-3-1.3c-1.5-1.1-2.3-2.9-2.3-4.8c0.1-3.5-4.7-13.4-7.1-15.5l0,0c-1.9,0.2-3.8,0.5-5.7,1c-1.7,0.4-3.2,0.8-3.9,0.9
	c-1.2,3-1.8,6.2-1.8,9.4c0,2,0.3,4,1,5.8c0.6,1.6,1,3.3,1.1,5c0.1,1.4-0.4,2.7-1.4,3.6c-0.6,0.4-1.3,0.7-2,0.9
	c-1,0.2-6.2,1.5-7.5,1.7h-0.3c-1.5,0-4.5-0.9-5.6-5c-1-3.9-7.8-11.4-9.2-12.6h-0.1c-0.9,0-3.7,1.1-6,2.4c-1.7,0.9-3.2,1.8-4,2.2
	c0.1,0.9,0.3,3,0.8,5.4c0.6,3.2,1.7,7.1,3.3,9.5c0.8,1.1,1.2,2.4,1.3,3.7c-0.1,2.1-1.2,4-2.9,5.1c-0.4,0.3-0.9,0.6-1.4,0.7
	c-0.4,0.2-1.3,0.6-4.2,2.1l-0.2,0.1c-0.3,0.1-0.6,0.1-0.9,0.1c-1.4,0-4.2-0.5-6.4-3.9c-2.8-4.2-6.6-7.6-10.9-10.1l-0.1,0.1
	c-0.2,0.1-0.6,0.3-0.9,0.6c-0.8,0.5-1.7,1.2-2.7,2c-1.8,1.3-3.6,2.8-4.8,3.6c0.8,3.5,2.4,8.9,5.4,12.7c1.7,2.1,3.4,4.4,3.5,6.6
	c0,0.9-0.4,1.8-1.1,2.3c-1.4,1.2-2.7,2.5-4,3.9c-0.4,0.4-0.9,0.8-1.3,1.3c-0.5,0.6-1.2,0.9-1.9,0.9c-1.6-0.1-3.3-1.2-6.9-4.4
	c-4.8-4.2-9.5-4.9-12.1-6l-0.2,0.1c-0.3,0.2-0.5,0.4-0.8,0.7c-0.7,0.8-1.4,1.6-2,2.4c-1.4,1.9-2.8,4-3.5,5l-0.2,0.2l0.1,0.2
	c0.2,0.3,0.5,0.8,0.8,1.3c0.7,1,1.6,2.3,2.7,3.7c2.1,2.7,4.8,5.5,6.3,6.3c1.2,0.8,1.3,2.2,1.3,4.1c0,7.3-4.2,23.3-6.6,31.5
	c-0.5,1.6-0.9,2.9-1.2,3.8L516.9,475.6L516.9,475.6z M613.8,485l-97-7.8l-118.6,6c-0.3,0-0.6-0.1-0.7-0.4c-0.2-0.3-0.2-0.6,0-0.8
	c0.1-0.1,0.8-2.1,1.5-4.8s1.8-6.3,2.8-10.2c1.9-7.7,3.8-16.4,3.8-20.9c0-0.7,0-1.3-0.2-2c-0.1-0.5-0.3-0.6-0.3-0.6
	c-3.5-2-9-9.2-10.5-11.9c-0.2-0.3-0.4-0.7-0.4-1.1c0-0.3,0.1-0.5,0.3-0.7l0,0l0.1-0.2l0.5-0.6c0.4-0.5,0.9-1.2,1.4-2
	c1.1-1.7,2.3-3.2,3.6-4.8c0.8-0.8,1.4-1.5,2.4-1.6c0.2,0,0.4,0,0.5,0.1c2,1,7.4,1.8,12.6,6.4c3.5,3.1,5.3,4,5.8,3.9
	c0.3,0,0.4-0.1,0.8-0.4c0.4-0.5,0.9-1,1.4-1.4c1.3-1.4,2.6-2.7,4-3.9c0.3-0.2,0.5-0.6,0.5-1.1c0.1-1.2-1.5-3.5-3.1-5.6
	c-3.4-4.4-5-10.2-5.8-13.9c-0.1-0.3,0.1-0.6,0.3-0.8c1.5-1,5.6-4.3,8-5.9c0.6-0.5,1.3-0.8,2-1c0.2,0,0.3,0,0.5,0.1
	c4.7,2.7,8.7,6.4,11.7,10.8c1.9,2.8,4,3.1,5.1,3.1c0.2,0,0.3,0,0.5,0c2.9-1.5,3.8-1.9,4.2-2.1c0.4-0.1,0.8-0.4,1.1-0.6
	c1.2-0.9,2-2.2,2.1-3.7c0-1-0.4-2-1-2.8c-3.7-5.5-4.4-16.1-4.4-16.2c0-0.3,0.1-0.6,0.4-0.8c0,0,2.1-1.2,4.5-2.5s5-2.5,6.7-2.6
	c0.4,0,0.8,0.1,1.1,0.4c1.5,1.4,8.4,8.6,9.8,13.4c1,3.4,3.1,3.8,4.1,3.8h0.1c0.9-0.1,6.3-1.4,7.2-1.6c0.5-0.1,0.9-0.3,1.3-0.6
	c0.6-0.6,0.9-1.5,0.9-2.3c-0.1-1.5-0.4-3-1-4.4c-0.7-2.1-1.1-4.2-1.1-6.4c0.1-3.6,0.8-7.1,2.1-10.4c0.1-0.2,0.3-0.4,0.5-0.5
	c0.1,0,8-2.1,10.4-2.1c0.3,0,0.6,0.1,0.8,0.2l0.1,0.1c3,2.6,7.8,12.3,7.9,16.9c0,1.4,0.6,2.6,1.6,3.5c0.7,0.5,1.4,0.8,2.2,1
	c0.2,0,1.3,0.1,2.4,0.1c1.6,0,3.5,0,4-0.1c0.9,0,1.8-0.3,2.6-0.7c1-0.6,1.8-1.7,1.9-4.3c0-0.5,0-0.9-0.1-1.4c0-0.4-0.1-0.7-0.1-1.1
	c0-5.9,4.8-13.5,4.8-13.5c0.2-0.3,0.4-0.4,0.7-0.4l13.1,0.8c0.2,0,0.5,0.1,0.6,0.3l0.3,0.4l0.2,0.3c0.8,2.9,1.2,5.8,1.2,8.8
	c0,2.7-0.4,5.4-1.2,8.1c-0.2,0.6-0.3,1.2-0.3,1.8c-0.1,1.1,0.4,2.1,1.4,2.6l0.2,0.1c0.5,0.1,4.9,0.8,6.1,1c0.4,0.1,0.8,0.1,1.1,0.1
	c1.7-0.1,3.4-0.5,4.1-3.5c0.9-3.8,6.6-11,8.7-13c0.4-0.3,0.4-0.5,1.2-0.6c0.2,0,0.3,0,0.5,0.1l0,0l0.3,0.1l1.1,0.3
	c0.9,0.2,2.1,0.5,3.3,0.9c2.2,0.5,4.4,1.3,6.4,2.3c0.5,0.3,0.8,0.7,0.8,1.3v0.1v0.1c-0.4,2.1,0.5,7.2-2.4,13.2
	c-1.6,3.3-2.2,5.1-2.2,5.9c0,0.6,0.1,0.6,0.5,0.8c0.4,0.3,1.2,0.5,2.1,1c1.8,0.7,3.5,1.5,5.2,2.4c0.2,0.1,0.5,0.2,0.8,0.2
	c1.3,0.1,3.4-2.1,5.1-4.6c3.3-4.4,8.7-7.5,12.1-9.3c0.3-0.1,0.6-0.1,0.8,0.1c1.8,1.2,7.9,4.9,9.6,6.3c0.2,0.3,0.5,0.3,0.6,1
	c0,0.1,0,0.1,0,0.2c-1.2,5.1-3.7,9.9-7.2,13.8c-1.1,1.1-1.7,2.5-1.7,4c0,0.6,0.1,1.3,0.4,1.8l0,0c2.4,2.1,3.2,2.7,3.5,3
	c0.4,0.3,0.7,0.7,1,1.2l0,0c0.1,0,0.1,0.1,0.2,0.1c0.2,0.1,0.4,0.2,0.7,0.3c0.7,0.3,1.4,0.4,2.2,0.5c1.5,0,3-0.7,3.9-1.9
	c4.3-5,14.8-8.7,14.8-8.8c0.3-0.1,0.6-0.1,0.8,0.1c2.6,2,5,4.2,7.3,6.6c0.8,0.7,1.3,1.7,1.5,2.7c0,0.2,0,0.4-0.1,0.6
	c-0.9,1.8-6,10.1-10.4,12.8c-2.3,1.4-2.7,2.8-2.7,3.8c0,0.3,0.1,0.7,0.2,1c0.3,0.7,3.4,5.2,3.9,6c0.4,0.8,1.3,1.4,2.2,1.3
	c1.1,0,2.9-0.5,5.6-2.4c5.2-3.7,12.1-4.1,15.4-4.1c1.1,0,1.8,0.1,1.8,0.1c0.2,0,0.5,0.2,0.6,0.4c0,0,3.1,4.4,4.6,7.1
	c0.5,0.7,0.8,1.5,1,2.3c0,0.1,0,0.1,0,0.2l-0.1,0.2c-1.7,3.5-10,10.6-14.5,12.1c-2,0.4-3.3,2.2-3.3,4.2c0,0.2,0,0.4,0,0.6
	c0,0.2,0,0.3-0.1,0.5c-0.1,0.3-0.2,0.3-0.3,0.5c-0.1,0.1-0.3,0.2-0.5,0.4c-0.4,0.3-0.9,0.7-1.6,1.1c-1.3,0.9-3.1,2-5.1,3.2
	c-4,2.5-8.9,5.5-12.4,7.7c-1.4,0.9-2.8,1.8-4,2.8c0,0.1-0.1,0.1-0.1,0.2c-0.1,0.2-0.4,0.4-0.7,0.4L613.8,485z"/>
<path class="st23" d="M466.1,479.2c14.4-26.5,47.6-36.2,74.1-21.8c13.2,7.2,22.9,19.5,26.7,34.1"/>
<path d="M563.1,492.5c-7.1-27-34.8-43.2-61.8-36.1c-13.5,3.5-24.9,12.5-31.6,24.7c-0.9,2-3.2,3-5.3,2.1c-2-0.9-3-3.2-2.1-5.3
	c0.1-0.2,0.2-0.4,0.3-0.6c15.5-28.4,51.1-38.9,79.5-23.4c14.2,7.7,24.6,21,28.7,36.6c0.5,2.1-0.7,4.3-2.8,4.9
	c-0.3,0.1-0.7,0.1-1,0.1C565.1,495.5,563.5,494.3,563.1,492.5"/>
<path class="st23" d="M467,478.7c12.8-23.4,42.1-32.1,65.5-19.3c11.7,6.4,20.3,17.3,23.6,30.2"/>
<path d="M553.9,490.1c-6.5-24.6-31.7-39.2-56.2-32.7c-12.2,3.2-22.5,11.3-28.6,22.4l0,0c-0.6,1.1-2.1,1.6-3.2,0.9
	c-1.1-0.6-1.6-2.1-0.9-3.2c13.4-24.6,44.2-33.7,68.8-20.3c12.3,6.7,21.2,18.1,24.8,31.6c0.3,1.3-0.4,2.6-1.7,2.9c0,0,0,0,0,0
	c-0.2,0.1-0.4,0.1-0.6,0.1C555.1,491.9,554.1,491.2,553.9,490.1"/>
<path class="st16" d="M541.8,460c9,4.8,26,28.5,27.1,32.7s-8,2.8-8,2.8l-4.5-1.4c0,0-3.2-20-15.5-30.1S541.7,460,541.8,460"/>
<path d="M564,494.9L564,494.9c1,0,2.1-0.1,3.1-0.4c0.8-0.3,1.1-0.6,1.1-1.1c0-0.2,0-0.3-0.1-0.5c-0.4-1.7-5-8.8-10.5-15.8
	c-5.5-7-12-14.1-16.3-16.4c-0.2-0.1-1.1-0.5-2.1-0.9c-0.8-0.3-1.6-0.6-2.5-0.8c0.1,0.2,0.3,0.4,0.6,0.7c1.3,1.3,2.6,2.5,4,3.6
	c11.5,9.5,15.2,26.9,15.8,30.1l3.9,1.3C562,494.8,563,494.9,564,494.9 M560.8,496.3h-0.1l-4.4-1.5c-0.3-0.1-0.5-0.3-0.6-0.6
	c-0.7-3.8-1.7-7.5-3.1-11.1c-2.3-6.2-6.2-13.6-12.2-18.5c-1.5-1.2-2.9-2.4-4.2-3.8c-0.9-1-1.3-1.5-1.4-2.3c0-0.4,0.2-0.8,0.6-1
	c0.3-0.1,0.6-0.2,0.8-0.2c2,0,5.8,1.9,5.9,1.9l-0.3,0.7l0.4-0.7c4.8,2.6,11.2,9.7,16.8,16.8s10.1,13.9,10.8,16.4
	c0.1,0.3,0.1,0.6,0.1,0.9c0,1.3-0.9,2.4-2.2,2.7c-1.2,0.4-2.4,0.5-3.6,0.5C563,496.5,561.9,496.5,560.8,496.3L560.8,496.3z"/>
<path class="st24" d="M465.1,487c9.6-21.6,28.4-35.6,48.4-33.5c20.6,2.1,36.4,20.7,40.8,44.8L465.1,487z"/>
<path d="M550.8,495.3L550.8,495.3c-5.1-21.5-19.6-37.2-37.7-39.1c-1.2-0.1-2.4-0.2-3.7-0.2c-16.1,0-31.5,11.2-40.4,28.9L550.8,495.3
	z M553.8,501l-89.1-11.3l0.3-2.6l2.4,1.1l-2.4-1.1l-0.3,2.6c-1.5-0.2-2.5-1.5-2.3-3c0-0.3,0.1-0.5,0.2-0.7
	c9.3-20.9,27-35.3,46.8-35.3c1.4,0,2.8,0.1,4.2,0.2c22.1,2.4,38.6,22,43.1,47c0.3,1.4-0.7,2.8-2.1,3.1c-0.2,0-0.3,0-0.5,0L553.8,501
	z"/>
<polygon class="st25" points="873,370.2 870.9,371.1 852.7,378.3 851.1,366.1 "/>
<polygon class="st25" points="736.9,397.3 724.8,413.8 738.4,414 "/>
<polygon class="st25" points="342.7,298.1 330.7,314.5 346.1,314.9 "/>
<polygon class="st25" points="156.5,298.2 144.4,314.6 159.8,315.1 "/>
<path class="st25" d="M330.6,314.4h55.1V456c0,29.6-7.7,49.1-23.2,58.7c-15.5,9.5-47.2,14.3-95.1,14.3c-50.6,0-83.7-4.5-99.4-13.5
	s-23.6-28.1-23.6-57.2V314.4h55.1v143.8c0,15.7,3.8,25.6,11.4,29.8s25.6,6.3,53.9,6.3c29,0,47.2-2.1,54.7-6.4
	c7.4-4.2,11.1-14.7,11.1-31.3V314.4z"/>
<g>
	<defs>
		<path id="SVGID_00000168816676488619208270000000937303652781104787_" d="M346.9,302.2H402v141.6c0,29.6-7.8,49.1-23.3,58.7
			c-15.5,9.5-47.2,14.3-95.1,14.3c-50.6,0-83.7-4.5-99.4-13.5c-15.7-9-23.6-28.1-23.6-57.2V302.2h55.1V446
			c0,15.7,3.8,25.6,11.5,29.8s25.6,6.3,53.9,6.3c29,0,47.2-2.1,54.7-6.4s11.2-14.7,11.1-31.3L346.9,302.2z"/>
	</defs>
	<clipPath id="SVGID_00000012454431691836446350000018219237792785030820_">
		<use xlink:href="#SVGID_00000168816676488619208270000000937303652781104787_"  style="overflow:visible;"/>
	</clipPath>
	<g style="clip-path:url(#SVGID_00000012454431691836446350000018219237792785030820_);">
		
			<linearGradient id="SVGID_00000178890809424561083370000006701273703520475018_" gradientUnits="userSpaceOnUse" x1="160.61" y1="305.075" x2="401.98" y2="305.075" gradientTransform="matrix(1 0 0 -1 0 714.48)">
			<stop  offset="0" style="stop-color:#005287"/>
			<stop  offset="1" style="stop-color:#00ADEE"/>
		</linearGradient>
		
			<rect x="160.6" y="302.2" style="fill:url(#SVGID_00000178890809424561083370000006701273703520475018_);" width="241.4" height="214.5"/>
	</g>
</g>
<path class="st28" d="M164.8,446L164.8,446c0,14.1,1.9,25.7,5.6,34.5c3.6,8.8,8.9,15,15.9,19s18.9,7.4,35.1,9.6s37.1,3.3,62.2,3.3
	c23.8,0,43.5-1.2,59.1-3.5c15.5-2.3,26.9-5.9,33.8-10.2s12.1-10.7,15.8-19.8s5.5-20.9,5.5-35.3V306.3h-46.7v138.1
	c0,8.6-0.9,15.8-3,21.6s-5.4,10.5-10.2,13.2c-4.8,2.7-11.4,4.2-20.8,5.3c-11.9,1.2-23.9,1.8-35.9,1.6c-11.8,0.1-23.5-0.4-35.2-1.6
	c-9.2-1.1-16-2.6-20.7-5.2s-8.4-7.1-10.5-12.8c-2.2-5.6-3.1-12.5-3.1-20.7V306.3h-46.8V446z M220.3,517.4
	c-16.8-2.3-29.4-5.7-38.2-10.7c-8.7-5-15.3-12.9-19.5-23.1s-6.2-22.8-6.2-37.7V298h63.5v148c0,7.5,0.9,13.4,2.6,17.7
	c1.6,4.3,3.9,6.8,6.7,8.4c2.8,1.6,9,3.2,17.7,4.2c11.4,1.1,22.8,1.7,34.2,1.5c11.7,0.1,23.3-0.4,34.9-1.6c8.8-1,14.9-2.6,17.6-4.2
	c2.7-1.6,4.9-4.2,6.5-8.8s2.5-10.9,2.5-18.8V298h63.5v145.7c0,15.2-2,27.9-6.1,38.4s-10.5,18.6-19.1,23.8s-20.8,8.9-37,11.3
	c-16.2,2.5-36.2,3.6-60.3,3.6C258.2,520.8,237.1,519.7,220.3,517.4z"/>
<path class="st25" d="M496.1,347.3L496.1,347.3c-37,0-58.6,3.5-64.8,10.4s-9.4,31-9.4,72.2c0,30.5,3.6,48.9,11,55.1
	s28.8,9.3,64.5,9.3c34.2,0,54.6-3.5,61.4-10.5c6.8-7,10.2-28.2,10.2-63.8c0-35.6-3.2-56.6-9.7-63.1
	C552.9,350.5,531.8,347.3,496.1,347.3 M500.4,312.6c52.8,0,86.7,6.4,101.9,19.2s22.8,41.5,22.8,86c0,48.7-7.6,79.4-22.9,92
	s-52.2,19-110.7,19c-52.8,0-86.9-6.3-102.3-18.8c-15.5-12.5-23.2-40.1-23.2-82.6c0-50.7,7.6-82.5,22.8-95.5
	C403.9,319.2,441.1,312.7,500.4,312.6L500.4,312.6z"/>
<g>
	<defs>
		<path id="SVGID_00000101816434451166311580000011243842281398032794_" d="M512.4,335L512.4,335c-37,0-58.6,3.5-64.9,10.4
			c-6.2,6.9-9.3,31-9.4,72.2c0,30.5,3.6,48.9,11,55.1s28.8,9.4,64.5,9.3c34.1,0,54.6-3.5,61.4-10.5c6.8-7,10.2-28.2,10.2-63.8
			c0-35.6-3.2-56.7-9.7-63.1C569.1,338.2,548.1,335,512.4,335 M516.6,300.3c52.8,0,86.7,6.4,101.9,19.2c15.2,12.8,22.8,41.5,22.8,86
			c0,48.7-7.6,79.4-22.9,92c-15.3,12.7-52.2,19-110.7,19c-52.8,0-86.9-6.3-102.3-18.8c-15.5-12.5-23.2-40-23.2-82.6
			c0-50.7,7.6-82.5,22.8-95.5C420.1,306.8,457.3,300.3,516.6,300.3L516.6,300.3z"/>
	</defs>
	<clipPath id="SVGID_00000175323518743428756990000017295848896135285130_">
		<use xlink:href="#SVGID_00000101816434451166311580000011243842281398032794_"  style="overflow:visible;"/>
	</clipPath>
	<g style="clip-path:url(#SVGID_00000175323518743428756990000017295848896135285130_);">
		
			<linearGradient id="SVGID_00000093888862361589911790000007904678649322099367_" gradientUnits="userSpaceOnUse" x1="382.18" y1="305.975" x2="641.31" y2="305.975" gradientTransform="matrix(1 0 0 -1 0 714.48)">
			<stop  offset="0" style="stop-color:#005287"/>
			<stop  offset="1" style="stop-color:#00ADEE"/>
		</linearGradient>
		
			<rect x="382.2" y="300.3" style="fill:url(#SVGID_00000093888862361589911790000007904678649322099367_);" width="259.1" height="216.3"/>
	</g>
</g>
<path class="st31" d="M470.1,483.9L470.1,483.9c-11.1-1.7-18.8-3.9-23.7-8c-4.9-4.3-7.6-11.2-9.6-20.8s-2.8-22-2.8-37.5
	c0-20.7,0.8-37.1,2.4-49.5s3.8-20.5,8-25.5c4.6-4.9,12.2-7.3,23.3-9.2s26-2.7,44.6-2.7v8.4c-18.4,0-32.9,0.9-43.3,2.5
	s-16.8,4.4-18.4,6.5c-1.9,1.9-4.6,9.3-6,21s-2.3,27.9-2.3,48.4c0,15.1,0.9,27.1,2.7,35.9s4.4,14.1,6.8,16.1c2.3,2.1,9.1,4.6,19.5,6
	s24.6,2.3,42.3,2.3c16.9,0,30.4-0.9,40.3-2.6s16.1-4.3,18.2-6.6c2.3-2.2,5-8.7,6.5-19c1.6-10.3,2.5-24.3,2.5-41.9
	s-0.8-31.7-2.4-41.9s-4.1-16.5-6.1-18.3c-1.8-2-8.1-4.6-18.3-6.1S530,339,512.3,339v-8.3c18,0,32.3,0.8,43.2,2.5
	c10.9,1.7,18.3,4,23,8.5c4.5,4.7,6.7,12.1,8.4,23s2.5,25.2,2.5,43.1s-0.8,32.2-2.6,43.2s-4.3,18.6-8.8,23.5
	c-4.7,4.7-12.2,7.2-22.8,9.1c-10.6,1.9-24.5,2.7-41.7,2.7C495.6,486.2,481.2,485.5,470.1,483.9 M441.8,516.1
	c-17.4-3.2-30.4-8-39-14.9S388,483.3,384,469s-6-32.2-6-53.7c0-25.5,1.9-46.4,5.8-62.8c3.9-16.4,9.8-28.4,18.4-35.8
	s22.3-12.2,41.3-15.5s43.3-4.9,73.1-4.9v8.4c-29.5,0-53.4,1.6-71.7,4.8s-30.8,8-37.3,13.7s-12,15.9-15.7,31.4s-5.6,35.8-5.6,60.9
	c0,21,1.9,38.2,5.6,51.5s9.2,22.4,16,27.9s18.6,10.2,35.3,13.2s38.2,4.6,64.4,4.6c29.1,0,52.8-1.6,70.9-4.7
	c18.1-3.1,30.6-7.8,37.1-13.3s12.1-15.5,15.8-30.3s5.6-34.4,5.6-58.5c0-22-1.9-40-5.5-53.9s-9.1-23.4-15.7-29
	c-6.7-5.6-18.3-10.4-34.9-13.5c-16.6-3.1-38.1-4.7-64.3-4.7v-8.4c26.6,0,48.5,1.6,65.8,4.9s30.2,8.2,38.8,15.3
	c8.5,7.2,14.5,18.4,18.4,33.2c3.9,14.8,5.8,33.5,5.8,56c0,24.6-1.9,44.7-5.9,60.5s-9.9,27.5-18.5,34.7c-8.7,7.2-22.3,11.9-41.1,15.1
	s-42.9,4.8-72.3,4.8C481.2,520.8,459.3,519.3,441.8,516.1L441.8,516.1z"/>
<path class="st25" d="M724.9,413.7h127.9l1,42.3c0,30.8-7.9,50.7-23.8,59.6s-51.2,13.3-106,13.4c-50.3,0-83.6-5.9-99.9-17.8
	s-24.5-36-24.5-72.4c0-46.5,3.3-75.9,9.8-88.2c8.1-14.9,20.4-25,36.8-30.2c16.5-5.2,44.4-7.8,83.9-7.8c51.7,0,85,4,100.1,12.1
	c15,8.1,22.6,25.9,22.6,53.5H797c-1-13.9-5.2-22.5-12.5-25.9s-25.6-5-55-5c-31.9,0-52.2,2.9-60.8,8.7c-8.6,5.8-12.9,19.4-12.9,40.8
	l-0.2,21.2l0.5,27.1c0,21.3,4.2,34.8,12.8,40.6c8.5,5.8,28.2,8.7,59.2,8.7c30.1,0,49.2-2.4,57.3-7.4c8.1-4.9,12.2-16.5,12.3-34.9
	l0.2-8.8h-73L724.9,413.7z"/>
<g>
	<defs>
		<path id="SVGID_00000023972880455823130220000003944555773372130434_" d="M741.1,401.4H869l1,42.3c0,30.8-7.9,50.7-23.8,59.5
			c-15.8,8.9-51.2,13.3-106,13.4c-50.3,0-83.6-5.9-99.9-17.7c-16.3-11.8-24.5-36-24.5-72.4c0-46.5,3.3-75.9,9.8-88.2
			c8.1-14.9,20.3-25,36.8-30.2s44.4-7.8,83.9-7.8c51.7,0,85,4,100,12.1c15,8.1,22.5,25.9,22.6,53.5h-55.7
			c-1-13.9-5.1-22.5-12.5-25.9s-25.6-5-55-5c-31.9,0-52.2,2.9-60.8,8.7c-8.6,5.8-12.9,19.4-12.9,40.8l-0.2,21.2l0.5,27.1
			c0,21.3,4.3,34.8,12.8,40.6c8.5,5.8,28.2,8.7,59.2,8.7c30.1,0,49.2-2.5,57.3-7.4c8.1-4.9,12.2-16.5,12.3-34.9l0.2-8.8h-73
			L741.1,401.4z"/>
	</defs>
	<clipPath id="SVGID_00000106837598094466393380000004422873216056892069_">
		<use xlink:href="#SVGID_00000023972880455823130220000003944555773372130434_"  style="overflow:visible;"/>
	</clipPath>
	<g style="clip-path:url(#SVGID_00000106837598094466393380000004422873216056892069_);">
		
			<linearGradient id="SVGID_00000119098199867136758230000001412169419488590464_" gradientUnits="userSpaceOnUse" x1="615.86" y1="305.975" x2="869.98" y2="305.975" gradientTransform="matrix(1 0 0 -1 0 714.48)">
			<stop  offset="0" style="stop-color:#005287"/>
			<stop  offset="1" style="stop-color:#00ADEE"/>
		</linearGradient>
		
			<rect x="615.9" y="300.3" style="fill:url(#SVGID_00000119098199867136758230000001412169419488590464_);" width="254.1" height="216.3"/>
	</g>
</g>
<path class="st28" d="M663.7,312.1L663.7,312.1c-15.5,5-26.8,14.2-34.4,28.2c-2.8,5.2-5.3,15.3-6.9,29.7s-2.4,33.3-2.4,56.5
	c0,17.9,2,32.6,5.9,44.1c3.9,11.5,9.5,19.6,16.8,24.9c14.7,10.8,47.5,17,97.5,16.9c27.3,0,49.6-1.1,67.1-3.3
	c17.4-2.2,29.8-5.5,36.8-9.5s12.3-10.2,16-19.4s5.7-21.4,5.6-36.5l-0.9-38.1H745.3v21.2h73.1l-0.3,13c0,9.5-1,17.4-3.3,23.8
	s-5.9,11.5-11,14.6s-12.2,4.8-22.1,6.1c-12.4,1.4-24.9,2-37.4,1.9c-15.6,0-28.4-0.7-38.6-2.2s-17.7-3.7-22.9-7.2s-8.9-9.4-11.2-16.7
	s-3.4-16.4-3.4-27.3l-0.5-27.2l0.2-21.2c0-11,1.1-20.1,3.4-27.5s6-13.1,11.3-16.7s12.9-5.7,23.4-7.2s23.7-2.2,39.7-2.2
	c14.8,0,26.8,0.4,36.2,1.3s16,2.1,20.6,4.2c4.7,2.3,8.5,6.2,10.6,11c2.1,4.6,3.4,9.5,3.9,14.6h47.7c-0.3-11.5-2.2-21-5.2-28.3
	c-3.5-8.2-8.4-13.8-15.1-17.3s-18.4-6.6-34.8-8.6s-37.5-3-63.2-3h-0.4C706.9,304.5,679.3,307.2,663.7,312.1 M637.9,502.3
	c-9-6.5-15.6-16.4-19.9-29c-4.3-12.6-6.3-28.2-6.3-46.8c0-23.3,0.8-42.5,2.5-57.4c1.7-15,4.1-25.7,7.8-32.8
	c8.5-15.8,21.9-26.8,39.2-32.2s45.5-8,85.2-8c25.9,0,47.4,1,64.2,3.1c16.9,2.1,29.4,5.1,37.8,9.5s14.8,11.8,18.8,21.5s6,21.5,6,35.7
	v4.2h-63.9l-0.3-3.9c-0.5-6.6-1.7-11.7-3.5-15.4s-3.9-5.8-6.6-7s-8.9-2.6-17.8-3.4s-20.8-1.2-35.4-1.2c-15.8,0-28.7,0.7-38.6,2.1
	s-16.6,3.6-19.9,5.8s-6,6.1-8,12.3s-3,14.6-3,25l-0.2,21.2l0.5,27.1c0,10.4,1,18.7,3,24.8s4.7,10.1,7.9,12.3s9.9,4.5,19.4,5.8
	s22,2.1,37.4,2.1c14.9,0,27.1-0.6,36.4-1.8s15.7-3,18.8-5s5.6-5,7.4-10.2s2.8-12.2,2.8-21.1v-0.1l0.1-4.5h-72.9v-38h136.2l1.1,46.5
	l0,0c0,15.8-2,28.9-6.2,39.5s-10.8,18.7-19.7,23.6s-22,8.2-39.9,10.5s-40.6,3.4-68.1,3.4C689.6,520.7,655.9,515.2,637.9,502.3z"/>
<path class="st34" d="M173.1,113.5h8.4v19c0,4-1.2,6.6-3.6,7.9c-2.4,1.3-7.2,1.9-14.5,1.9c-7.7,0-12.8-0.6-15.2-1.8
	c-2.4-1.2-3.6-3.8-3.6-7.7v-19.3h8.4v19.4c0,2.1,0.6,3.5,1.8,4.1c1.2,0.6,3.9,0.9,8.3,0.9s7.3-0.3,8.4-0.9c1.1-0.6,1.7-2,1.7-4.3
	V113.5z"/>
<path class="st34" d="M231.4,113.5v28.6h-14.3l-12.8-15.7c-0.7-0.8-1.7-2.1-3-4.1l-1.4-2.1l-1.4-2.1h-0.3l0.1,1.9l0.1,1.9l0.1,3.7
	v16.4h-8.4v-28.6h14.3l11.6,14.5c1,1.3,2.2,2.9,3.6,4.7l1.7,2.3l1.7,2.3h0.3l-0.1-1.9l-0.1-1.8l-0.1-3.7v-16.5H231.4z"/>
<rect x="240.1" y="113.5" class="st34" width="8.4" height="28.6"/>
<path class="st34" d="M285.9,113.5h8.9l-14.3,28.6h-12.9l-14.2-28.6h8.7l8.3,16.2c0.8,1.6,2,4.1,3.5,7.8h0.2l0.8-1.9
	c1-2.4,1.9-4.4,2.7-5.8L285.9,113.5z"/>
<polygon class="st34" points="306.9,118.1 306.9,125.5 327.8,125.5 327.8,129.5 306.9,129.5 306.9,137.6 329.1,137.6 329.1,142.2 
	298.5,142.2 298.5,113.5 328.9,113.5 328.9,118.1 "/>
<path class="st34" d="M344.6,127.9h12.2c2.9,0,4.8-0.3,5.7-1s1.4-2,1.4-4s-0.4-3.4-1.2-4c-0.8-0.6-2.6-0.9-5.3-0.9h-12.7V127.9z
	 M336.3,142.2v-28.6h21.9c5.4,0,9.2,0.6,11.2,1.8c2.1,1.2,3.1,3.4,3.1,6.6c0,2.9-0.5,4.9-1.5,5.9c-1,1.1-3.1,1.8-6.3,2.2v0.2
	c4.9,0.2,7.4,2.1,7.4,5.6v6.4h-8.4v-5.3c0-3-2.3-4.5-6.8-4.5h-12.2v9.7H336.3z"/>
<path class="st34" d="M413.1,121.8h-8.2c0-0.2,0-0.4,0-0.6c-0.2-1.6-0.8-2.6-1.7-3s-3.1-0.6-6.4-0.6c-4,0-6.6,0.2-7.8,0.7
	c-1.2,0.5-2,1.7-1.8,3c0,1.8,0.5,2.9,1.5,3.2s4.3,0.7,9.9,0.9c6.6,0.2,10.9,0.9,12.8,1.8s2.9,3,2.9,6.1c0,3.8-1.1,6.3-3.4,7.4
	s-7.3,1.7-15,1.7c-7,0-11.6-0.6-13.9-1.6s-3.4-3.3-3.4-6.6v-1.1h8.2v0.6c0,2,0.5,3.3,1.6,3.7s4,0.7,8.9,0.7c3.8,0,6.2-0.3,7.2-0.8
	s1.6-1.7,1.6-3.6c0.1-1.1-0.3-2.1-1.2-2.8c-0.8-0.5-2.5-0.7-5.1-0.8l-4.6-0.2c-7-0.2-11.5-0.9-13.5-1.9c-2-1-2.9-3.1-2.9-6.4
	s1.2-5.6,3.5-6.7s7.1-1.7,14.1-1.7c6.7,0,11.2,0.5,13.5,1.5c2.3,1,3.5,3,3.5,6L413.1,121.8z"/>
<rect x="421" y="113.5" class="st34" width="8.4" height="28.6"/>
<polygon class="st34" points="455.9,118.4 455.9,142.2 447.5,142.2 447.5,118.4 434.7,118.4 434.7,113.5 469.2,113.5 469.2,118.4 
	"/>
<path class="st34" d="M511.2,113.5l-16.5,17.7v10.9h-8.4v-10.9l-16-17.7h9.8l6.7,7.6c0.4,0.4,1,1.2,1.9,2.3l0.9,1.1l0.9,1.2h0.2
	l0.9-1.2l1-1.1c0.8-1,1.4-1.8,1.9-2.3l6.7-7.6H511.2z"/>
<path class="st34" d="M551.3,117.9L551.3,117.9c-5.6,0-8.9,0.5-9.9,1.4c-0.9,0.9-1.4,4.2-1.4,9.8c0,4.1,0.6,6.6,1.7,7.5
	c1.1,0.8,4.4,1.3,9.9,1.3c5.2,0,8.3-0.5,9.4-1.4s1.5-3.8,1.5-8.6s-0.5-7.7-1.5-8.6C560,118.3,556.7,117.9,551.3,117.9 M551.9,113.2
	c8.1,0,13.3,0.9,15.6,2.6c2.3,1.7,3.5,5.6,3.5,11.6c0,6.6-1.1,10.7-3.5,12.4c-2.3,1.7-8,2.6-16.9,2.6c-8.1,0-13.3-0.8-15.7-2.5
	s-3.5-5.4-3.5-11.2c0-6.8,1.2-11.1,3.5-12.9S542.9,113.2,551.9,113.2L551.9,113.2z"/>
<polygon class="st34" points="585.9,118.1 585.9,125.8 605.9,125.8 605.9,130.3 585.9,130.3 585.9,142.2 577.5,142.2 577.5,113.5 
	607,113.5 607,118.1 "/>
<path class="st34" d="M648.2,126.9h19.5l0.1,5.7c0,4.2-1.2,6.8-3.6,8s-7.8,1.8-16.2,1.8c-7.7,0-12.8-0.8-15.2-2.4
	c-2.5-1.6-3.7-4.9-3.7-9.8c0-6.3,0.5-10.3,1.5-11.9c1.3-2,3.3-3.5,5.6-4.1c2.5-0.7,6.8-1.1,12.8-1.1c7.9,0,13,0.6,15.3,1.6
	s3.4,3.5,3.4,7.2h-8.5c-0.2-1.9-0.8-3.1-1.9-3.6s-3.9-0.7-8.4-0.7c-4.9,0-7.9,0.4-9.2,1.2s-1.9,2.6-1.9,5.6l0,2.9v3.7
	c0,2.9,0.6,4.7,2,5.4s4.3,1.2,9,1.2s7.5-0.3,8.8-1s1.9-2.2,1.9-4.7v-1.2h-11.1V126.9z"/>
<path class="st34" d="M703.3,113.5h8.4v19c0,4-1.2,6.6-3.6,7.9s-7.2,1.9-14.6,1.9c-7.7,0-12.8-0.6-15.2-1.8s-3.6-3.8-3.6-7.7v-19.3
	h8.4v19.4c0,2.1,0.6,3.5,1.8,4.1s4,0.9,8.3,0.9s7.2-0.3,8.4-0.9s1.7-2,1.7-4.3L703.3,113.5z"/>
<path class="st34" d="M746.9,113.5v19.7c0,3.7-1,6.2-2.8,7.4s-5.7,1.8-11.5,1.8c-6.1,0-10.1-0.6-12-1.8c-1.8-1.2-2.7-3.7-2.7-7.7
	l0.1-2.1h8c0.1,1.1,0.2,1.9,0.2,2.4c0,0.6,0,1.2,0.1,1.9c0.1,1.8,2.3,2.7,6.4,2.7c2.5,0,4-0.3,4.8-1s1.1-2.1,1.1-4.3v-19
	L746.9,113.5z"/>
<path class="st34" d="M764.1,127.9h12.2c2.9,0,4.8-0.3,5.7-1s1.4-2,1.4-4s-0.4-3.4-1.2-4s-2.6-0.9-5.3-0.9h-12.8V127.9z
	 M755.7,142.2v-28.6h21.9c5.4,0,9.2,0.6,11.2,1.8s3.1,3.4,3.1,6.6c0,2.9-0.5,4.9-1.5,5.9s-3.1,1.8-6.3,2.2v0.2
	c4.9,0.2,7.3,2.1,7.3,5.6v6.4H783v-5.3c0-3-2.2-4.5-6.8-4.5h-12.2v9.7H755.7z"/>
<path class="st34" d="M824.5,132.6L824.5,132.6l-7.7-14.9l-7.5,14.9H824.5z M826.5,136.7h-19.2l-2.8,5.5h-8.9l14.8-28.6H823l15,28.6
	h-8.7L826.5,136.7z"/>
<polygon class="st34" points="857.5,118.2 857.5,141.9 849.1,141.9 849.1,118.2 836.3,118.2 836.3,113.2 870.8,113.2 870.8,118.2 
	"/>
<path class="st35" d="M872.7,572.6l-12.6,19.2V602h-9.3v-10.2l-12.3-19.2h10.6l6.2,11.3h0.3l6.4-11.3H872.7z M827.4,579.4V602h-9.3
	v-22.6h-8.8v-6.8h27.4v6.8H827.4z M806.1,572.6V602h-9.3v-29.3H806.1z M791.3,581.8h-8.8c0-1.5-0.3-2.4-1-2.8
	c-1.1-0.5-2.3-0.7-3.5-0.6H777c-0.1,0-0.1,0-0.2,0h-0.2c-1.1,0-2.1,0.1-3.2,0.4c-1,0.3-1.6,1.2-1.5,2.2c0,0.7,0.2,1.4,0.6,2
	c0.6,0.5,1.4,0.8,2.3,0.7c0.5,0,1.1,0.1,1.6,0.1l1.7,0.1h0.5c3.2,0.1,6.4,0.5,9.5,1.3c2.9,0.8,4.3,3.2,4.3,7.2v1.3
	c0,0.4,0,0.9-0.1,1.3c-0.1,0.9-0.3,1.8-0.6,2.7c-0.3,0.9-1,1.7-1.8,2.2c-1.1,0.8-2.4,1.4-3.7,1.6c-1.4,0.3-2.8,0.5-4.2,0.5
	c-0.4,0-0.8,0-1.2,0h-3.5c-4.8,0-8.4-0.4-10.9-1.3c-2.5-0.9-3.7-3.7-3.7-8.3h8.8c-0.1,0.9,0.2,1.8,0.7,2.6c0.5,0.6,1.4,1,2.9,1h4
	c1,0.1,2-0.1,3-0.4c0.8-0.3,1.2-1.1,1.2-2.5c0-1.2-0.4-2-1.1-2.3c-1-0.3-1.9-0.5-2.9-0.5h-0.4l-1.7-0.1l-1.6-0.1
	c-3.2,0-6.4-0.6-9.4-1.6c-2.3-0.9-3.4-3.5-3.4-7.8c-0.1-2.1,0.6-4.3,2-5.9c1.3-1.4,3.5-2.1,6.6-2.3l3-0.2c1,0,2-0.1,3-0.1
	c3.4-0.1,6.7,0.3,10,1.1c2.7,0.7,4,3.2,4,7.4v0.4c0,0.1,0,0.2,0,0.2L791.3,581.8L791.3,581.8z M738.5,587.5h7.4c1.7,0,2.7-0.3,3.1-1
	c0.4-0.9,0.6-1.9,0.5-2.9c0.1-1.1-0.1-2.2-0.6-3.2c-0.4-0.7-1.6-1-3.5-1h-6.9V587.5z M729.2,602v-29.3h17.5c4.4,0,7.6,0.7,9.5,1.9
	s2.9,3.8,2.9,7.8c0.1,1.8-0.2,3.6-0.9,5.3c-0.6,1.3-2.5,2.3-5.7,2.9v0.3c1.7,0,3.4,0.5,4.8,1.6c1.1,1.1,1.6,2.6,1.5,4.2v5.3h-9.5
	v-3.9c0.1-1-0.2-2-0.8-2.8c-0.5-0.7-1.6-1-3.1-1h-6.9v7.8L729.2,602z M708.4,579.1v5.3h14.8v5.5h-14.8v5.7h16.1v6.5h-25.4v-29.4
	h25.1v6.5L708.4,579.1z M686.8,572.7h9.6L686.3,602h-14.4l-9.8-29.3h9.4l7.5,22.6h0.3L686.8,572.7z M659.3,572.7V602H650v-29.4
	L659.3,572.7z M644.4,572.7V602h-15.7l-9.8-22.6h-0.4l0.4,22.6h-9.1v-29.4h15.6l9.8,22.3h0.4l-0.4-22.3L644.4,572.7z M594.9,572.7
	h9.3v18.5c0,0.4,0,0.8,0,1.1s0,0.7-0.1,1c0,0.1,0,0.2,0,0.3c0,0.1,0,0.2,0,0.3c0,0.2,0,0.5,0,0.7s0,0.5-0.1,0.7
	c-0.5,2.9-2.1,4.8-4.6,5.6c-2.7,0.8-5.5,1.2-8.3,1.2h-1.2c-5,0-8.8-0.5-11.6-1.4c-2.7-1-4.1-3.9-4.1-8.9v-19.2h9.3v19.1
	c0,1.7,0.5,2.8,1.4,3.1c1.3,0.4,2.7,0.6,4.1,0.5c1.6,0.1,3.1-0.1,4.6-0.6c0.9-0.4,1.4-1.5,1.4-3.5L594.9,572.7z M554.1,581.8h-8.8
	c0-1.5-0.3-2.4-1-2.8c-1.1-0.5-2.3-0.7-3.5-0.6h-0.9c-0.1,0-0.1,0-0.2,0h-0.2c-1.1,0-2.1,0.1-3.2,0.4c-1,0.3-1.6,1.2-1.5,2.2
	c0,0.7,0.2,1.4,0.6,2c0.6,0.5,1.4,0.8,2.3,0.7c0.5,0,1,0.1,1.6,0.1l1.7,0.1h0.5c3.2,0.1,6.4,0.5,9.5,1.3c2.9,0.8,4.3,3.2,4.3,7.2
	v1.3c0,0.4,0,0.9-0.1,1.3c-0.1,0.9-0.3,1.8-0.6,2.7c-0.3,0.9-0.9,1.7-1.7,2.2c-1.1,0.8-2.4,1.3-3.7,1.6c-1.4,0.3-2.8,0.5-4.3,0.5
	c-0.4,0-0.8,0-1.2,0H540c-4.8,0-8.4-0.4-10.9-1.3s-3.7-3.7-3.7-8.3h8.8c-0.1,0.9,0.2,1.8,0.7,2.6c0.5,0.6,1.4,1,2.8,1h4
	c1,0.1,2-0.1,3-0.4c0.8-0.3,1.2-1.1,1.2-2.5s-0.4-2-1.1-2.3c-1-0.3-1.9-0.5-2.9-0.5h-0.4l-1.7-0.1l-1.6-0.1c-3.2,0-6.4-0.6-9.4-1.6
	c-2.3-0.9-3.4-3.5-3.4-7.8c-0.1-2.1,0.6-4.3,2-5.9c1.3-1.3,3.5-2.1,6.6-2.3l3-0.2c1,0,2-0.1,3-0.1c3.4-0.1,6.7,0.3,10,1.1
	c2.7,0.7,4,3.2,4,7.4v0.4c0,0.1-0.1,0.2,0,0.2L554.1,581.8L554.1,581.8z M521,581.8h-8.8c0-1.5-0.4-2.4-1-2.8
	c-1.1-0.5-2.3-0.7-3.5-0.6h-0.9c-0.1,0-0.1,0-0.2,0h-0.2c-1.1,0-2.1,0.1-3.2,0.4c-1,0.3-1.6,1.2-1.5,2.2c0,0.7,0.2,1.4,0.6,2
	c0.6,0.5,1.4,0.8,2.3,0.7c0.5,0,1.1,0.1,1.6,0.1l1.7,0.1h0.5c3.2,0.1,6.4,0.5,9.5,1.3c2.9,0.8,4.3,3.2,4.3,7.2v1.3
	c0,0.4,0,0.9-0.1,1.3c-0.1,0.9-0.3,1.8-0.6,2.7c-0.3,0.9-0.9,1.7-1.7,2.2c-1.1,0.8-2.4,1.3-3.7,1.6c-1.4,0.3-2.8,0.5-4.3,0.5
	c-0.4,0-0.8,0-1.2,0h-3.5c-4.8,0-8.4-0.4-10.9-1.3s-3.7-3.7-3.7-8.3h8.8c-0.1,0.9,0.2,1.8,0.7,2.6c0.5,0.6,1.4,1,2.9,1h4
	c1,0.1,2-0.1,3-0.4c0.8-0.3,1.2-1.1,1.2-2.5c0-1.2-0.4-2-1.1-2.3c-1-0.3-1.9-0.5-2.9-0.5h-0.4l-1.7-0.1l-1.6-0.1
	c-3.2,0-6.4-0.6-9.4-1.6c-2.3-0.9-3.4-3.5-3.4-7.8c-0.1-2.1,0.6-4.3,2-5.9c1.3-1.3,3.5-2.1,6.6-2.3l3-0.2c1,0,2-0.1,3-0.1
	c3.4-0.1,6.7,0.3,10,1.1c2.7,0.7,4,3.2,4,7.4v0.4c0,0.1,0,0.2,0,0.2L521,581.8L521,581.8z M477.9,591.3l-4.4-12.8l-4.3,12.8H477.9z
	 M479.7,596.9h-12.5l-1.7,5.1h-9.7l10.4-29.3h14.1l10.5,29.3h-9.5L479.7,596.9z M439.8,572.7v22.6h14.5v6.7h-23.9v-29.4L439.8,572.7
	z M417.6,590.9h9.2v0.9c0,1.7-0.2,3.4-0.5,5.1c-0.4,1.6-1.6,2.9-3.7,3.9c-1.1,0.6-2.3,0.9-3.5,1.1c-1.3,0.2-2.5,0.3-3.8,0.3h-2.9
	c-0.7,0-1.3,0-1.9,0h-2c-0.7,0-1.3,0-2,0c-4.5-0.4-7.3-1.9-8.4-4.3c-1.1-2.7-1.7-5.6-1.7-8.6v-3.8c0-5,1.1-8.4,3.4-10.2
	c2.3-1.8,6.3-2.7,12.1-2.7h2.9c0.2,0,0.5,0,0.8,0h0.8c1.8,0.1,3.5,0.3,5.2,0.8c1.6,0.4,3,1.4,4,2.8c0.5,0.7,0.8,1.5,1,2.3
	c0.2,0.8,0.3,1.6,0.3,2.4c0,0.2,0,0.5,0,0.7s0,0.5,0,0.7v1.1h-9.4c0.1-1.1-0.2-2.2-1-3.1c-1.1-0.7-2.4-1-3.7-0.9h-1.6
	c-0.2,0-0.5,0-0.7,0c-0.2,0-0.5,0-0.7,0c-0.5,0-1.1,0.1-1.6,0.2c-0.5,0.1-0.9,0.4-1.3,0.7c-0.3,0.3-0.6,0.7-0.7,1.1
	c-0.1,0.4-0.2,0.8-0.2,1.2c0,0.1,0,0.2,0,0.3c0,0.1,0,0.2,0,0.3c0,0.4-0.1,0.8-0.1,1.2s0,0.8-0.1,1.3v4.1c0,2.1,0.4,3.6,1.1,4.4
	s2.4,1.2,4.9,1.2c1.5,0.1,2.9-0.2,4.3-0.6c1-0.4,1.6-1.5,1.6-3.2v-0.4c0-0.1,0-0.1,0-0.2L417.6,590.9L417.6,590.9z M356.3,595.3h7.5
	c1.4,0.1,2.7-0.3,3.8-1.2c0.8-0.9,1.3-2,1.3-3.2c0-0.4,0.1-0.8,0.1-1.2s0-0.8,0.1-1.2v-3.3c0-0.3,0-0.7,0-1c0-0.6-0.1-1.2-0.3-1.8
	c-0.1-0.5-0.3-1-0.6-1.5c-0.4-0.5-0.9-0.9-1.5-1.1c-0.7-0.2-1.3-0.3-2-0.3h-0.8l-7.5,0L356.3,595.3z M347,602v-29.4h18.1
	c4.4,0,7.7,0.9,10,2.6c2.3,1.7,3.5,4.5,3.5,8.4l-0.1,3.4c0.1,3.5-0.5,7.1-1.7,10.4c-1.1,3-4.6,4.5-10.5,4.5L347,602z M329.2,572.7
	v22.6h14.5v6.7h-23.9v-29.4L329.2,572.7z M294.7,587.5h7.4c1.7,0,2.7-0.3,3.1-1c0.4-0.9,0.6-1.9,0.5-2.9c0.1-1.1-0.1-2.2-0.6-3.2
	c-0.4-0.7-1.6-1-3.5-1h-6.9V587.5z M285.4,602v-29.4h17.5c4.4,0,7.6,0.7,9.5,1.9c1.9,1.2,2.9,3.8,2.9,7.8c0.1,1.8-0.3,3.7-0.9,5.4
	c-0.6,1.3-2.5,2.3-5.7,2.9v0.3c1.7,0,3.4,0.5,4.8,1.6c1.1,1.1,1.6,2.6,1.5,4.2v5.3h-9.5v-3.9c0.1-1-0.2-2-0.8-2.8
	c-0.5-0.7-1.6-1-3.1-1h-6.9v7.8L285.4,602z M258.4,587.4v1.8c-0.1,1.6,0.2,3.2,0.8,4.8c0.5,1.1,2.2,1.6,5.1,1.6
	c3.2,0,5.2-0.4,6.1-1.3c0.9-0.9,1.3-2.5,1.3-5v-1c0-0.3,0-0.7,0.1-1.1v-2.2c0.1-1.5-0.2-3-1-4.3c-0.6-0.9-2.2-1.4-4.7-1.4
	c-3.6,0-5.7,0.4-6.4,1.2c-0.7,0.8-1,3.1-1.1,6.8L258.4,587.4L258.4,587.4z M248.9,587.5v-1.7c0-0.6,0-1.2,0.1-1.8s0.1-1.2,0.2-1.8
	c0.1-0.6,0.1-1.2,0.3-1.8c0.4-3,2.5-5.4,5.3-6.4c3-1,6.1-1.5,9.3-1.5h1c6,0,10.2,0.9,12.6,2.6s3.6,5.2,3.6,10.5s-0.7,9.5-2.1,12.4
	c-1.4,2.8-6,4.2-13.8,4.2h-1.7c-0.6,0-1.2,0-1.8-0.1c-2.5-0.1-5-0.6-7.4-1.4c-2.3-0.8-4-2.6-4.7-4.9c-0.3-1-0.5-2-0.6-3
	c-0.1-1-0.1-2-0.1-3.1L248.9,587.5z M247.6,572.7l-7.7,29.3h-13.4l-4.7-18.4h-0.4l-5,18.4h-13.2l-7.4-29.3h9.3l5,22.6h0.4l6.5-22.6
	h9.6l6.2,22.6h0.3l5.2-22.6L247.6,572.7z M168.7,591.3l-4.4-12.8l-4.3,12.8H168.7z M170.5,596.9h-12.4l-1.7,5.1h-9.7l10.4-29.3h14.1
	l10.5,29.3h-9.4L170.5,596.9z"/>
<path class="st36" d="M424.3,363.2v-8.9h-1.5v-1.4h1.5v-0.5c-0.1-1.3,0.3-2.6,1.2-3.6c0.7-0.6,1.6-1,2.5-1c0.6,0,1.1,0.1,1.6,0.3
	l-0.3,1.5c-0.4-0.2-0.8-0.2-1.2-0.2c-1.6,0-2,1.4-2,3v0.6h2.5v1.4h-2.5v8.9L424.3,363.2z"/>
<path class="st36" d="M430.4,356.1c0-1.2,0-2.3-0.1-3.2h1.6l0.1,2h0.1c0.4-1.3,1.5-2.2,2.9-2.3c0.2,0,0.4,0,0.5,0.1v1.8
	c-0.2-0.1-0.4-0.1-0.6-0.1c-1.3,0.1-2.4,1.1-2.5,2.4c0,0.3-0.1,0.6-0.1,0.9v5.5h-1.9V356.1z"/>
<path class="st36" d="M438.3,358.4c-0.2,1.8,1.2,3.4,3,3.6c0.2,0,0.3,0,0.5,0c1,0,2-0.2,2.9-0.5l0.3,1.4c-1.1,0.5-2.3,0.7-3.5,0.6
	c-3.2,0-5.1-2.1-5.1-5.2s1.8-5.6,4.9-5.6c3.4,0,4.3,3,4.3,4.9c0,0.3,0,0.6-0.1,0.9L438.3,358.4z M443.8,357c0-1.2-0.5-3.1-2.6-3.1
	c-1.9,0-2.7,1.8-2.9,3.1H443.8z"/>
<path class="st36" d="M448.9,358.4c-0.2,1.8,1.2,3.4,3,3.6c0.2,0,0.4,0,0.5,0c1,0,2-0.2,2.9-0.5l0.3,1.4c-1.1,0.5-2.3,0.7-3.4,0.6
	c-3.2,0-5.1-2.1-5.1-5.2s1.8-5.6,4.9-5.6c3.4,0,4.3,3,4.3,4.9c0,0.3,0,0.6-0.1,0.9L448.9,358.4z M454.5,357c0-1.2-0.5-3.1-2.6-3.1
	c-1.9,0-2.7,1.8-2.9,3.1H454.5z"/>
<path class="st36" d="M458.6,348h1.9v15.2h-1.9V348z"/>
<path class="st36" d="M473.1,357.9c0,3.8-2.7,5.5-5.2,5.5c-2.8,0-5-2-5-5.3c0-3.5,2.3-5.5,5.1-5.5S473.1,354.8,473.1,357.9z
	 M464.8,358c0,2.3,1.3,4,3.1,4s3.1-1.7,3.1-4c0-1.8-0.9-4-3.1-4S464.8,356.1,464.8,358L464.8,358z"/>
<path class="st36" d="M484.4,352.8c0,0.8-0.1,1.6-0.1,2.9v6c0,2.4-0.5,3.8-1.5,4.7c-1.1,0.9-2.4,1.3-3.8,1.2c-1.2,0-2.4-0.3-3.4-0.9
	l0.5-1.4c0.9,0.5,1.9,0.8,3,0.8c1.9,0,3.3-1,3.3-3.6v-1.1h0c-0.7,1.1-2,1.8-3.3,1.7c-2.6,0-4.4-2.2-4.4-5c0-3.5,2.3-5.5,4.7-5.5
	c1.3-0.1,2.6,0.6,3.2,1.8l0,0l0.1-1.6L484.4,352.8z M482.4,356.9c0-0.3,0-0.6-0.1-0.9c-0.3-1.2-1.4-2-2.6-2c-1.8,0-3.1,1.5-3.1,3.9
	c0,2,1,3.7,3.1,3.7c1.2,0,2.3-0.8,2.6-1.9c0.1-0.3,0.1-0.7,0.1-1V356.9z"/>
<path class="st36" d="M496.8,357.9c0,3.8-2.6,5.5-5.2,5.5c-2.8,0-5-2-5-5.3c0-3.5,2.3-5.5,5.1-5.5S496.8,354.8,496.8,357.9z
	 M488.6,358c0,2.3,1.3,4,3.1,4s3.1-1.7,3.1-4c0-1.8-0.9-4-3.1-4S488.6,356.1,488.6,358L488.6,358z"/>
<path class="st36" d="M499.7,352.8l2,5.8c0.3,0.9,0.6,1.8,0.8,2.7h0.1c0.2-0.9,0.5-1.7,0.9-2.7l2-5.8h2l-4.1,10.4h-1.8l-3.9-10.4
	H499.7z"/>
<path class="st36" d="M510.1,358.4c-0.2,1.8,1.2,3.4,3,3.6c0.2,0,0.4,0,0.5,0c1,0,2-0.2,2.9-0.5l0.3,1.4c-1.1,0.5-2.3,0.7-3.5,0.6
	c-3.2,0-5.1-2.1-5.1-5.2s1.8-5.6,4.9-5.6c3.4,0,4.3,3,4.3,4.9c0,0.3,0,0.6-0.1,0.9L510.1,358.4z M515.7,357c0-1.2-0.5-3.1-2.6-3.1
	c-1.9,0-2.7,1.8-2.9,3.1H515.7z"/>
<path class="st36" d="M527.2,362.8c-0.9,0.4-2,0.6-3,0.6c-2.7,0.1-5-1.9-5.2-4.7c0-0.2,0-0.4,0-0.6c-0.1-2.9,2.1-5.4,5-5.5
	c0.2,0,0.4,0,0.6,0c0.9,0,1.8,0.2,2.6,0.5l-0.4,1.5c-0.7-0.4-1.4-0.5-2.2-0.5c-2.4,0-3.7,1.8-3.7,3.9c-0.2,2,1.3,3.7,3.2,3.9
	c0.1,0,0.3,0,0.4,0c0.8,0,1.6-0.2,2.3-0.5L527.2,362.8z"/>
<path class="st36" d="M532,349.9v3h2.7v1.4H532v5.6c0,1.3,0.4,2,1.4,2c0.4,0,0.7,0,1.1-0.1l0.1,1.4c-0.5,0.2-1.1,0.3-1.7,0.2
	c-0.7,0-1.5-0.3-2-0.8c-0.6-0.8-0.8-1.7-0.7-2.7v-5.6h-1.6v-1.4h1.6v-2.5L532,349.9z"/>
<path class="st36" d="M546,357.9c0,3.8-2.7,5.5-5.2,5.5c-2.8,0-5-2-5-5.3c0-3.5,2.3-5.5,5.1-5.5C543.9,352.6,546,354.8,546,357.9z
	 M537.8,358c0,2.3,1.3,4,3.2,4c1.8,0,3.1-1.7,3.1-4c0-1.8-0.9-4-3.1-4C538.8,354,537.8,356.1,537.8,358L537.8,358z"/>
<path class="st36" d="M548.4,356.1c0-1.2,0-2.3-0.1-3.2h1.6l0.1,2h0.1c0.4-1.3,1.5-2.2,2.9-2.3c0.2,0,0.4,0,0.5,0.1v1.8
	c-0.2-0.1-0.4-0.1-0.6-0.1c-1.3,0.1-2.4,1.1-2.5,2.4c-0.1,0.3-0.1,0.6-0.1,0.9v5.5h-1.9V356.1z"/>
<path class="st36" d="M555.2,361.3c0.7,0.5,1.6,0.7,2.5,0.8c1.4,0,2-0.7,2-1.5s-0.5-1.4-1.9-1.9c-1.9-0.7-2.7-1.7-2.7-2.9
	c0-1.7,1.3-3,3.6-3c0.9,0,1.8,0.2,2.5,0.6l-0.5,1.4c-0.6-0.4-1.4-0.6-2.1-0.6c-1.1,0-1.7,0.6-1.7,1.4s0.6,1.2,2,1.8
	c1.8,0.7,2.7,1.6,2.7,3.1c0,1.8-1.4,3.1-3.9,3.1c-1,0-2-0.2-2.9-0.7L555.2,361.3z"/>
<path class="st36" d="M563.2,362.1c0-0.7,0.5-1.3,1.2-1.3c0,0,0.1,0,0.1,0c0.7,0,1.4,0.5,1.4,1.3c0,0.7-0.5,1.4-1.3,1.4
	C563.9,363.5,563.3,362.9,563.2,362.1C563.2,362.1,563.2,362.1,563.2,362.1z"/>
<path class="st36" d="M568.1,355.6c0-1.1,0-1.9-0.1-2.8h1.7l0.1,1.7l0,0c0.7-1.2,2-2,3.4-1.9c1.4,0,3.7,0.9,3.7,4.4v6.2H575v-6
	c0-1.7-0.6-3.1-2.4-3.1c-1.2,0-2.2,0.8-2.5,1.9c-0.1,0.3-0.1,0.6-0.1,0.9v6.2H568L568.1,355.6z"/>
<path class="st36" d="M581,358.4c-0.2,1.8,1.2,3.4,3,3.6c0.2,0,0.4,0,0.5,0c1,0,2-0.2,2.9-0.5l0.3,1.4c-1.1,0.5-2.3,0.7-3.4,0.6
	c-3.2,0-5.1-2.1-5.1-5.2s1.8-5.6,4.9-5.6c3.4,0,4.3,3,4.3,4.9c0,0.3,0,0.6-0.1,0.9L581,358.4z M586.5,357c0-1.2-0.5-3.1-2.6-3.1
	c-1.9,0-2.7,1.8-2.9,3.1H586.5z"/>
<path class="st36" d="M593,349.9v3h2.7v1.4H593v5.6c0,1.3,0.4,2,1.4,2c0.4,0,0.7,0,1.1-0.1l0.1,1.4c-0.5,0.2-1.1,0.3-1.7,0.2
	c-0.7,0-1.5-0.3-2-0.8c-0.6-0.8-0.8-1.7-0.7-2.7v-5.6h-1.6v-1.4h1.6v-2.5L593,349.9z"/>
</svg>
